<svg width="64" height="64" viewBox="0 0 64 64" fill="none" xmlns="http://www.w3.org/2000/svg">
<path fill-rule="evenodd" clip-rule="evenodd" d="M24.4572 21.7908C26.4576 19.7904 29.1707 18.6666 31.9997 18.6666C34.8286 18.6666 37.5418 19.7904 39.5421 21.7908C41.5425 23.7912 42.6663 26.5043 42.6663 29.3333C42.6663 32.1623 41.5425 34.8754 39.5421 36.8758C37.5418 38.8762 34.8286 40 31.9997 40C29.1707 40 26.4576 38.8762 24.4572 36.8758C22.4568 34.8754 21.333 32.1623 21.333 29.3333C21.333 26.5043 22.4568 23.7912 24.4572 21.7908ZM31.9997 24C30.5852 24 29.2286 24.5619 28.2284 25.5621C27.2282 26.5622 26.6663 27.9188 26.6663 29.3333C26.6663 30.7478 27.2282 32.1043 28.2284 33.1045C29.2286 34.1047 30.5852 34.6666 31.9997 34.6666C33.4142 34.6666 34.7707 34.1047 35.7709 33.1045C36.7711 32.1043 37.333 30.7478 37.333 29.3333C37.333 27.9188 36.7711 26.5622 35.7709 25.5621C34.7707 24.5619 33.4142 24 31.9997 24Z" fill="#ED2C2C"/>
<path fill-rule="evenodd" clip-rule="evenodd" d="M36.9978 11.3513C33.8298 10.4715 30.4856 10.4441 27.3036 11.2718C24.1216 12.0995 21.2147 13.753 18.877 16.065C16.5392 18.377 14.8536 21.2654 13.9907 24.438C13.1277 27.6106 13.1181 30.9549 13.9627 34.1324C14.8073 37.31 16.4762 40.2081 18.8005 42.5335L30.1172 53.8475C30.5724 54.3031 31.1792 54.5779 31.8219 54.6187C33.2917 54.7119 34.4077 55.979 34.3144 57.4488C34.2212 58.9186 32.9541 60.0346 31.4843 59.9413C29.5461 59.8184 27.7193 58.9927 26.3464 57.6192L15.029 46.3045C12.0406 43.3147 9.89422 39.5879 8.80831 35.5025C7.72239 31.417 7.73481 27.1173 8.84432 23.0382C9.95382 18.9591 12.121 15.2454 15.1267 12.2729C18.1324 9.30039 21.8698 7.17447 25.9609 6.11026C30.0521 5.04605 34.3517 5.08129 38.4248 6.21243C42.498 7.34356 46.2001 9.53046 49.1566 12.5519C52.1132 15.5732 54.2192 19.3219 55.2617 23.4187C56.3042 27.5154 56.2461 31.8148 55.0934 35.8818C54.6918 37.2988 53.2175 38.1219 51.8006 37.7203C50.3836 37.3187 49.5606 35.8444 49.9622 34.4275C50.8587 31.2642 50.9039 27.9202 50.0931 24.7339C49.2822 21.5476 47.6442 18.6319 45.3447 16.2819C43.0452 13.932 40.1657 12.2311 36.9978 11.3513ZM57.8854 43.4477C58.9268 44.4891 58.9268 46.1776 57.8854 47.219L47.2187 57.8856C46.7186 58.3857 46.0403 58.6667 45.3331 58.6667C44.6259 58.6667 43.9476 58.3857 43.4475 57.8856L38.1141 52.5523C37.0728 51.5109 37.0728 49.8225 38.1141 48.7811C39.1555 47.7397 40.844 47.7397 41.8854 48.7811L45.3331 52.2288L54.1141 43.4477C55.1556 42.4063 56.844 42.4063 57.8854 43.4477Z" fill="#ED2C2C"/>
</svg>
