<svg width="64" height="64" viewBox="0 0 64 64" fill="none" xmlns="http://www.w3.org/2000/svg">
<path d="M30.7411 4.26668C30.8908 4.07593 31.0819 3.9217 31.2999 3.81565C31.518 3.70959 31.7573 3.65448 31.9998 3.65448C32.2422 3.65448 32.4815 3.70959 32.6996 3.81565C32.9176 3.9217 33.1087 4.07593 33.2584 4.26668L38.0824 10.4C38.2782 10.6495 38.5437 10.8351 38.8452 10.9334C39.1467 11.0317 39.4706 11.0382 39.7758 10.952L47.2824 8.82401C47.5155 8.75758 47.7607 8.74498 47.9993 8.78715C48.238 8.82932 48.464 8.92517 48.6602 9.06745C48.8564 9.20973 49.0177 9.39473 49.132 9.60848C49.2463 9.82223 49.3105 10.0591 49.3198 10.3013L49.6131 18.1013C49.6254 18.4182 49.7316 18.7242 49.9182 18.9806C50.1048 19.237 50.3634 19.4322 50.6611 19.5413L57.9864 22.2347C58.2138 22.3181 58.4193 22.4521 58.5874 22.6265C58.7555 22.8009 58.8818 23.0112 58.9568 23.2415C59.0318 23.4719 59.0535 23.7162 59.0203 23.9562C58.9871 24.1961 58.8998 24.4254 58.7651 24.6267L54.4184 31.1093C54.2419 31.3728 54.1476 31.6828 54.1476 32C54.1476 32.3172 54.2419 32.6272 54.4184 32.8907L58.7651 39.3733C58.8998 39.5746 58.9871 39.8039 59.0203 40.0439C59.0535 40.2838 59.0318 40.5282 58.9568 40.7585C58.8818 40.9888 58.7555 41.1991 58.5874 41.3735C58.4193 41.5479 58.2138 41.6819 57.9864 41.7653L50.6611 44.4587C50.3639 44.5683 50.1059 44.7636 49.9198 45.02C49.7337 45.2763 49.6279 45.5821 49.6158 45.8987L49.3198 53.6987C49.3105 53.9409 49.2463 54.1778 49.132 54.3915C49.0177 54.6053 48.8564 54.7903 48.6602 54.9326C48.464 55.0748 48.238 55.1707 47.9993 55.2129C47.7607 55.255 47.5155 55.2424 47.2824 55.176L39.7758 53.048C39.4705 52.961 39.1462 52.9668 38.8442 53.0646C38.5422 53.1624 38.2761 53.3479 38.0798 53.5973L33.2611 59.7333C33.1114 59.9241 32.9203 60.0783 32.7023 60.1844C32.4842 60.2904 32.2449 60.3455 32.0024 60.3455C31.76 60.3455 31.5207 60.2904 31.3026 60.1844C31.0846 60.0783 30.8935 59.9241 30.7438 59.7333L25.9198 53.6C25.724 53.3506 25.4585 53.1649 25.157 53.0666C24.8555 52.9683 24.5316 52.9619 24.2264 53.048L16.7198 55.176C16.4867 55.2424 16.2415 55.255 16.0029 55.2129C15.7642 55.1707 15.5382 55.0748 15.342 54.9326C15.1458 54.7903 14.9844 54.6053 14.8702 54.3915C14.7559 54.1778 14.6917 53.9409 14.6824 53.6987L14.3891 45.8987C14.3768 45.5818 14.2706 45.2758 14.084 45.0194C13.8974 44.763 13.6388 44.5678 13.3411 44.4587L6.01576 41.7653C5.78835 41.6819 5.58285 41.5479 5.41475 41.3735C5.24666 41.1991 5.12036 40.9888 5.04538 40.7585C4.9704 40.5282 4.9487 40.2838 4.98191 40.0439C5.01512 39.8039 5.10237 39.5746 5.23709 39.3733L9.58376 32.8907C9.76032 32.6272 9.85458 32.3172 9.85458 32C9.85458 31.6828 9.76032 31.3728 9.58376 31.1093L5.23709 24.6267C5.10237 24.4254 5.01512 24.1961 4.98191 23.9562C4.9487 23.7162 4.9704 23.4719 5.04538 23.2415C5.12036 23.0112 5.24666 22.8009 5.41475 22.6265C5.58285 22.4521 5.78835 22.3181 6.01576 22.2347L13.3411 19.5413C13.6383 19.4318 13.8963 19.2364 14.0824 18.9801C14.2685 18.7237 14.3743 18.4179 14.3864 18.1013L14.6824 10.3013C14.6917 10.0591 14.7559 9.82223 14.8702 9.60848C14.9844 9.39473 15.1458 9.20973 15.342 9.06745C15.5382 8.92517 15.7642 8.82932 16.0029 8.78715C16.2415 8.74498 16.4867 8.75758 16.7198 8.82401L24.2264 10.952C24.5316 11.0382 24.8555 11.0317 25.157 10.9334C25.4585 10.8351 25.724 10.6495 25.9198 10.4L30.7464 4.26668H30.7411Z" stroke="#ED2C2C" stroke-width="5.5"/>
<path fill-rule="evenodd" clip-rule="evenodd" d="M41.7678 24.8989C42.7441 25.8752 42.7441 27.4581 41.7678 28.4344L31.1011 39.1011C30.1248 40.0774 28.5419 40.0774 27.5656 39.1011L22.2322 33.7678C21.2559 32.7915 21.2559 31.2085 22.2322 30.2322C23.2085 29.2559 24.7915 29.2559 25.7678 30.2322L29.3333 33.7978L38.2322 24.8989C39.2085 23.9226 40.7915 23.9226 41.7678 24.8989Z" fill="#ED2C2C"/>
</svg>
