<svg width="64" height="64" viewBox="0 0 64 64" fill="none" xmlns="http://www.w3.org/2000/svg">
<g clip-path="url(#clip0_624_3938)">
<path d="M29.7108 32V32.0267M0.377441 56H48.3774M8.37744 56V13.3333C8.37744 11.9188 8.93934 10.5623 9.93954 9.5621C10.9397 8.5619 12.2963 8 13.7108 8H35.0441C36.4586 8 37.8152 8.5619 38.8153 9.5621C39.8155 10.5623 40.3774 11.9188 40.3774 13.3333V56" stroke="#ED2C2C" stroke-width="5" stroke-linecap="round" stroke-linejoin="round"/>
<path d="M50.2941 25.75H58.1274M50.2941 34.5625C48.8008 35.4247 47.6336 36.7556 46.9737 38.3487C46.3138 39.9418 46.1981 41.7082 46.6444 43.3738C47.0907 45.0394 48.0741 46.5112 49.4421 47.561C50.8102 48.6107 52.4864 49.1797 54.2108 49.1797C55.9352 49.1797 57.6114 48.6107 58.9794 47.561C60.3475 46.5112 61.3309 45.0394 61.7772 43.3738C62.2235 41.7082 62.1077 39.9418 61.4478 38.3487C60.7879 36.7556 59.6208 35.4247 58.1274 34.5625V17.9167C58.1274 16.8779 57.7148 15.8817 56.9803 15.1472C56.2458 14.4126 55.2495 14 54.2108 14C53.172 14 52.1758 14.4126 51.4413 15.1472C50.7068 15.8817 50.2941 16.8779 50.2941 17.9167V34.5625Z" stroke="#ED2C2C" stroke-width="5" stroke-linecap="round" stroke-linejoin="round"/>
</g>
<defs>
<clipPath id="clip0_624_3938">
<rect width="64" height="64" fill="white"/>
</clipPath>
</defs>
</svg>
