<svg width="64" height="64" viewBox="0 0 64 64" fill="none" xmlns="http://www.w3.org/2000/svg">
<path d="M31.4533 56H13.3333C11.9188 56 10.5623 55.4381 9.5621 54.4379C8.5619 53.4377 8 52.0812 8 50.6667V18.6667C8 17.2522 8.5619 15.8957 9.5621 14.8955C10.5623 13.8953 11.9188 13.3334 13.3333 13.3334H45.3333C46.7478 13.3334 48.1044 13.8953 49.1046 14.8955C50.1048 15.8957 50.6667 17.2522 50.6667 18.6667V29.3334" stroke="#ED2C2C" stroke-width="5" stroke-linecap="round" stroke-linejoin="round"/>
<path d="M40 8V18.6667M18.6667 8V18.6667M8 29.3333H50.6667M37.3333 48C37.3333 50.829 38.4571 53.5421 40.4575 55.5425C42.4579 57.5429 45.171 58.6667 48 58.6667C50.829 58.6667 53.5421 57.5429 55.5425 55.5425C57.5429 53.5421 58.6667 50.829 58.6667 48C58.6667 45.171 57.5429 42.4579 55.5425 40.4575C53.5421 38.4571 50.829 37.3333 48 37.3333C45.171 37.3333 42.4579 38.4571 40.4575 40.4575C38.4571 42.4579 37.3333 45.171 37.3333 48Z" stroke="#ED2C2C" stroke-width="5" stroke-linecap="round" stroke-linejoin="round"/>
<path d="M48 43.9894V48L50.6667 50.6667" stroke="#ED2C2C" stroke-width="5" stroke-linecap="round" stroke-linejoin="round"/>
</svg>
