<svg width="64" height="64" viewBox="0 0 64 64" fill="none" xmlns="http://www.w3.org/2000/svg">
<path fill-rule="evenodd" clip-rule="evenodd" d="M18.6096 17.4441C27.0314 11.4708 39.1853 11.9799 46.9222 18.5779L18.6096 17.4441ZM46.9227 18.5783C50.8075 21.8932 52.9268 26.1797 53.3086 30.5216C53.4377 31.9886 54.7316 33.0734 56.1987 32.9444C57.6658 32.8153 58.7505 31.5214 58.6215 30.0543C58.1126 24.2683 55.2934 18.7097 50.3839 14.5207L50.3835 14.5203C40.7604 6.31337 25.907 5.72926 15.5236 13.0942L15.5232 13.0945C5.39767 20.2794 2.40516 33.0236 8.53574 43.2925L5.4699 52.49C5.16745 53.3973 5.37408 54.3972 6.01142 55.1103C6.64876 55.8234 7.6192 56.1406 8.55468 55.9416L20.2171 53.4602C26.8374 56.4062 34.2752 56.6652 40.8529 54.5972C42.2578 54.1555 43.0387 52.6584 42.597 51.2535C42.1553 49.8485 40.6582 49.0677 39.2533 49.5094C33.6282 51.2779 27.2426 50.9589 21.6974 48.2676C21.1636 48.0085 20.5585 47.9348 19.9781 48.0583L12.0034 49.7551L13.9962 43.7766C14.2584 42.9901 14.1398 42.1264 13.6755 41.4396C8.34567 33.5573 10.3061 23.3364 18.6092 17.4443M50.6664 55.9999C52.1391 55.9999 53.3331 57.1939 53.3331 58.6666V58.6933C53.3331 60.166 52.1391 61.3599 50.6664 61.3599C49.1936 61.3599 47.9997 60.166 47.9997 58.6933V58.6666C47.9997 57.1939 49.1936 55.9999 50.6664 55.9999Z" fill="#ED2C2C"/>
<path fill-rule="evenodd" clip-rule="evenodd" d="M49.1377 37.4883C50.8968 37.1364 52.7232 37.3899 54.3198 38.2079L54.3294 38.2128L54.3294 38.2128C55.9213 39.0364 57.1909 40.3701 57.9349 42.0007C58.679 43.6312 58.8546 45.4643 58.4336 47.2064C58.0126 48.9486 57.0193 50.4991 55.6127 51.6099C54.2061 52.7207 52.4675 53.3275 50.6752 53.3332C49.2025 53.3379 48.0048 52.1478 48.0001 50.6751C47.9954 49.2023 49.1855 48.0046 50.6582 47.9999C51.2568 47.998 51.8375 47.7953 52.3073 47.4243C52.7771 47.0533 53.1089 46.5354 53.2495 45.9536C53.3901 45.3717 53.3315 44.7595 53.0829 44.2149C52.8352 43.6719 52.4129 43.2274 51.8835 42.9522C51.3595 42.6851 50.7608 42.6026 50.1841 42.718C49.6056 42.8337 49.0833 43.1418 48.7021 43.5921C47.7506 44.7162 46.068 44.8561 44.9438 43.9046C43.8197 42.9531 43.6798 41.2705 44.6313 40.1464C45.7904 38.7771 47.3786 37.8403 49.1377 37.4883Z" fill="#ED2C2C"/>
</svg>
