<svg width="25" height="24" viewBox="0 0 25 24" fill="none" xmlns="http://www.w3.org/2000/svg">
<path d="M12.333 6.5C12.996 6.5 13.6319 6.76339 14.1008 7.23223C14.5696 7.70107 14.833 8.33696 14.833 9C14.833 9.3283 14.7683 9.65339 14.6427 9.95671C14.5171 10.26 14.3329 10.5356 14.1008 10.7678C13.8686 10.9999 13.593 11.1841 13.2897 11.3097C12.9864 11.4353 12.6613 11.5 12.333 11.5C11.67 11.5 11.0341 11.2366 10.5652 10.7678C10.0964 10.2989 9.83301 9.66304 9.83301 9C9.83301 8.33696 10.0964 7.70107 10.5652 7.23223C11.0341 6.76339 11.67 6.5 12.333 6.5ZM12.333 2C14.1895 2 15.97 2.7375 17.2828 4.05025C18.5955 5.36301 19.333 7.14348 19.333 9C19.333 14.25 12.333 22 12.333 22C12.333 22 5.33301 14.25 5.33301 9C5.33301 7.14348 6.07051 5.36301 7.38326 4.05025C8.69601 2.7375 10.4765 2 12.333 2ZM12.333 4C11.0069 4 9.73516 4.52678 8.79747 5.46447C7.85979 6.40215 7.33301 7.67392 7.33301 9C7.33301 10 7.33301 12 12.333 18.71C17.333 12 17.333 10 17.333 9C17.333 7.67392 16.8062 6.40215 15.8685 5.46447C14.9309 4.52678 13.6591 4 12.333 4Z" fill="white"/>
</svg>
