<svg width="13" height="13" viewBox="0 0 13 13" fill="none" xmlns="http://www.w3.org/2000/svg">
<g id="material-symbols:arrow-back-ios-new-rounded">
<path id="Vector" d="M4.80728 11.4292L9.37082 6.87916C9.42498 6.825 9.46326 6.76632 9.48565 6.70312C9.5084 6.63993 9.51978 6.57222 9.51978 6.5C9.51978 6.42778 9.5084 6.36007 9.48565 6.29687C9.46326 6.23368 9.42498 6.175 9.37082 6.12083L4.80728 1.55729C4.68089 1.4309 4.5229 1.36771 4.33332 1.36771C4.14373 1.36771 3.98123 1.43541 3.84582 1.57083C3.7104 1.70625 3.64269 1.86423 3.64269 2.04479C3.64269 2.22535 3.7104 2.38333 3.84582 2.51875L7.82707 6.5L3.84582 10.4812C3.71943 10.6076 3.65623 10.7633 3.65623 10.9482C3.65623 11.1334 3.72394 11.2937 3.85936 11.4292C3.99478 11.5646 4.15276 11.6323 4.33332 11.6323C4.51387 11.6323 4.67186 11.5646 4.80728 11.4292Z" fill="#1F1A17"/>
</g>
</svg>
