<svg width="65" height="64" viewBox="0 0 65 64" fill="none" xmlns="http://www.w3.org/2000/svg">
<path fill-rule="evenodd" clip-rule="evenodd" d="M40.0134 14.7487C35.4381 12.8004 30.2762 12.7494 25.6632 14.6069C24.2971 15.1571 22.7436 14.4956 22.1935 13.1294C21.6434 11.7632 22.3049 10.2098 23.6711 9.65966C29.5961 7.27375 36.2262 7.33926 42.1029 9.84178C47.9796 12.3443 52.6215 17.0789 55.0075 23.0039C57.3934 28.9289 57.3279 35.559 54.8253 41.4358C53.2806 45.0633 50.8854 48.2203 47.8848 50.6666H54.0005C55.4732 50.6666 56.6671 51.8605 56.6671 53.3333C56.6671 54.8061 55.4732 56 54.0005 56H40.6671C39.1944 56 38.0005 54.8061 38.0005 53.3333V51.9287C37.9995 51.8878 37.9995 51.847 38.0005 51.8063V40C38.0005 38.5272 39.1944 37.3333 40.6671 37.3333C42.1399 37.3333 43.3338 38.5272 43.3338 40V47.4206C46.2245 45.421 48.5194 42.6314 49.9184 39.3462C51.8667 34.7709 51.9177 29.609 50.0602 24.9961C48.2026 20.3832 44.5887 16.6971 40.0134 14.7487ZM15.6805 16.4266C17.1532 16.4266 18.3471 17.6205 18.3471 19.0933V19.12C18.3471 20.5927 17.1532 21.7866 15.6805 21.7866C14.2077 21.7866 13.0138 20.5927 13.0138 19.12V19.0933C13.0138 17.6205 14.2077 16.4266 15.6805 16.4266ZM11.4938 26.6666C12.9666 26.6666 14.1605 27.8605 14.1605 29.3333V29.36C14.1605 30.8327 12.9666 32.0266 11.4938 32.0266C10.0211 32.0266 8.82715 30.8327 8.82715 29.36V29.3333C8.82715 27.8605 10.0211 26.6666 11.4938 26.6666ZM13.0138 37.6C14.4866 37.6 15.6805 38.7939 15.6805 40.2666V40.2933C15.6805 41.7661 14.4866 42.96 13.0138 42.96C11.5411 42.96 10.3471 41.7661 10.3471 40.2933V40.2666C10.3471 38.7939 11.5411 37.6 13.0138 37.6ZM19.7605 46.32C21.2332 46.32 22.4271 47.5139 22.4271 48.9866V49.0133C22.4271 50.4861 21.2332 51.68 19.7605 51.68C18.2877 51.68 17.0938 50.4861 17.0938 49.0133V48.9866C17.0938 47.5139 18.2877 46.32 19.7605 46.32ZM30.0005 50.5066C31.4732 50.5066 32.6671 51.7006 32.6671 53.1733V53.2C32.6671 54.6727 31.4732 55.8666 30.0005 55.8666C28.5277 55.8666 27.3338 54.6727 27.3338 53.2V53.1733C27.3338 51.7006 28.5277 50.5066 30.0005 50.5066Z" fill="#ED2C2C"/>
</svg>
