<svg width="64" height="64" viewBox="0 0 64 64" fill="none" xmlns="http://www.w3.org/2000/svg">
<path fill-rule="evenodd" clip-rule="evenodd" d="M13.3333 10C12.4493 10 11.6014 10.3512 10.9763 10.9763C10.3512 11.6014 10 12.4493 10 13.3333V45.3333C10 47.6319 10.9131 49.8363 12.5384 51.4616C14.1637 53.0869 16.3681 54 18.6667 54C20.9652 54 23.1696 53.0869 24.7949 51.4616C26.4202 49.8363 27.3333 47.6319 27.3333 45.3333V19.5827C27.3333 19.5818 27.3333 19.5809 27.3333 19.5799V13.3333C27.3333 12.4493 26.9821 11.6014 26.357 10.9763C25.7319 10.3512 24.8841 10 24 10H13.3333ZM31.3333 14.7529V13.3333C31.3333 11.3884 30.5607 9.52315 29.1854 8.14788C27.8102 6.77262 25.9449 6 24 6H13.3333C11.3884 6 9.52315 6.77262 8.14788 8.14788C6.77262 9.52315 6 11.3884 6 13.3333V45.3333C6 48.6927 7.33452 51.9146 9.70998 54.29C12.0854 56.6655 15.3073 58 18.6667 58H50.6667C52.6116 58 54.4769 57.2274 55.8521 55.8521C57.2274 54.4769 58 52.6116 58 50.6667V40C58 38.0551 57.2274 36.1898 55.8521 34.8146C54.4769 33.4393 52.6116 32.6667 50.6667 32.6667H49.2471L50.2515 31.6622C51.6263 30.287 52.3989 28.4219 52.3989 26.4773C52.3989 24.5328 51.6265 22.6679 50.2518 21.2927L42.7075 13.7485C41.3323 12.3737 39.4672 11.6011 37.5227 11.6011C35.5781 11.6011 33.7132 12.3735 32.338 13.7482L31.3333 14.7529ZM31.3333 20.4098V44.9233L47.4229 28.834C47.4228 28.8341 47.423 28.8339 47.4229 28.834C48.0477 28.2089 48.3989 27.3611 48.3989 26.4773C48.3989 25.5936 48.0479 24.746 47.4231 24.1209C47.423 24.1208 47.4232 24.121 47.4231 24.1209L39.8793 16.5771C39.2542 15.9522 38.4065 15.6011 37.5227 15.6011C36.6388 15.6011 35.7911 15.9522 35.166 16.5771L31.3333 20.4098ZM27.9134 54L45.247 36.6667H50.6667C51.5507 36.6667 52.3986 37.0179 53.0237 37.643C53.6488 38.2681 54 39.1159 54 40V50.6667C54 51.5507 53.6488 52.3986 53.0237 53.0237C52.3986 53.6488 51.5507 54 50.6667 54H27.9134ZM16.6667 45.3333C16.6667 44.2288 17.5621 43.3333 18.6667 43.3333H18.6933C19.7979 43.3333 20.6933 44.2288 20.6933 45.3333C20.6933 46.4379 19.7979 47.3333 18.6933 47.3333H18.6667C17.5621 47.3333 16.6667 46.4379 16.6667 45.3333Z" fill="#ED2C2C"/>
<path d="M47.4229 28.834L31.3333 44.9233V20.4098L35.166 16.5771C35.7911 15.9522 36.6388 15.6011 37.5227 15.6011C38.4065 15.6011 39.2542 15.9522 39.8793 16.5771L47.4231 24.1209M47.4229 28.834C47.4228 28.8341 47.423 28.8339 47.4229 28.834ZM47.4229 28.834C48.0477 28.2089 48.3989 27.3611 48.3989 26.4773C48.3989 25.5936 48.0479 24.746 47.4231 24.1209M47.4231 24.1209C47.4232 24.121 47.423 24.1208 47.4231 24.1209ZM10.9763 10.9763C11.6014 10.3512 12.4493 10 13.3333 10H24C24.8841 10 25.7319 10.3512 26.357 10.9763C26.9821 11.6014 27.3333 12.4493 27.3333 13.3333V19.5799C27.3333 19.5809 27.3333 19.5818 27.3333 19.5827V45.3333C27.3333 47.6319 26.4202 49.8363 24.7949 51.4616C23.1696 53.0869 20.9652 54 18.6667 54C16.3681 54 14.1637 53.0869 12.5384 51.4616C10.9131 49.8363 10 47.6319 10 45.3333V13.3333C10 12.4493 10.3512 11.6014 10.9763 10.9763ZM31.3333 14.7529V13.3333C31.3333 11.3884 30.5607 9.52315 29.1854 8.14788C27.8102 6.77262 25.9449 6 24 6H13.3333C11.3884 6 9.52315 6.77262 8.14788 8.14788C6.77262 9.52315 6 11.3884 6 13.3333V45.3333C6 48.6927 7.33452 51.9146 9.70998 54.29C12.0854 56.6655 15.3073 58 18.6667 58H50.6667C52.6116 58 54.4769 57.2274 55.8521 55.8521C57.2274 54.4769 58 52.6116 58 50.6667V40C58 38.0551 57.2274 36.1898 55.8521 34.8146C54.4769 33.4393 52.6116 32.6667 50.6667 32.6667H49.2471L50.2515 31.6622C51.6263 30.287 52.3989 28.4219 52.3989 26.4773C52.3989 24.5328 51.6265 22.6679 50.2518 21.2927L42.7075 13.7485C41.3323 12.3737 39.4672 11.6011 37.5227 11.6011C35.5781 11.6011 33.7132 12.3735 32.338 13.7482L31.3333 14.7529ZM27.9134 54L45.247 36.6667H50.6667C51.5507 36.6667 52.3986 37.0179 53.0237 37.643C53.6488 38.2681 54 39.1159 54 40V50.6667C54 51.5507 53.6488 52.3986 53.0237 53.0237C52.3986 53.6488 51.5507 54 50.6667 54H27.9134ZM18.6667 43.3333C17.5621 43.3333 16.6667 44.2288 16.6667 45.3333C16.6667 46.4379 17.5621 47.3333 18.6667 47.3333H18.6933C19.7979 47.3333 20.6933 46.4379 20.6933 45.3333C20.6933 44.2288 19.7979 43.3333 18.6933 43.3333H18.6667Z" stroke="#ED2C2C" stroke-linecap="round" stroke-linejoin="round"/>
</svg>
