<svg width="32" height="32" viewBox="0 0 32 32" fill="none" xmlns="http://www.w3.org/2000/svg">
<path d="M2.66699 28V25.3333H5.33366V6.44665C5.33361 6.13439 5.44316 5.83202 5.64321 5.59226C5.84326 5.35249 6.12111 5.19055 6.42833 5.13465L19.0577 2.83865C19.1729 2.81752 19.2914 2.82202 19.4047 2.85181C19.518 2.8816 19.6234 2.93596 19.7134 3.01103C19.8033 3.0861 19.8757 3.18005 19.9253 3.28621C19.9749 3.39237 20.0005 3.50815 20.0003 3.62532V5.33198L25.3337 5.33332C25.6873 5.33332 26.0264 5.47379 26.2765 5.72384C26.5265 5.97389 26.667 6.31303 26.667 6.66665V25.3333H29.3337V28H24.0003V7.99998H20.0003V28H2.66699ZM17.3337 5.86132L8.00033 7.55998V25.3333H17.3337V5.86132ZM16.0003 14.6667V17.3333H13.3337V14.6667H16.0003Z" fill="#F8F8F8"/>
</svg>
