<svg width="46" height="46" viewBox="0 0 46 46" fill="none" xmlns="http://www.w3.org/2000/svg">
<g clip-path="url(#clip0_142_962)">
<path d="M6.36269 46C5.95391 45.7406 5.85059 45.3565 5.85059 44.8927C5.85583 30.3253 5.85583 15.7586 5.85059 1.19268C5.85957 0.32456 6.10327 0.0898438 6.98936 0.0898438H38.9492C40.0531 0.0898438 40.2306 0.265039 40.2306 1.35664V44.4727H40.7517C43.2774 44.4727 44.1017 44.4816 46.6229 44.4648C47.1013 44.4648 47.4686 44.5838 47.7033 45.014V46H6.36269ZM35.5823 44.4435V4.70107H10.4843V44.4435H35.5823ZM7.43071 1.62954V44.4446H8.92661V4.30352C8.92661 3.36353 9.15122 3.14453 10.0912 3.14453H28.516C29.9209 3.14453 34.731 3.14453 36.1371 3.14453C36.894 3.14453 37.1478 3.40845 37.1613 4.17212C37.1613 4.30688 37.1613 4.44165 37.1613 4.57529V44.4435H38.6561V1.62954H7.43071Z" fill="white"/>
<path d="M3.18287 46C2.69772 45.6462 2.55397 45.3441 2.7067 44.9724C2.85944 44.6007 3.17726 44.4727 3.56583 44.4727C4.96627 44.4727 6.36671 44.4805 7.76715 44.4727C8.20739 44.4727 8.58473 44.5681 8.71837 45.0342C8.85201 45.5002 8.58473 45.7934 8.20065 46.0045L3.18287 46Z" fill="white"/>
<path d="M0.62721 46C0.142054 45.6462 -0.00169596 45.3441 0.151038 44.9724C0.303773 44.6007 0.621595 44.4727 1.01017 44.4727C2.41061 44.4727 3.81105 44.4805 5.21149 44.4727C5.65172 44.4727 6.02907 44.5681 6.16271 45.0342C6.29635 45.5002 6.02907 45.7934 5.64498 46.0045L0.62721 46Z" fill="white"/>
<path d="M23.0473 15.3992C20.8514 15.3992 18.6559 15.3992 16.4607 15.3992C15.642 15.3992 15.4129 15.151 15.3983 14.3211C15.3432 11.263 16.5584 8.8732 19.1852 7.27398C23.7324 4.50567 29.8148 7.38629 30.5819 12.6646C30.6553 13.2565 30.6895 13.8527 30.6841 14.4491C30.6919 15.1342 30.4055 15.3936 29.6733 15.3959C27.9259 15.3959 26.1784 15.3959 24.4309 15.3959L23.0473 15.3992ZM22.2365 12.6298V7.82203C21.0281 7.93434 19.5322 8.65309 18.9606 9.37071L22.2365 12.6298ZM27.1386 9.3213C26.2242 8.48771 25.0745 7.95701 23.847 7.80182V12.6073L27.1386 9.3213ZM17.8465 10.6454C17.2637 11.6045 16.9189 12.6556 16.9481 13.8393H21.018L17.8465 10.6454ZM28.2549 10.6903L25.1104 13.8404H29.1084C29.2207 12.8858 28.8389 11.5449 28.2549 10.6903Z" fill="white"/>
<path d="M15.3987 36.7641C15.3987 35.0923 15.3987 33.4197 15.3987 31.7463C15.3987 30.9501 15.6503 30.6929 16.4353 30.6907C18.033 30.6907 19.6311 30.6907 21.2296 30.6907C22.0157 30.6907 22.274 30.9512 22.274 31.7418C22.274 35.132 22.274 38.5221 22.274 41.9122C22.274 42.6792 22.009 42.942 21.2554 42.9442C19.6427 42.9442 18.03 42.9442 16.4173 42.9442C15.6604 42.9442 15.4066 42.6814 15.3987 41.9166C15.3957 40.1991 15.3957 38.4816 15.3987 36.7641ZM16.9575 32.2483V41.3832H20.7186V32.2483H16.9575Z" fill="white"/>
<path d="M30.6902 36.8359C30.6902 38.5235 30.6902 40.211 30.6902 41.8986C30.6902 42.6926 30.4364 42.9453 29.6469 42.9464C28.0484 42.9464 26.4503 42.9464 24.8526 42.9464C24.0855 42.9464 23.816 42.6892 23.8149 41.9356C23.8104 38.5306 23.8104 35.124 23.8149 31.7159C23.8149 30.9556 24.0811 30.6928 24.8402 30.6906C26.4529 30.6853 28.0656 30.6853 29.6783 30.6906C30.4364 30.6906 30.6891 30.9545 30.6891 31.726C30.6928 33.4286 30.6932 35.1319 30.6902 36.8359ZM29.137 32.2527H25.3804V41.391H29.1336L29.137 32.2527Z" fill="white"/>
<path d="M22.2768 23.0303C22.2768 24.7186 22.2768 26.4062 22.2768 28.093C22.2768 28.9308 22.0455 29.1588 21.2133 29.1588C19.6156 29.1588 18.0178 29.1588 16.4201 29.1588C15.643 29.1588 15.4015 28.9185 15.4004 28.148C15.4004 24.7445 15.4004 21.3398 15.4004 17.9339C15.4004 17.1849 15.6497 16.9367 16.3909 16.9355C18.0193 16.9355 19.647 16.9355 21.2739 16.9355C22.0196 16.9355 22.2723 17.1837 22.2757 17.9283C22.2813 19.6264 22.2768 21.3278 22.2768 23.0303ZM16.9581 18.4752V27.5933H20.7068V18.4752H16.9581Z" fill="white"/>
<path d="M30.6908 23.0921C30.6908 24.7639 30.6908 26.4365 30.6908 28.1098C30.6908 28.9218 30.4583 29.1576 29.6598 29.1588C28.0471 29.1588 26.4344 29.1588 24.8217 29.1588C24.0738 29.1588 23.8166 28.9117 23.811 28.1716C23.8065 24.7523 23.8065 21.3326 23.811 17.9126C23.811 17.1747 24.0704 16.9322 24.8217 16.931C26.4344 16.931 28.0471 16.931 29.6598 16.931C30.4392 16.931 30.6829 17.1702 30.684 17.9418C30.693 19.6533 30.6908 21.3749 30.6908 23.0921ZM29.1421 18.4876H25.3731V27.5944H29.1421V18.4876Z" fill="white"/>
</g>
<defs>
<clipPath id="clip0_142_962">
<rect width="46" height="46" fill="white"/>
</clipPath>
</defs>
</svg>
