<svg width="32" height="32" viewBox="0 0 32 32" fill="none" xmlns="http://www.w3.org/2000/svg">
<mask id="path-1-inside-1_142_1204" fill="white">
<path d="M16.5516 1.18897C18.6516 0.71097 20.1646 2.19997 20.5296 3.44497L20.5326 3.45697L20.6626 3.92297C21.2406 3.33197 22.0326 2.99997 22.9836 2.99997C23.4144 2.99984 23.841 3.08459 24.239 3.24938C24.637 3.41417 24.9986 3.65576 25.3032 3.96037C25.6078 4.26497 25.8494 4.62661 26.0142 5.02461C26.179 5.42262 26.2638 5.8492 26.2636 6.27997C26.2636 8.37297 26.2526 10.51 26.2406 12.644V12.645C26.2296 14.781 26.2186 16.913 26.2186 19C26.2186 25.848 21.1986 30.81 15.5986 30.844H15.5956C11.1356 30.854 7.23263 28.258 5.86363 24.161C5.68007 23.5489 5.66609 22.8985 5.82318 22.2791C5.98027 21.6597 6.30255 21.0946 6.75563 20.644C6.62454 20.5075 6.50387 20.3615 6.39463 20.207C5.80063 19.37 5.50163 18.217 5.89163 17.106C6.70163 14.803 8.58363 12.85 11.0816 11.709L7.96763 6.61297C7.48563 5.80397 7.40763 4.83897 7.60463 3.99597C7.80263 3.15597 8.30663 2.31897 9.13863 1.83697C10.7706 0.89397 12.9666 1.30497 13.9186 2.92897L14.2146 3.40697C14.3843 2.86971 14.6877 2.38435 15.0963 1.99641C15.5049 1.60846 16.0063 1.33063 16.5516 1.18897ZM9.14163 19.705C9.69163 19.705 10.0016 19.485 10.3666 19.031C10.5053 18.8554 10.6377 18.6749 10.7636 18.49C10.8376 18.384 10.9166 18.27 11.0086 18.143C11.2466 17.813 11.5416 17.433 11.9236 17.103C12.8486 16.3147 14.034 15.8994 15.2486 15.938H15.2546C16.7466 15.992 17.9176 16.623 18.6976 17.576C19.4616 18.51 19.8116 19.701 19.7976 20.851C19.7836 22.001 19.4046 23.181 18.6176 24.09C17.8136 25.019 16.6276 25.61 15.1406 25.61C14.1606 25.61 13.1666 25.258 12.3496 24.724C11.5346 24.191 10.8036 23.414 10.4466 22.471C10.3096 22.106 9.76663 21.732 9.10863 21.705L9.03463 21.703H9.03063C8.22763 21.703 7.49763 22.577 7.76763 23.547C8.84463 26.738 11.9176 28.852 15.5886 28.844C19.9686 28.817 24.2186 24.87 24.2186 19C24.2186 16.907 24.2296 14.77 24.2406 12.636C24.2526 10.5 24.2636 8.36697 24.2636 6.27997C24.2636 5.57197 23.6916 4.99997 22.9836 4.99997C22.4406 4.99997 22.1436 5.20197 21.9446 5.50997C21.9329 5.52805 21.9216 5.54639 21.9106 5.56497C21.8112 5.89641 21.7623 6.24095 21.7656 6.58697V6.60097L21.6456 9.48697C21.6096 10.344 20.3956 10.479 20.1716 9.65097L19.6536 7.72497C19.6451 7.70092 19.6374 7.67657 19.6306 7.65197L18.6086 4.00297C18.4726 3.54897 17.8556 2.95597 17.0156 3.13397C16.6896 3.22849 16.4127 3.44523 16.2426 3.73897C16.2352 3.78176 16.2292 3.82479 16.2246 3.86797C16.1776 4.28797 16.2396 4.75597 16.3136 5.05097L16.3156 5.06097L17.3156 9.46497C17.5036 10.296 16.3806 10.748 15.9406 10.018L14.9216 8.32397L12.2136 3.97397C12.2078 3.96473 12.2021 3.95539 12.1966 3.94597C11.8826 3.40197 10.9646 3.09197 10.1406 3.56897C9.88363 3.71797 9.65263 4.02897 9.55263 4.45397C9.45263 4.87697 9.51263 5.29397 9.68463 5.58597L13.0226 11.051C13.1476 11.162 13.2876 11.262 13.4386 11.352C13.6153 11.4608 13.7429 11.634 13.7946 11.835C13.8406 11.995 13.8436 12.164 13.8216 12.313C13.799 12.4754 13.7406 12.6308 13.6506 12.768C13.592 12.8587 13.5148 12.936 13.4241 12.9947C13.3335 13.0535 13.2314 13.0924 13.1246 13.109C13.0434 13.1203 12.9624 13.1333 12.8816 13.148L12.8696 13.152C10.2996 14.007 8.47463 15.789 7.77963 17.769C7.64663 18.145 7.72463 18.626 8.02563 19.05C8.31463 19.458 8.71763 19.685 9.08863 19.703L9.14163 19.705ZM11.5796 20.675C11.8956 20.968 12.1536 21.33 12.3176 21.764C12.4876 22.216 12.8876 22.686 13.4436 23.05C13.9986 23.413 14.6196 23.61 15.1406 23.61C16.0576 23.61 16.6886 23.263 17.1066 22.78C17.5406 22.278 17.7886 21.573 17.7976 20.827C17.8076 20.08 17.5776 19.364 17.1506 18.843C16.7406 18.343 16.1106 17.971 15.1856 17.937C14.4737 17.9142 13.7786 18.1553 13.2336 18.614L13.2296 18.617C13.0296 18.79 12.8446 19.016 12.6316 19.312C12.5766 19.387 12.5166 19.474 12.4516 19.565C12.2926 19.794 12.1076 20.059 11.9246 20.286C11.8186 20.418 11.7046 20.549 11.5796 20.675Z"/>
</mask>
<path d="M16.5516 1.18897C18.6516 0.71097 20.1646 2.19997 20.5296 3.44497L20.5326 3.45697L20.6626 3.92297C21.2406 3.33197 22.0326 2.99997 22.9836 2.99997C23.4144 2.99984 23.841 3.08459 24.239 3.24938C24.637 3.41417 24.9986 3.65576 25.3032 3.96037C25.6078 4.26497 25.8494 4.62661 26.0142 5.02461C26.179 5.42262 26.2638 5.8492 26.2636 6.27997C26.2636 8.37297 26.2526 10.51 26.2406 12.644V12.645C26.2296 14.781 26.2186 16.913 26.2186 19C26.2186 25.848 21.1986 30.81 15.5986 30.844H15.5956C11.1356 30.854 7.23263 28.258 5.86363 24.161C5.68007 23.5489 5.66609 22.8985 5.82318 22.2791C5.98027 21.6597 6.30255 21.0946 6.75563 20.644C6.62454 20.5075 6.50387 20.3615 6.39463 20.207C5.80063 19.37 5.50163 18.217 5.89163 17.106C6.70163 14.803 8.58363 12.85 11.0816 11.709L7.96763 6.61297C7.48563 5.80397 7.40763 4.83897 7.60463 3.99597C7.80263 3.15597 8.30663 2.31897 9.13863 1.83697C10.7706 0.89397 12.9666 1.30497 13.9186 2.92897L14.2146 3.40697C14.3843 2.86971 14.6877 2.38435 15.0963 1.99641C15.5049 1.60846 16.0063 1.33063 16.5516 1.18897ZM9.14163 19.705C9.69163 19.705 10.0016 19.485 10.3666 19.031C10.5053 18.8554 10.6377 18.6749 10.7636 18.49C10.8376 18.384 10.9166 18.27 11.0086 18.143C11.2466 17.813 11.5416 17.433 11.9236 17.103C12.8486 16.3147 14.034 15.8994 15.2486 15.938H15.2546C16.7466 15.992 17.9176 16.623 18.6976 17.576C19.4616 18.51 19.8116 19.701 19.7976 20.851C19.7836 22.001 19.4046 23.181 18.6176 24.09C17.8136 25.019 16.6276 25.61 15.1406 25.61C14.1606 25.61 13.1666 25.258 12.3496 24.724C11.5346 24.191 10.8036 23.414 10.4466 22.471C10.3096 22.106 9.76663 21.732 9.10863 21.705L9.03463 21.703H9.03063C8.22763 21.703 7.49763 22.577 7.76763 23.547C8.84463 26.738 11.9176 28.852 15.5886 28.844C19.9686 28.817 24.2186 24.87 24.2186 19C24.2186 16.907 24.2296 14.77 24.2406 12.636C24.2526 10.5 24.2636 8.36697 24.2636 6.27997C24.2636 5.57197 23.6916 4.99997 22.9836 4.99997C22.4406 4.99997 22.1436 5.20197 21.9446 5.50997C21.9329 5.52805 21.9216 5.54639 21.9106 5.56497C21.8112 5.89641 21.7623 6.24095 21.7656 6.58697V6.60097L21.6456 9.48697C21.6096 10.344 20.3956 10.479 20.1716 9.65097L19.6536 7.72497C19.6451 7.70092 19.6374 7.67657 19.6306 7.65197L18.6086 4.00297C18.4726 3.54897 17.8556 2.95597 17.0156 3.13397C16.6896 3.22849 16.4127 3.44523 16.2426 3.73897C16.2352 3.78176 16.2292 3.82479 16.2246 3.86797C16.1776 4.28797 16.2396 4.75597 16.3136 5.05097L16.3156 5.06097L17.3156 9.46497C17.5036 10.296 16.3806 10.748 15.9406 10.018L14.9216 8.32397L12.2136 3.97397C12.2078 3.96473 12.2021 3.95539 12.1966 3.94597C11.8826 3.40197 10.9646 3.09197 10.1406 3.56897C9.88363 3.71797 9.65263 4.02897 9.55263 4.45397C9.45263 4.87697 9.51263 5.29397 9.68463 5.58597L13.0226 11.051C13.1476 11.162 13.2876 11.262 13.4386 11.352C13.6153 11.4608 13.7429 11.634 13.7946 11.835C13.8406 11.995 13.8436 12.164 13.8216 12.313C13.799 12.4754 13.7406 12.6308 13.6506 12.768C13.592 12.8587 13.5148 12.936 13.4241 12.9947C13.3335 13.0535 13.2314 13.0924 13.1246 13.109C13.0434 13.1203 12.9624 13.1333 12.8816 13.148L12.8696 13.152C10.2996 14.007 8.47463 15.789 7.77963 17.769C7.64663 18.145 7.72463 18.626 8.02563 19.05C8.31463 19.458 8.71763 19.685 9.08863 19.703L9.14163 19.705ZM11.5796 20.675C11.8956 20.968 12.1536 21.33 12.3176 21.764C12.4876 22.216 12.8876 22.686 13.4436 23.05C13.9986 23.413 14.6196 23.61 15.1406 23.61C16.0576 23.61 16.6886 23.263 17.1066 22.78C17.5406 22.278 17.7886 21.573 17.7976 20.827C17.8076 20.08 17.5776 19.364 17.1506 18.843C16.7406 18.343 16.1106 17.971 15.1856 17.937C14.4737 17.9142 13.7786 18.1553 13.2336 18.614L13.2296 18.617C13.0296 18.79 12.8446 19.016 12.6316 19.312C12.5766 19.387 12.5166 19.474 12.4516 19.565C12.2926 19.794 12.1076 20.059 11.9246 20.286C11.8186 20.418 11.7046 20.549 11.5796 20.675Z" fill="#F8F8F8"/>
<path d="M16.5516 1.18897L15.8858 -1.73621L15.8414 -1.72611L15.7974 -1.71466L16.5516 1.18897ZM20.5296 3.44497L23.44 2.71731L23.4254 2.65882L23.4085 2.60097L20.5296 3.44497ZM20.5326 3.45697L17.6222 4.18463L17.6321 4.224L17.643 4.26309L20.5326 3.45697ZM20.6626 3.92297L17.773 4.72909L19.1706 9.73916L22.8074 6.02057L20.6626 3.92297ZM22.9836 2.99997V5.99997L22.9845 5.99997L22.9836 2.99997ZM26.2636 6.27997L23.2636 6.27906V6.27997H26.2636ZM26.2406 12.644L23.2407 12.6271L23.2406 12.6355V12.644H26.2406ZM26.2406 12.645L29.2406 12.6604L29.2406 12.6527V12.645H26.2406ZM15.5986 30.844V33.844H15.6077L15.6168 33.8439L15.5986 30.844ZM15.5956 30.844V27.844L15.5889 27.844L15.5956 30.844ZM5.86363 24.161L2.99008 25.0228L3.00349 25.0675L3.01828 25.1117L5.86363 24.161ZM6.75563 20.644L8.87111 22.7711L10.9619 20.6918L8.91892 18.5655L6.75563 20.644ZM6.39463 20.207L8.84413 18.4749L8.84115 18.4707L6.39463 20.207ZM5.89163 17.106L3.06157 16.1106L3.06097 16.1123L5.89163 17.106ZM11.0816 11.709L12.3281 14.4378L15.4058 13.032L13.6415 10.1447L11.0816 11.709ZM7.96763 6.61297L5.39039 8.14849L5.39898 8.16291L5.40774 8.17724L7.96763 6.61297ZM7.60463 3.99597L4.68465 3.30769L4.68334 3.3133L7.60463 3.99597ZM9.13863 1.83697L7.63772 -0.760581L7.63479 -0.758882L9.13863 1.83697ZM13.9186 2.92897L11.3305 4.44613L11.3489 4.47749L11.3681 4.5084L13.9186 2.92897ZM14.2146 3.40697L11.6641 4.9864L15.1061 10.5447L17.0753 4.3106L14.2146 3.40697ZM9.14163 19.705L9.02846 22.7028L9.08503 22.705H9.14163V19.705ZM10.3666 19.031L12.7047 20.9107L12.7129 20.9005L12.7211 20.8902L10.3666 19.031ZM10.7636 18.49L8.30376 16.7727L8.2937 16.7871L8.28381 16.8016L10.7636 18.49ZM11.0086 18.143L13.4382 19.9029L13.4418 19.8978L11.0086 18.143ZM11.9236 17.103L9.97776 14.8196L9.97009 14.8262L9.96246 14.8328L11.9236 17.103ZM15.2486 15.938L15.1534 18.9365L15.201 18.938H15.2486V15.938ZM15.2546 15.938L15.3631 12.9399L15.3089 12.938H15.2546V15.938ZM18.6976 17.576L21.0197 15.6765L21.0192 15.6759L18.6976 17.576ZM18.6176 24.09L16.3496 22.1263L16.3492 22.1268L18.6176 24.09ZM12.3496 24.724L10.7076 27.2347L10.7083 27.2351L12.3496 24.724ZM10.4466 22.471L7.63795 23.5252L7.64096 23.5331L10.4466 22.471ZM9.10863 21.705L9.23163 18.7075L9.21068 18.7066L9.18972 18.7061L9.10863 21.705ZM9.03463 21.703L9.11572 18.7041L9.07518 18.703H9.03463V21.703ZM7.76763 23.547L4.87751 24.3514L4.89924 24.4295L4.92517 24.5063L7.76763 23.547ZM15.5886 28.844L15.5952 31.844L15.6071 31.8439L15.5886 28.844ZM24.2406 12.636L21.2407 12.6191L21.2407 12.6205L24.2406 12.636ZM21.9446 5.50997L24.461 7.14333L24.4644 7.13803L21.9446 5.50997ZM21.9106 5.56497L19.3247 4.04416L19.1412 4.3562L19.0371 4.70294L21.9106 5.56497ZM21.7656 6.58697H24.7656V6.5726L24.7655 6.55824L21.7656 6.58697ZM21.7656 6.60097L24.763 6.7256L24.7656 6.66331V6.60097H21.7656ZM21.6456 9.48697L24.643 9.61288L24.643 9.6116L21.6456 9.48697ZM20.1716 9.65097L17.2746 10.4301L17.2757 10.4344L20.1716 9.65097ZM19.6536 7.72497L22.5507 6.9458L22.5201 6.83204L22.4807 6.72103L19.6536 7.72497ZM19.6306 7.65197L22.5226 6.85404L22.5195 6.84287L19.6306 7.65197ZM18.6086 4.00297L21.4975 3.19387L21.4902 3.16791L21.4825 3.14209L18.6086 4.00297ZM17.0156 3.13397L16.3937 0.199139L16.286 0.221967L16.1802 0.252633L17.0156 3.13397ZM16.2426 3.73897L13.6464 2.23577L13.3777 2.69987L13.2864 3.22833L16.2426 3.73897ZM16.2246 3.86797L19.206 4.2016L19.2069 4.19384L19.2077 4.18607L16.2246 3.86797ZM16.3136 5.05097L19.2553 4.46238L19.2411 4.39133L19.2235 4.32104L16.3136 5.05097ZM16.3156 5.06097L13.3739 5.64956L13.3815 5.68751L13.3901 5.72526L16.3156 5.06097ZM17.3156 9.46497L20.2417 8.803L20.2412 8.80068L17.3156 9.46497ZM15.9406 10.018L13.3699 11.5644L13.3713 11.5666L15.9406 10.018ZM14.9216 8.32397L17.4924 6.77758L17.4806 6.75795L17.4685 6.7385L14.9216 8.32397ZM12.2136 3.97397L14.7605 2.3885L14.7567 2.38241L14.7528 2.37634L12.2136 3.97397ZM12.1966 3.94597L9.59839 5.44569L9.60305 5.45376L9.60777 5.46181L12.1966 3.94597ZM10.1406 3.56897L8.63765 0.972618L8.63593 0.973613L10.1406 3.56897ZM9.55263 4.45397L12.4722 5.14417L12.4729 5.14109L9.55263 4.45397ZM9.68463 5.58597L7.09974 7.10858L7.11192 7.12925L7.12443 7.14973L9.68463 5.58597ZM13.0226 11.051L10.4624 12.6147L10.6958 12.9969L11.0307 13.2942L13.0226 11.051ZM13.4386 11.352L15.0124 8.79789L14.9936 8.7863L14.9746 8.77498L13.4386 11.352ZM13.7946 11.835L10.8892 12.5823L10.8997 12.6233L10.9114 12.6639L13.7946 11.835ZM13.8216 12.313L10.8538 11.8748L10.852 11.8867L10.8504 11.8986L13.8216 12.313ZM13.6506 12.768L11.142 11.1228L11.1367 11.1308L11.1315 11.1388L13.6506 12.768ZM13.1246 13.109L13.5401 16.0801L13.5619 16.077L13.5837 16.0736L13.1246 13.109ZM12.8816 13.148L12.3465 10.1961L12.1359 10.2343L11.9328 10.302L12.8816 13.148ZM12.8696 13.152L13.8167 15.9986L13.8185 15.998L12.8696 13.152ZM7.77963 17.769L10.6079 18.7694L10.6103 18.7626L7.77963 17.769ZM8.02563 19.05L10.4737 17.3159L10.4719 17.3134L8.02563 19.05ZM9.08863 19.703L8.94325 22.6994L8.95935 22.7002L8.97546 22.7008L9.08863 19.703ZM11.5796 20.675L9.44988 18.5621L7.26445 20.765L9.53988 22.8748L11.5796 20.675ZM12.3176 21.764L15.1256 20.7079L15.124 20.7035L12.3176 21.764ZM13.4436 23.05L11.8004 25.5599L11.8015 25.5606L13.4436 23.05ZM17.1066 22.78L19.3751 24.7432L19.3761 24.742L17.1066 22.78ZM17.7976 20.827L14.7979 20.7868L14.7979 20.7908L17.7976 20.827ZM17.1506 18.843L19.4709 16.9413L19.4704 16.9407L17.1506 18.843ZM15.1856 17.937L15.2958 14.939L15.2887 14.9387L15.2815 14.9385L15.1856 17.937ZM13.2336 18.614L15.0335 21.014L15.101 20.9635L15.1655 20.9092L13.2336 18.614ZM13.2296 18.617L11.4297 16.2169L11.3461 16.2796L11.267 16.348L13.2296 18.617ZM12.6316 19.312L15.0508 21.0861L15.0588 21.0752L15.0667 21.0642L12.6316 19.312ZM12.4516 19.565L10.0104 17.8213L9.9988 17.8375L9.98738 17.854L12.4516 19.565ZM11.9246 20.286L9.58906 18.4031L9.58549 18.4076L11.9246 20.286ZM17.2175 4.11415C17.3274 4.08913 17.3809 4.09855 17.3987 4.10225C17.4228 4.10724 17.4566 4.11905 17.5009 4.14929C17.5491 4.18213 17.5965 4.22826 17.6328 4.2777C17.6728 4.33202 17.6676 4.34642 17.6508 4.28896L23.4085 2.60097C22.7056 0.203647 19.8806 -2.6455 15.8858 -1.73621L17.2175 4.11415ZM17.6192 4.17263L17.6222 4.18463L23.443 2.72931L23.44 2.71731L17.6192 4.17263ZM17.643 4.26309L17.773 4.72909L23.5523 3.11685L23.4223 2.65085L17.643 4.26309ZM22.8074 6.02057C22.81 6.01791 22.8094 6.01896 22.806 6.02124C22.8025 6.02355 22.8013 6.02372 22.805 6.02224C22.8089 6.02065 22.8604 5.99997 22.9836 5.99997V-3.02792e-05C21.2919 -3.02792e-05 19.7051 0.611439 18.5179 1.82537L22.8074 6.02057ZM22.9845 5.99997C23.0212 5.99996 23.0575 6.00717 23.0914 6.02119L25.3866 0.477564C24.6245 0.162007 23.8076 -0.000281692 22.9827 -3.016e-05L22.9845 5.99997ZM23.0914 6.02119C23.1252 6.03521 23.156 6.05577 23.1819 6.08169L27.4246 1.83905C26.8413 1.25576 26.1488 0.793119 25.3866 0.477564L23.0914 6.02119ZM23.1819 6.08169C23.2078 6.1076 23.2284 6.13837 23.2424 6.17224L28.786 3.87699C28.4705 3.11484 28.0078 2.42233 27.4246 1.83905L23.1819 6.08169ZM23.2424 6.17224C23.2564 6.2061 23.2636 6.2424 23.2636 6.27906L29.2636 6.28089C29.2639 5.456 29.1016 4.63914 28.786 3.87699L23.2424 6.17224ZM23.2636 6.27997C23.2636 8.3636 23.2527 10.493 23.2407 12.6271L29.2406 12.6608C29.2526 10.527 29.2636 8.38234 29.2636 6.27997H23.2636ZM23.2406 12.644V12.645H29.2406V12.644H23.2406ZM23.2407 12.6295C23.2297 14.7641 23.2186 16.9039 23.2186 19H29.2186C29.2186 16.922 29.2296 14.7979 29.2406 12.6604L23.2407 12.6295ZM23.2186 19C23.2186 24.3867 19.3483 27.8211 15.5804 27.844L15.6168 33.8439C23.0489 33.7988 29.2186 27.3092 29.2186 19H23.2186ZM15.5986 27.844H15.5956V33.844H15.5986V27.844ZM15.5889 27.844C12.2939 27.8514 9.62906 25.9637 8.70899 23.2102L3.01828 25.1117C4.8362 30.5522 9.9774 33.8566 15.6024 33.844L15.5889 27.844ZM8.73718 23.2992C8.70962 23.2073 8.70752 23.1096 8.73111 23.0166L2.91525 21.5416C2.62465 22.6874 2.65051 23.8905 2.99008 25.0228L8.73718 23.2992ZM8.73111 23.0166C8.7547 22.9236 8.80308 22.8388 8.87111 22.7711L4.64016 18.5168C3.80201 19.3504 3.20585 20.3958 2.91525 21.5416L8.73111 23.0166ZM8.91892 18.5655C8.89175 18.5372 8.86675 18.5069 8.84412 18.4749L3.94514 21.939C4.14099 22.216 4.35734 22.4779 4.59235 22.7225L8.91892 18.5655ZM8.84115 18.4707C8.77642 18.3795 8.73673 18.2805 8.7222 18.2034C8.70975 18.1374 8.7186 18.1102 8.72229 18.0996L3.06097 16.1123C2.2823 18.3305 2.91752 20.491 3.94811 21.9432L8.84115 18.4707ZM8.72169 18.1013C9.22508 16.6701 10.4662 15.2882 12.3281 14.4378L9.8352 8.98016C6.70108 10.4117 4.17818 12.9358 3.06157 16.1106L8.72169 18.1013ZM13.6415 10.1447L10.5275 5.0487L5.40774 8.17724L8.52174 13.2732L13.6415 10.1447ZM10.5449 5.07745C10.5375 5.06501 10.5184 5.02689 10.509 4.95064C10.4992 4.87081 10.5036 4.77411 10.5259 4.67864L4.68334 3.3133C4.34165 4.77546 4.44441 6.56074 5.39039 8.14849L10.5449 5.07745ZM10.5246 4.68425C10.5461 4.59312 10.5817 4.51763 10.6144 4.46956C10.6437 4.42648 10.6567 4.42458 10.6425 4.43282L7.63479 -0.758882C5.94031 0.222772 5.02889 1.84731 4.68465 3.30769L10.5246 4.68425ZM10.6395 4.43452C10.7944 4.34503 10.9889 4.31796 11.1518 4.35305C11.2991 4.3848 11.3272 4.44049 11.3305 4.44613L16.5067 1.41181C14.5921 -1.85425 10.4677 -2.39579 7.63772 -0.760579L10.6395 4.43452ZM11.3681 4.5084L11.6641 4.9864L16.7652 1.82754L16.4692 1.34954L11.3681 4.5084ZM17.0753 4.3106C17.092 4.25779 17.1218 4.21009 17.162 4.17196L13.0306 -0.179151C12.2536 0.558616 11.6767 1.48163 11.354 2.50334L17.0753 4.3106ZM17.162 4.17196C17.2008 4.13506 17.2506 4.10698 17.3059 4.0926L15.7974 -1.71466C14.762 -1.44572 13.809 -0.918151 13.0306 -0.179151L17.162 4.17196ZM9.14163 22.705C9.85534 22.705 10.6098 22.552 11.3333 22.1306C11.9916 21.7472 12.433 21.2487 12.7047 20.9107L8.02855 17.1512C7.93528 17.2673 8.03915 17.1057 8.31368 16.9458C8.46238 16.8592 8.62636 16.7926 8.79368 16.7512C8.95472 16.7114 9.07845 16.705 9.14163 16.705V22.705ZM12.7211 20.8902C12.9035 20.6591 13.0778 20.4217 13.2435 20.1783L8.28381 16.8016C8.19765 16.9282 8.10705 17.0516 8.01218 17.1718L12.7211 20.8902ZM13.2235 20.2072C13.3043 20.0914 13.3653 20.0035 13.4381 19.9029L8.57912 16.383C8.46797 16.5364 8.37092 16.6765 8.30376 16.7727L13.2235 20.2072ZM13.4418 19.8978C13.6404 19.6225 13.7722 19.4704 13.8848 19.3732L9.96246 14.8328C9.31106 15.3955 8.85284 16.0035 8.57543 16.3881L13.4418 19.8978ZM13.8695 19.3863C14.2266 19.0819 14.6844 18.9216 15.1534 18.9365L15.3439 12.9395C13.3836 12.8772 11.4705 13.5475 9.97776 14.8196L13.8695 19.3863ZM15.2486 18.938H15.2546V12.938H15.2486V18.938ZM15.1461 18.936C15.7924 18.9594 16.1515 19.2017 16.3761 19.4761L21.0192 15.6759C19.6837 14.0442 17.7009 13.0245 15.3631 12.9399L15.1461 18.936ZM16.3755 19.4754C16.6337 19.7911 16.8045 20.2694 16.7979 20.8145L22.7974 20.8875C22.8188 19.1326 22.2895 17.2289 21.0197 15.6765L16.3755 19.4754ZM16.7979 20.8145C16.7912 21.3601 16.6087 21.827 16.3496 22.1263L20.8857 26.0536C22.2005 24.5349 22.7761 22.6418 22.7974 20.8875L16.7979 20.8145ZM16.3492 22.1268C16.1253 22.3854 15.7727 22.61 15.1406 22.61V28.61C17.4825 28.61 19.5019 27.6525 20.8861 26.0532L16.3492 22.1268ZM15.1406 22.61C14.8499 22.61 14.4173 22.4914 13.991 22.2128L10.7083 27.2351C11.916 28.0245 13.4714 28.61 15.1406 28.61V22.61ZM13.9916 22.2132C13.5632 21.933 13.3301 21.6143 13.2523 21.4088L7.64096 23.5331C8.27715 25.2136 9.50605 26.4489 10.7076 27.2347L13.9916 22.2132ZM13.2553 21.4168C12.8751 20.4039 12.1243 19.7571 11.5279 19.3956C10.8742 18.9995 10.0836 18.7425 9.23163 18.7075L8.98564 24.7024C8.79169 24.6945 8.60152 24.638 8.4181 24.5268C8.32378 24.4696 8.20122 24.3798 8.07192 24.2403C7.94862 24.1072 7.76897 23.8742 7.63796 23.5252L13.2553 21.4168ZM9.18972 18.7061L9.11572 18.7041L8.95355 24.7019L9.02755 24.7039L9.18972 18.7061ZM9.03463 18.703H9.03063V24.703H9.03463V18.703ZM9.03063 18.703C6.13159 18.703 4.10558 21.5782 4.87751 24.3514L10.6578 22.7425C10.7858 23.2024 10.6738 23.6837 10.4161 24.0352C10.1886 24.3454 9.72522 24.703 9.03063 24.703V18.703ZM4.92517 24.5063C6.45202 29.0302 10.7558 31.8545 15.5952 31.844L15.5821 25.844C13.0795 25.8494 11.2372 24.4458 10.6101 22.5876L4.92517 24.5063ZM15.6071 31.8439C21.8091 31.8057 27.2186 26.3417 27.2186 19H21.2186C21.2186 23.3982 18.1281 25.8283 15.5701 25.844L15.6071 31.8439ZM27.2186 19C27.2186 16.916 27.2296 14.7868 27.2406 12.6514L21.2407 12.6205C21.2297 14.7531 21.2186 16.8979 21.2186 19H27.2186ZM27.2406 12.6528C27.2526 10.517 27.2636 8.37635 27.2636 6.27997H21.2636C21.2636 8.35759 21.2527 10.4829 21.2407 12.6191L27.2406 12.6528ZM27.2636 6.27997C27.2636 3.91512 25.3485 1.99997 22.9836 1.99997V7.99997C22.0348 7.99997 21.2636 7.22883 21.2636 6.27997H27.2636ZM22.9836 1.99997C22.3374 1.99997 21.6184 2.12198 20.9242 2.49197C20.2178 2.86842 19.7408 3.39293 19.4248 3.88191L24.4644 7.13803C24.3475 7.31901 24.1184 7.58852 23.7461 7.78697C23.3858 7.97896 23.0868 7.99997 22.9836 7.99997V1.99997ZM19.4283 3.87661C19.3925 3.93166 19.358 3.98752 19.3247 4.04416L24.4966 7.08578C24.4851 7.10525 24.4733 7.12444 24.461 7.14333L19.4283 3.87661ZM19.0371 4.70294C18.8511 5.32327 18.7596 5.9681 18.7658 6.6157L24.7655 6.55824C24.7651 6.5138 24.7713 6.46956 24.7841 6.427L19.0371 4.70294ZM18.7656 6.58697V6.60097H24.7656V6.58697H18.7656ZM18.7682 6.47634L18.6482 9.36234L24.643 9.6116L24.763 6.7256L18.7682 6.47634ZM18.6483 9.36106C18.7566 6.78223 22.3981 6.39286 23.0675 8.86754L17.2757 10.4344C18.3932 14.5651 24.4627 13.9057 24.643 9.61288L18.6483 9.36106ZM23.0687 8.8718L22.5507 6.9458L16.7566 8.50414L17.2746 10.4301L23.0687 8.8718ZM22.4807 6.72103C22.4963 6.76493 22.5102 6.8093 22.5226 6.85405L16.7387 8.44989C16.7646 8.54384 16.7939 8.63691 16.8266 8.72891L22.4807 6.72103ZM22.5195 6.84287L21.4975 3.19387L15.7198 4.81207L16.7418 8.46107L22.5195 6.84287ZM21.4825 3.14209C20.9769 1.45427 19.0147 -0.356248 16.3937 0.199139L17.6375 6.0688C17.1861 6.16446 16.7389 6.04388 16.4209 5.83353C16.1802 5.67431 15.8909 5.38479 15.7348 4.86385L21.4825 3.14209ZM16.1802 0.252633C15.1116 0.562459 14.2039 1.2729 13.6464 2.23577L18.8389 5.24217C18.6215 5.61755 18.2676 5.89452 17.851 6.01531L16.1802 0.252633ZM13.2864 3.22833C13.268 3.33501 13.253 3.44225 13.2415 3.54987L19.2077 4.18607C19.2055 4.20733 19.2025 4.22852 19.1989 4.24961L13.2864 3.22833ZM13.2432 3.53434C13.1463 4.40091 13.268 5.23956 13.4038 5.7809L19.2235 4.32104C19.2258 4.33026 19.2237 4.32335 19.2202 4.30241C19.2168 4.28239 19.2136 4.25822 19.2113 4.23311C19.209 4.20776 19.2083 4.18896 19.2083 4.1785C19.2083 4.16716 19.209 4.1754 19.206 4.2016L13.2432 3.53434ZM13.3719 5.63956L13.3739 5.64956L19.2573 4.47238L19.2553 4.46238L13.3719 5.63956ZM13.3901 5.72526L14.3901 10.1293L20.2412 8.80068L19.2412 4.39668L13.3901 5.72526ZM14.3896 10.1269C13.8262 7.6367 17.191 6.28094 18.51 8.46931L13.3713 11.5666C15.5703 15.215 21.1811 12.9552 20.2417 8.803L14.3896 10.1269ZM18.5114 8.47158L17.4924 6.77758L12.3509 9.87036L13.3699 11.5644L18.5114 8.47158ZM17.4685 6.7385L14.7605 2.3885L9.66681 5.55944L12.3748 9.90944L17.4685 6.7385ZM14.7528 2.37634C14.764 2.39406 14.7749 2.41199 14.7855 2.43013L9.60777 5.46181C9.62942 5.4988 9.65165 5.5354 9.67443 5.5716L14.7528 2.37634ZM14.7949 2.44625C13.5566 0.300963 10.7262 -0.236399 8.63765 0.972619L11.6436 6.16532C11.3709 6.32316 11.024 6.37601 10.6847 6.29762C10.4057 6.23319 9.93283 6.02509 9.59839 5.44569L14.7949 2.44625ZM8.63593 0.973613C7.5284 1.61572 6.88215 2.70534 6.63238 3.76685L12.4729 5.14109C12.4231 5.3526 12.2389 5.82022 11.6453 6.16433L8.63593 0.973613ZM6.63311 3.76377C6.38249 4.8239 6.47834 6.05364 7.09974 7.10858L12.2695 4.06336C12.4181 4.31551 12.4741 4.54098 12.4938 4.70007C12.5143 4.86528 12.503 5.0139 12.4722 5.14417L6.63311 3.76377ZM7.12443 7.14973L10.4624 12.6147L15.5828 9.48721L12.2448 4.02221L7.12443 7.14973ZM11.0307 13.2942C11.317 13.5485 11.6145 13.7572 11.9027 13.929L14.9746 8.77498C14.9607 8.76673 14.9782 8.77543 15.0146 8.80775L11.0307 13.2942ZM11.8649 13.906C11.3806 13.6077 11.0309 13.1332 10.8892 12.5823L16.7001 11.0876C16.455 10.1348 15.85 9.31402 15.0124 8.79789L11.8649 13.906ZM10.9114 12.6639C10.8172 12.3361 10.826 12.0631 10.8538 11.8748L16.7895 12.7512C16.8613 12.2648 16.8641 11.6538 16.6778 11.006L10.9114 12.6639ZM10.8504 11.8986C10.889 11.6217 10.9886 11.3567 11.142 11.1228L16.1593 14.4131C16.4926 13.905 16.709 13.3292 16.7929 12.7273L10.8504 11.8986ZM11.1315 11.1388C11.3026 10.8742 11.5278 10.6488 11.7922 10.4774L15.056 15.512C15.5017 15.2231 15.8813 14.8431 16.1697 14.3971L11.1315 11.1388ZM11.7922 10.4774C12.0566 10.306 12.3542 10.1925 12.6656 10.1443L13.5837 16.0736C14.1086 15.9924 14.6104 15.801 15.056 15.512L11.7922 10.4774ZM12.7091 10.1379C12.5879 10.1548 12.467 10.1742 12.3465 10.1961L13.4167 16.0999C13.4577 16.0924 13.4989 16.0858 13.5401 16.0801L12.7091 10.1379ZM11.9328 10.302L11.9208 10.306L13.8185 15.998L13.8305 15.994L11.9328 10.302ZM11.9226 10.3054C8.60495 11.4091 5.99501 13.7952 4.94895 16.7754L10.6103 18.7626C10.9543 17.7827 11.9943 16.6048 13.8167 15.9986L11.9226 10.3054ZM4.95136 16.7685C4.43071 18.2404 4.83065 19.7319 5.57937 20.7866L10.4719 17.3134C10.6186 17.52 10.8626 18.0495 10.6079 18.7694L4.95136 16.7685ZM5.57756 20.784C6.29476 21.7965 7.48465 22.6287 8.94325 22.6994L9.23401 16.7065C9.95061 16.7413 10.3345 17.1194 10.4737 17.3159L5.57756 20.784ZM8.97546 22.7008L9.02846 22.7028L9.2548 16.7071L9.2018 16.7051L8.97546 22.7008ZM9.53988 22.8748C9.54435 22.879 9.54015 22.8759 9.53226 22.8644C9.52392 22.8522 9.51637 22.8378 9.51131 22.8244L15.124 20.7035C14.7827 19.8004 14.2469 19.0569 13.6194 18.4751L9.53988 22.8748ZM9.50967 22.8201C9.95941 24.0158 10.8611 24.945 11.8004 25.5599L15.0868 20.54C15.0239 20.4988 14.9978 20.4693 15.0003 20.4721C15.0025 20.4747 15.0171 20.4917 15.0384 20.5262C15.0594 20.5602 15.0926 20.6201 15.1256 20.7079L9.50967 22.8201ZM11.8015 25.5606C12.7497 26.1808 13.9324 26.61 15.1406 26.61V20.61C15.1976 20.61 15.232 20.6152 15.243 20.6171C15.2546 20.6191 15.2518 20.6194 15.2362 20.6143C15.221 20.6093 15.1985 20.6008 15.1709 20.5875C15.1435 20.5743 15.1145 20.5581 15.0857 20.5393L11.8015 25.5606ZM15.1406 26.61C16.9144 26.61 18.3781 25.8952 19.3751 24.7432L14.8382 20.8168C14.8909 20.7559 14.9725 20.6889 15.0724 20.6436C15.1721 20.5984 15.2125 20.61 15.1406 20.61V26.61ZM19.3761 24.742C20.3349 23.633 20.7811 22.2167 20.7974 20.8632L14.7979 20.7908C14.7975 20.8172 14.7951 20.8402 14.7918 20.8591C14.7885 20.8781 14.7847 20.8903 14.7828 20.8957C14.7809 20.9011 14.7819 20.8967 14.7891 20.8841C14.7963 20.8715 14.8111 20.8481 14.8372 20.8179L19.3761 24.742ZM20.7974 20.8671C20.8155 19.5119 20.4051 18.0812 19.4709 16.9413L14.8303 20.7446C14.8074 20.7166 14.7947 20.6953 14.7888 20.6843C14.7829 20.6733 14.7826 20.6704 14.7848 20.677C14.7869 20.6835 14.7905 20.6968 14.7935 20.7166C14.7964 20.7363 14.7983 20.76 14.7979 20.7868L20.7974 20.8671ZM19.4704 16.9407C18.5074 15.7663 17.0683 15.0041 15.2958 14.939L15.0754 20.9349C15.1535 20.9378 15.1229 20.9494 15.0358 20.9065C14.949 20.8638 14.8772 20.8018 14.8308 20.7452L19.4704 16.9407ZM15.2815 14.9385C13.8301 14.8921 12.4128 15.3837 11.3018 16.3188L15.1655 20.9092C15.1443 20.927 15.1174 20.9363 15.0898 20.9354L15.2815 14.9385ZM11.4337 16.2139L11.4297 16.2169L15.0295 21.017L15.0335 21.014L11.4337 16.2139ZM11.267 16.348C10.7968 16.7547 10.4483 17.2098 10.1966 17.5597L15.0667 21.0642C15.1472 20.9524 15.1948 20.8925 15.2211 20.8615C15.2455 20.8329 15.2346 20.8493 15.1923 20.8859L11.267 16.348ZM10.2124 17.5379C10.1485 17.625 10.0291 17.7951 10.0104 17.8213L14.8928 21.3087C15.0041 21.1529 15.0047 21.149 15.0508 21.0861L10.2124 17.5379ZM9.98738 17.854C9.82023 18.0947 9.6942 18.2727 9.58907 18.4031L14.2602 22.1688C14.5211 21.8452 14.765 21.4932 14.9159 21.276L9.98738 17.854ZM9.58549 18.4076C9.52971 18.477 9.4855 18.5262 9.44988 18.5621L13.7094 22.7878C13.9238 22.5717 14.1076 22.3589 14.2638 22.1644L9.58549 18.4076Z" fill="white" mask="url(#path-1-inside-1_142_1204)"/>
</svg>
