<svg width="283" height="120" viewBox="0 0 283 120" fill="none" xmlns="http://www.w3.org/2000/svg">
<g clip-path="url(#clip0_142_1228)">
<path d="M206.704 59.8856C206.202 60.1602 205.837 60.5035 205.655 60.8696C205.45 61.2586 205.358 61.6705 205.358 62.1282C205.358 62.7918 205.564 63.341 205.997 63.7758C206.43 64.2105 207.023 64.4394 207.821 64.4394C208.437 64.4394 209.03 64.3021 209.554 64.0504C210.079 63.7758 210.512 63.4325 210.877 63.0206C211.241 62.5858 211.515 62.0824 211.743 61.5103C211.948 60.9382 212.062 60.3433 212.062 59.7483V58.9474C210.74 58.9474 209.668 59.0389 208.779 59.1991C207.889 59.4051 207.205 59.611 206.704 59.8856Z" fill="#28A9E2"/>
<path d="M76.1355 50.984C75.5426 50.984 74.9725 51.0984 74.4025 51.3273C73.8552 51.5561 73.3536 51.9222 72.8975 52.4028C72.4643 52.9062 72.0994 53.5241 71.8486 54.3021C71.5749 55.0801 71.4609 55.9954 71.4609 57.0938C71.4609 59.3593 71.8258 61.0298 72.5327 62.0824C73.2623 63.135 74.4025 63.6614 75.9759 63.6614C77.344 63.6614 78.4613 63.1122 79.305 62.0366C80.1487 60.9611 80.5592 59.3593 80.5592 57.2998C80.5592 55.1945 80.2171 53.6156 79.5331 52.563C78.8262 51.5103 77.7089 50.984 76.1355 50.984Z" fill="#28A9E2"/>
<path d="M143.586 50C142.514 50 141.602 50.389 140.873 51.1899C140.143 51.9908 139.733 53.0206 139.596 54.3021H147.029C147.098 52.8833 146.801 51.8078 146.163 51.0984C145.547 50.3661 144.681 50 143.586 50Z" fill="#28A9E2"/>
<path d="M268.248 22.6545C261.27 20.0915 253.426 19.9771 246.107 19.3364C237.875 18.627 229.255 17.9863 221.024 17.2769C203.899 15.8124 186.934 14.6453 169.809 13.1579C135.742 10.2059 101.698 7.18535 67.6304 4.30206C58.783 3.54691 49.9356 2.746 41.0882 2.0595C34.0422 1.373 21.3183 0 19.4713 0C8.41202 0.0457666 2.89379 7.34554 1.06958 16.4989C0.362696 20.0915 0.339894 23.7986 0.773144 27.4142C2.36933 40.6407 3.69188 53.9359 5.76692 67.0709C7.27189 76.5675 10.1678 85.9039 18.7188 91.3272C26.9277 96.5217 44.1665 95.3776 56.0695 95.3776C69.8651 95.3776 83.6607 95.4005 97.4563 95.4005C125.754 95.4005 154.03 95.4005 182.328 95.3547C186.113 95.3547 196.534 95.4005 196.534 95.4005C196.534 95.4005 198.289 96.7277 199.863 98.238C203.922 102.105 208.277 105.652 212.952 108.741C221.138 114.165 233.246 120.824 243.393 119.908C235.252 114.027 230.692 105.515 229.962 95.5378C244.374 95.2174 265.58 97.3455 274.633 86.27C282.864 76.2243 281.975 60.389 282.408 48.1922C282.864 37.1625 279.353 26.7277 268.248 22.6545ZM59.7635 69.6568H52.079V55.7895H39.9252V69.6568H32.2408V36.3158H39.9252V49.1076H52.079V36.3158H59.7635V69.6568ZM87.3547 62.2883C86.6934 63.9359 85.8041 65.3318 84.6412 66.5217C83.501 67.6888 82.1329 68.6041 80.5595 69.2449C78.9861 69.8856 77.2759 70.2059 75.4517 70.2059C73.6731 70.2059 72.0769 69.9771 70.6404 69.5194C69.2038 69.0618 67.9497 68.3295 66.9235 67.3455C65.8974 66.3616 65.0993 65.0801 64.5293 63.5469C63.982 61.9909 63.6856 60.1373 63.6856 57.9634C63.6856 55.9497 64.0048 54.119 64.6433 52.4714C65.2818 50.8238 66.1939 49.4279 67.3568 48.238C68.5197 47.0709 69.8879 46.1556 71.4613 45.5149C73.0346 44.8741 74.7676 44.5538 76.6375 44.5538C80.3771 44.5538 83.273 45.5835 85.3025 47.6201C87.3319 49.6568 88.358 52.746 88.358 56.865C88.3352 58.833 88.016 60.6407 87.3547 62.2883ZM128.354 69.6568H120.829V54.2563C120.829 53.2037 120.669 52.357 120.373 51.762C120.054 51.1442 119.484 50.8467 118.64 50.8467C118.093 50.8467 117.523 51.0298 116.952 51.373C116.382 51.7162 115.881 52.1968 115.402 52.8375C114.946 53.4554 114.581 54.2105 114.307 55.0572C114.034 55.9268 113.897 56.8421 113.897 57.8261V69.6568H106.463V54.2105C106.463 53.2265 106.304 52.4027 106.007 51.7849C105.711 51.167 105.118 50.8467 104.229 50.8467C103.636 50.8467 103.043 51.0298 102.45 51.3959C101.857 51.762 101.333 52.2654 100.899 52.8833C100.443 53.5011 100.079 54.2563 99.8049 55.0801C99.5313 55.9268 99.3945 56.8421 99.3945 57.8261V69.6568H91.938V45.103H98.9384C98.9384 45.5606 98.9156 46.1556 98.87 46.8879C98.8244 47.6201 98.756 48.3066 98.642 48.9703H98.6876C99.4401 47.5973 100.512 46.5217 101.88 45.7437C103.248 44.9657 104.799 44.5767 106.554 44.5767C108.447 44.5767 109.929 44.9886 111.047 45.8352C112.141 46.659 112.894 47.7117 113.304 48.9931C113.965 47.7803 114.946 46.7506 116.246 45.881C117.545 45.0114 119.142 44.5767 121.011 44.5767C123.406 44.5767 125.23 45.2632 126.484 46.6362C127.738 48.0092 128.377 50.0915 128.377 52.8833V69.6568H128.354ZM154.394 57.5286C154.349 58.0778 154.28 58.6499 154.212 59.2906H139.595C139.618 60.9153 140.143 62.151 141.123 63.0435C142.104 63.9359 143.632 64.3707 145.661 64.3707C146.847 64.3707 148.055 64.2563 149.264 64.0046C150.472 63.7529 151.681 63.3638 152.867 62.8375L153.596 68.5126C152.183 69.0618 150.678 69.4966 149.081 69.7712C147.485 70.0458 145.935 70.1831 144.43 70.1831C140.416 70.1831 137.338 69.1762 135.217 67.1625C133.074 65.1487 132.002 61.968 132.002 57.6201C132.002 55.7437 132.253 54.0046 132.777 52.3799C133.279 50.778 134.054 49.3822 135.035 48.2151C136.038 47.0481 137.27 46.1327 138.729 45.4691C140.188 44.8055 141.876 44.4851 143.791 44.4851C145.638 44.4851 147.234 44.7826 148.58 45.3776C149.925 45.9725 151.042 46.7735 151.909 47.8032C152.775 48.833 153.414 50.0229 153.824 51.4188C154.235 52.7918 154.44 54.3021 154.44 55.9039C154.463 56.4531 154.44 56.9794 154.394 57.5286ZM177.767 63.5011C177.129 64.8741 176.216 66.0412 175.054 67.0481C173.891 68.0549 172.5 68.833 170.903 69.405C169.285 69.9542 167.506 70.2517 165.545 70.2517C163.971 70.2517 162.535 70.1831 161.258 70.0229C159.981 69.8856 158.772 69.6568 157.61 69.3593L158.339 62.0595C159.411 62.5172 160.574 62.8833 161.805 63.135C163.037 63.4096 164.336 63.524 165.727 63.524C166.981 63.524 168.03 63.2494 168.92 62.7002C169.809 62.151 170.242 61.2815 170.242 60.0687C170.242 59.1076 169.923 58.3753 169.262 57.849C168.6 57.3227 167.78 56.8421 166.799 56.4302C165.818 56.0183 164.747 55.6064 163.607 55.1716C162.467 54.7368 161.395 54.1648 160.414 53.4325C159.434 52.7002 158.613 51.7849 157.952 50.6407C157.29 49.4966 156.971 48.0092 156.971 46.1327C156.971 44.5538 157.268 43.135 157.86 41.8535C158.453 40.595 159.297 39.4966 160.414 38.5584C161.532 37.643 162.9 36.9336 164.519 36.4302C166.138 35.9268 168.008 35.6979 170.105 35.6979C170.949 35.6979 171.952 35.7437 173.047 35.8352C174.164 35.9268 175.19 36.1098 176.148 36.3387L175.464 43.0664C173.594 42.4027 171.702 42.0824 169.763 42.0824C168.19 42.0824 167.027 42.3799 166.297 42.9519C165.454 43.5927 165.112 44.4851 165.203 45.6293C165.271 46.27 165.613 46.8421 166.092 47.254C166.776 47.8032 167.643 48.3295 168.692 48.7872C169.695 49.222 170.767 49.6796 171.93 50.1373C173.093 50.595 174.187 51.1899 175.168 51.9451C176.171 52.6773 177.015 53.6156 177.676 54.7597C178.337 55.9039 178.679 57.3455 178.679 59.0847C178.725 60.6636 178.406 62.1281 177.767 63.5011ZM193.318 70C192.338 70.1373 191.403 70.2059 190.514 70.2059C189.1 70.2059 187.914 70.0687 186.979 69.8169C186.022 69.5423 185.246 69.1076 184.676 68.5126C184.083 67.8947 183.673 67.0938 183.422 66.087C183.171 65.0801 183.057 63.8215 183.057 62.3112V50.8924H179.363V45.103H183.057V37.849L190.582 35.8352V45.1259H195.85V50.9153H190.582V60.595C190.582 61.8535 190.765 62.7231 191.129 63.2037C191.494 63.7071 192.156 63.9359 193.09 63.9359C193.546 63.9359 193.98 63.913 194.39 63.8444C194.801 63.7757 195.211 63.7071 195.644 63.5927L196.078 69.4737C195.234 69.6796 194.322 69.8627 193.318 70ZM212.723 69.6568C212.723 69.0618 212.723 68.4439 212.746 67.8261C212.769 67.2082 212.815 66.5675 212.929 65.9497H212.883C212.29 67.2311 211.333 68.2609 209.987 69.0389C208.642 69.8169 207.114 70.2059 205.404 70.2059C204.218 70.2059 203.192 70.0229 202.303 69.6339C201.413 69.2449 200.684 68.7414 200.091 68.0778C199.498 67.4142 199.042 66.659 198.745 65.7895C198.426 64.9199 198.267 63.9817 198.267 62.952C198.267 61.3959 198.609 60.0687 199.293 58.9703C199.977 57.8719 200.935 56.9794 202.143 56.27C203.352 55.5835 204.811 55.0572 206.498 54.7368C208.186 54.4165 210.033 54.2334 212.039 54.2334V53.2494C212.039 52.2197 211.72 51.4645 211.082 50.984C210.443 50.5034 209.303 50.2517 207.661 50.2517C206.59 50.2517 205.427 50.4119 204.218 50.7323C203.01 51.0526 201.915 51.4417 200.912 51.8993L199.635 46.0183C200.912 45.5606 202.371 45.1945 204.036 44.897C205.7 44.6224 207.319 44.4851 208.938 44.4851C211.013 44.4851 212.723 44.6682 214.092 45.0572C215.46 45.4462 216.554 45.9954 217.375 46.7277C218.196 47.46 218.766 48.3753 219.108 49.4279C219.427 50.4806 219.61 51.6934 219.61 53.0435V63.8673C219.61 64.7597 219.633 65.7208 219.655 66.7277C219.678 67.7574 219.747 68.7414 219.792 69.6796H212.723V69.6568ZM238.194 51.968C236.119 51.5103 234.568 51.8764 233.519 53.0892C232.471 54.3021 231.946 56.4302 231.946 59.5423V69.6568H224.512V45.103H231.467C231.467 45.6293 231.444 46.2929 231.399 47.0938C231.353 47.8947 231.262 48.6728 231.125 49.4508H231.216C231.878 47.9634 232.79 46.7506 233.976 45.7895C235.161 44.8284 236.689 44.4165 238.559 44.508L238.194 51.968ZM256.619 65.286C256.094 66.3158 255.342 67.2082 254.384 67.9176C253.426 68.6499 252.24 69.1991 250.895 69.5881C249.527 69.9771 248.022 70.1831 246.335 70.1831C244.374 70.1831 242.549 69.9542 240.93 69.4966L241.318 63.3638C242.823 64.0275 244.533 64.3478 246.426 64.3478C247.383 64.3478 248.113 64.1648 248.638 63.8215C249.162 63.4783 249.436 62.9977 249.436 62.4028C249.436 61.8078 249.208 61.3501 248.774 60.984C248.341 60.6407 247.771 60.3433 247.11 60.0687C246.426 59.8169 245.719 59.5195 244.944 59.222C244.168 58.9245 243.439 58.5126 242.777 57.9863C242.116 57.46 241.546 56.7735 241.113 55.9268C240.68 55.0801 240.451 54.0046 240.451 52.6316C240.451 51.5103 240.657 50.4577 241.09 49.4508C241.523 48.4439 242.162 47.5744 243.051 46.8421C243.94 46.1098 245.058 45.5149 246.426 45.0801C247.794 44.6453 249.413 44.4394 251.283 44.4394C251.944 44.4394 252.651 44.4851 253.403 44.5538C254.156 44.6453 254.886 44.7368 255.57 44.8741L255.319 50.7551C254.703 50.5263 254.019 50.3661 253.267 50.2517C252.537 50.1602 251.807 50.1144 251.078 50.1144C250.12 50.1144 249.413 50.2975 248.957 50.6407C248.501 50.984 248.273 51.4417 248.273 51.9908C248.273 52.5172 248.501 52.9519 248.957 53.2723C249.413 53.5927 249.983 53.913 250.644 54.2105C251.306 54.508 252.058 54.8284 252.833 55.1487C253.631 55.4691 254.361 55.9039 255.022 56.4302C255.684 56.9565 256.254 57.643 256.71 58.4897C257.166 59.3364 257.394 60.4119 257.394 61.7163C257.394 63.0892 257.143 64.2334 256.619 65.286Z" fill="#28A9E2"/>
</g>
<defs>
<clipPath id="clip0_142_1228">
<rect width="282" height="120" fill="white" transform="translate(0.5)"/>
</clipPath>
</defs>
</svg>
