<svg width="42" height="44" viewBox="0 0 42 44" fill="none" xmlns="http://www.w3.org/2000/svg">
<g clip-path="url(#clip0_142_948)">
<path d="M42.0005 42.8122V43.75H0.573673C0.253751 43.5235 -0.0190025 43.265 0.127628 42.809C0.274259 42.3529 0.647501 42.2824 1.05048 42.2952C1.41347 42.3059 1.77646 42.2952 2.17841 42.2952V1.18773C2.18251 0.276631 2.37118 0.0779614 3.23046 0.0779614H38.8382C38.975 0.0712993 39.112 0.0748688 39.2483 0.0886426C39.6134 0.143116 39.8472 0.350331 39.8841 0.747669C39.9015 0.931385 39.9005 1.11724 39.9005 1.30095C39.9005 14.7592 39.9005 28.2196 39.9005 41.6821V42.2973C40.3106 42.2973 40.6634 42.3176 41.0151 42.292C41.4519 42.261 41.7862 42.4041 42.0005 42.8122ZM6.40815 4.4615V42.2621H17.5172V4.4615H6.40815ZM35.6912 4.4615H24.5637V42.2567H35.6912V4.4615ZM4.95722 42.2728C4.96542 42.1296 4.97773 42.0186 4.97773 41.9085C4.97773 39.6911 4.97773 37.4737 4.97773 35.2563V4.04494C4.97773 3.20433 5.18793 2.9843 5.99286 2.9843C9.97753 2.9843 13.9619 2.9843 17.9458 2.9843C18.0685 2.97857 18.1914 2.98465 18.3129 3.00246C18.6728 3.07402 18.9015 3.28658 18.9282 3.68605C18.9405 3.86977 18.9405 4.05562 18.9405 4.2404V42.2653H20.2919V1.55196H3.61396V42.2781L4.95722 42.2728ZM38.4793 1.56371H21.7941V42.2642H23.1415V4.2874C23.1415 4.13146 23.1415 3.97444 23.1415 3.8185C23.1661 3.25774 23.4173 3.00566 23.9618 2.9843C24.0018 2.9843 24.0428 2.9843 24.0838 2.9843C28.1095 2.9843 32.1345 2.9843 36.1588 2.9843C36.8581 2.9843 37.0919 3.22997 37.0981 3.95308C37.0981 4.08126 37.0981 4.20943 37.0981 4.3376V42.2664H38.4731L38.4793 1.56371Z" fill="white"/>
<path d="M16.1439 23.3917C16.1439 24.7974 16.1439 26.2027 16.1439 27.6076C16.1439 28.0231 16.0014 28.3264 15.5871 28.43C15.2149 28.523 14.8693 28.2784 14.7781 27.8543C14.752 27.7006 14.7414 27.5446 14.7463 27.3886C14.7463 24.7069 14.7463 22.0242 14.7463 19.3404C14.7463 19.2688 14.7463 19.1983 14.7463 19.1267C14.7699 18.5927 15.0539 18.2723 15.4733 18.284C15.8927 18.2958 16.1388 18.6108 16.1408 19.1332C16.148 20.5559 16.1439 21.9754 16.1439 23.3917Z" fill="white"/>
<path d="M25.942 23.3661C25.942 22.0181 25.942 20.6698 25.942 19.3211C25.9347 19.1651 25.943 19.0086 25.9666 18.8544C25.99 18.6976 26.0666 18.5547 26.1825 18.4518C26.2984 18.3489 26.446 18.2927 26.5983 18.2936C26.7425 18.2745 26.8885 18.3091 27.0105 18.3914C27.1325 18.4737 27.2226 18.5984 27.2648 18.7433C27.318 18.9333 27.3422 19.1308 27.3366 19.3286C27.3407 22.0259 27.3407 24.7233 27.3366 27.4206C27.341 27.5637 27.3317 27.7068 27.3089 27.8479C27.2823 28.0241 27.1946 28.1841 27.0622 28.2973C26.9299 28.4105 26.7622 28.4692 26.5911 28.462C26.2363 28.4332 25.983 28.1566 25.9492 27.7571C25.9389 27.63 25.942 27.5018 25.942 27.3736V23.3661Z" fill="white"/>
</g>
<defs>
<clipPath id="clip0_142_948">
<rect width="42" height="43.75" fill="white"/>
</clipPath>
</defs>
</svg>
