<svg width="64" height="64" viewBox="0 0 64 64" fill="none" xmlns="http://www.w3.org/2000/svg">
<path d="M13.3333 26.6667V16C13.3333 13.8783 14.1761 11.8434 15.6764 10.3431C17.1767 8.84285 19.2115 8 21.3333 8H42.6666C44.7883 8 46.8231 8.84285 48.3234 10.3431C49.8237 11.8434 50.6666 13.8783 50.6666 16V26.6667" stroke="#ED2C2C" stroke-width="5" stroke-linecap="round" stroke-linejoin="round"/>
<path d="M42.6666 40.0001V34.6668C42.6666 33.0845 43.1358 31.5378 44.0148 30.2222C44.8939 28.9066 46.1433 27.8812 47.6051 27.2757C49.0669 26.6702 50.6755 26.5118 52.2273 26.8205C53.7792 27.1292 55.2046 27.8911 56.3234 29.0099C57.4423 30.1287 58.2042 31.5542 58.5129 33.106C58.8216 34.6579 58.6631 36.2664 58.0576 37.7282C57.4521 39.19 56.4267 40.4395 55.1112 41.3185C53.7956 42.1976 52.2488 42.6668 50.6666 42.6668V50.6668H13.3333V42.6668C11.751 42.6668 10.2043 42.1976 8.88869 41.3185C7.5731 40.4395 6.54772 39.19 5.94222 37.7282C5.33672 36.2664 5.17829 34.6579 5.48697 33.106C5.79566 31.5542 6.55758 30.1287 7.6764 29.0099C8.79522 27.8911 10.2207 27.1292 11.7725 26.8205C13.3244 26.5118 14.9329 26.6702 16.3947 27.2757C17.8565 27.8812 19.106 28.9066 19.985 30.2222C20.8641 31.5378 21.3333 33.0845 21.3333 34.6668V40.0001M21.3333 32.0001H42.6666M18.6666 50.6668V56.0001M45.3333 50.6668V56.0001" stroke="#ED2C2C" stroke-width="5" stroke-linecap="round" stroke-linejoin="round"/>
</svg>
