<svg width="65" height="64" viewBox="0 0 65 64" fill="none" xmlns="http://www.w3.org/2000/svg">
<path fill-rule="evenodd" clip-rule="evenodd" d="M22.7633 13.3631C21.299 13.2069 19.8183 13.3556 18.4144 13.7998C17.0104 14.2439 15.7136 14.974 14.6057 15.944C13.4977 16.9139 12.6026 18.1028 11.9767 19.4357C11.3508 20.7686 11.0076 22.2167 10.9689 23.6887C10.9301 25.1608 11.1965 26.6249 11.7514 27.9889C12.3063 29.3529 13.1375 30.5872 14.1929 31.6142L14.2097 31.6306L14.2097 31.6307L32.3332 49.5802L50.4567 31.6307C50.5119 31.5759 50.5689 31.5241 50.6276 31.4753C51.5975 30.4804 52.3643 29.305 52.884 28.0149C53.4326 26.6533 53.6941 25.1931 53.6524 23.7257C53.6106 22.2584 53.2665 20.8154 52.6414 19.4872C52.0164 18.159 51.1239 16.974 50.0198 16.0066C48.9158 15.0392 47.6239 14.31 46.2251 13.8648C44.8263 13.4196 43.3507 13.2679 41.8905 13.4192C40.4304 13.5705 39.0172 14.0216 37.7394 14.7442C36.4616 15.4668 35.3467 16.4453 34.4645 17.6186C33.9592 18.2907 33.1665 18.685 32.3257 18.6827C31.4849 18.6803 30.6945 18.2816 30.1929 17.6067C29.3145 16.4249 28.2009 15.4377 26.9222 14.7073C25.6436 13.977 24.2275 13.5193 22.7633 13.3631ZM54.0256 35.6023L34.2097 55.228C33.1704 56.2573 31.4959 56.2573 30.4567 55.228L10.4646 35.4279C8.88577 33.8892 7.64193 32.0408 6.81118 29.9985C5.97887 27.9525 5.57922 25.7563 5.63738 23.5483C5.69555 21.3402 6.21027 19.1681 7.14913 17.1688C8.08799 15.1694 9.43066 13.3861 11.0926 11.9312C12.7545 10.4762 14.6997 9.38111 16.8056 8.71485C18.9116 8.04858 21.1326 7.82558 23.329 8.05987C25.5254 8.29417 27.6494 8.98069 29.5674 10.0762C30.5649 10.6459 31.4954 11.3199 32.3441 12.0849C33.192 11.3291 34.1202 10.6638 35.1141 10.1018C37.0308 9.01786 39.1506 8.34126 41.3408 8.11428C43.531 7.88731 45.7444 8.11485 47.8427 8.78267C49.9409 9.45049 51.8787 10.5442 53.5347 11.9954C55.1908 13.4466 56.5295 15.2239 57.4671 17.2163C58.4047 19.2086 58.921 21.373 58.9836 23.5741C59.0462 25.7751 58.6538 27.9654 57.831 30.0078C57.0082 32.0502 55.7727 33.9009 54.2018 35.4438C54.1449 35.4997 54.0861 35.5525 54.0256 35.6023Z" fill="#ED2C2C"/>
</svg>
