<svg width="64" height="64" viewBox="0 0 64 64" fill="none" xmlns="http://www.w3.org/2000/svg">
<path d="M13.3331 19.2C13.3331 17.6441 13.9512 16.1519 15.0514 15.0516C16.1516 13.9514 17.6438 13.3333 19.1998 13.3333H21.8664C23.4155 13.3325 24.9013 12.7189 25.9998 11.6267L27.8664 9.76001C28.4116 9.21174 29.0598 8.77665 29.7737 8.47976C30.4877 8.18287 31.2532 8.03003 32.0264 8.03003C32.7996 8.03003 33.5652 8.18287 34.2791 8.47976C34.993 8.77665 35.6412 9.21174 36.1864 9.76001L38.0531 11.6267C39.1518 12.72 40.6398 13.3333 42.1864 13.3333H44.8531C46.409 13.3333 47.9012 13.9514 49.0015 15.0516C50.1017 16.1519 50.7198 17.6441 50.7198 19.2V21.8667C50.7198 23.4133 51.3331 24.9013 52.4264 26L54.2931 27.8667C54.8414 28.4119 55.2765 29.0601 55.5733 29.774C55.8702 30.4879 56.0231 31.2535 56.0231 32.0267C56.0231 32.7999 55.8702 33.5654 55.5733 34.2794C55.2765 34.9933 54.8414 35.6415 54.2931 36.1867L52.4264 38.0533C51.3342 39.1518 50.7207 40.6376 50.7198 42.1867V44.8533C50.7198 46.4093 50.1017 47.9015 49.0015 49.0017C47.9012 50.1019 46.409 50.72 44.8531 50.72H42.1864C40.6374 50.7209 39.1515 51.3344 38.0531 52.4267L36.1864 54.2933C35.6412 54.8416 34.993 55.2767 34.2791 55.5736C33.5652 55.8705 32.7996 56.0233 32.0264 56.0233C31.2532 56.0233 30.4877 55.8705 29.7737 55.5736C29.0598 55.2767 28.4116 54.8416 27.8664 54.2933L25.9998 52.4267C24.9013 51.3344 23.4155 50.7209 21.8664 50.72H19.1998C17.6438 50.72 16.1516 50.1019 15.0514 49.0017C13.9512 47.9015 13.3331 46.4093 13.3331 44.8533V42.1867C13.3322 40.6376 12.7187 39.1518 11.6264 38.0533L9.75977 36.1867C9.2115 35.6415 8.77641 34.9933 8.47952 34.2794C8.18263 33.5654 8.02979 32.7999 8.02979 32.0267C8.02979 31.2535 8.18263 30.4879 8.47952 29.774C8.77641 29.0601 9.2115 28.4119 9.75977 27.8667L11.6264 26C12.7187 24.9016 13.3322 23.4157 13.3331 21.8667V19.2Z" stroke="#ED2C2C" stroke-width="5" stroke-linecap="round" stroke-linejoin="round"/>
<path d="M24 32L29.3333 37.3333L40 26.6666" stroke="#ED2C2C" stroke-width="5" stroke-linecap="round" stroke-linejoin="round"/>
</svg>
