<svg width="64" height="64" viewBox="0 0 64 64" fill="none" xmlns="http://www.w3.org/2000/svg">
<path d="M16 56V50.6667C16 47.8377 17.1238 45.1246 19.1242 43.1242C21.1246 41.1238 23.8377 40 26.6667 40H32M58.6667 42.6667C58.6667 53.3333 52 58.6667 49.3333 58.6667C46.6667 58.6667 40 53.3333 40 42.6667C42.6667 42.6667 46.6667 41.3333 49.3333 38.6667C52 41.3333 56 42.6667 58.6667 42.6667ZM21.3333 18.6667C21.3333 21.4956 22.4571 24.2088 24.4575 26.2091C26.4579 28.2095 29.171 29.3333 32 29.3333C34.829 29.3333 37.5421 28.2095 39.5425 26.2091C41.5429 24.2088 42.6667 21.4956 42.6667 18.6667C42.6667 15.8377 41.5429 13.1246 39.5425 11.1242C37.5421 9.12381 34.829 8 32 8C29.171 8 26.4579 9.12381 24.4575 11.1242C22.4571 13.1246 21.3333 15.8377 21.3333 18.6667Z" stroke="#ED2C2C" stroke-width="5" stroke-linecap="round" stroke-linejoin="round"/>
</svg>
