<svg width="32" height="32" viewBox="0 0 32 32" fill="none" xmlns="http://www.w3.org/2000/svg">
<circle cx="16.5" cy="16.5" r="12" stroke="#ED2C2C" stroke-width="3"/>
<path fill-rule="evenodd" clip-rule="evenodd" d="M16.4251 13.33V14.7442C16.7213 14.2931 17.1295 13.9266 17.6098 13.6806C18.0901 13.4346 18.626 13.3175 19.1651 13.3408C22.0443 13.3408 22.6668 15.1408 22.6668 17.4825V22.25H20.0001V18.0233C20.0001 17.015 19.7968 15.7183 18.2268 15.7183C16.7043 15.7183 16.4443 16.8158 16.4443 17.9483V22.25H13.786V13.33H16.4251ZM12.0001 11.0883C11.9998 11.3525 11.9215 11.6107 11.775 11.8305C11.6286 12.0504 11.4205 12.2221 11.1768 12.3242C10.9332 12.4254 10.6651 12.4519 10.4064 12.4002C10.1478 12.3486 9.91031 12.2212 9.7243 12.0342C9.53794 11.847 9.41106 11.609 9.35963 11.35C9.30819 11.0909 9.3345 10.8225 9.43523 10.5784C9.53596 10.3342 9.70662 10.1253 9.92576 9.97795C10.1449 9.83056 10.4027 9.75125 10.6668 9.75C10.8423 9.75 11.0161 9.78465 11.1782 9.85197C11.3403 9.91929 11.4875 10.0179 11.6114 10.1423C11.7353 10.2666 11.8334 10.4142 11.9001 10.5766C11.9668 10.7389 12.0008 10.9128 12.0001 11.0883Z" fill="#ED2C2C"/>
<path d="M11.9997 13.3408H9.33301V22.25H11.9997V13.3408Z" fill="#ED2C2C"/>
</svg>
