<svg width="34" height="33" viewBox="0 0 34 33" fill="none" xmlns="http://www.w3.org/2000/svg">
<path d="M17 30.25C13.8146 29.4479 11.1851 27.6201 9.11162 24.7665C7.03721 21.9138 6 18.7458 6 15.2625V6.875L17 2.75L28 6.875V15.2625C28 18.7458 26.9633 21.9138 24.8898 24.7665C22.8153 27.6201 20.1854 29.4479 17 30.25ZM17 27.3625C19.3833 26.6062 21.3542 25.0938 22.9125 22.825C24.4708 20.5562 25.25 18.0354 25.25 15.2625V8.76562L17 5.67188L8.75 8.76562V15.2625C8.75 18.0354 9.52917 20.5562 11.0875 22.825C12.6458 25.0938 14.6167 26.6062 17 27.3625Z" fill="#ED2C2C"/>
</svg>
