<svg width="64" height="64" viewBox="0 0 64 64" fill="none" xmlns="http://www.w3.org/2000/svg">
<path fill-rule="evenodd" clip-rule="evenodd" d="M10.3915 4.74501C10.672 3.34273 11.9032 2.33334 13.3333 2.33334H29.3333C30.4098 2.33334 31.4039 2.9102 31.938 3.84493L37.2713 13.1783C38.0348 14.5144 37.6636 16.2115 36.4119 17.1067L26.6907 24.0602L30.6679 38.774C34.3998 35.2318 39.6179 33.2413 45.29 33.8434C54.1773 34.7865 61.2024 42.2463 61.6495 51.1563L61.6499 51.164C61.7606 53.4897 61.4442 55.7352 60.757 57.829C59.9762 60.2185 57.7175 61.6667 55.3866 61.6667H15.6773C7.0531 61.6667 0.585659 53.7757 2.27686 45.3197L10.3915 4.74501ZM26.2265 45.3368L20.5214 24.2305L17.6303 20.5064C16.6142 19.1977 16.8515 17.313 18.1602 16.297C19.469 15.2809 21.3536 15.5182 22.3696 16.827L23.8407 18.7218L30.7177 13.8028L27.5923 8.33334H15.7927L8.16035 46.4963L5.2186 45.908L8.16035 46.4964C7.21155 51.2403 10.8401 55.6667 15.6773 55.6667H55.1478C55.5438 54.3502 55.727 52.9363 55.6569 51.4534C55.3555 45.485 50.5949 40.4401 44.6567 39.8099L44.6566 39.8099C38.3828 39.1439 32.9418 43.1619 31.385 48.7987C30.9439 50.3957 29.2917 51.3328 27.6946 50.8917C26.0975 50.4506 25.1604 48.7984 25.6015 47.2013C25.7772 46.5654 25.9862 45.9432 26.2265 45.3368Z" fill="#ED2C2C"/>
</svg>
