<svg width="64" height="64" viewBox="0 0 64 64" fill="none" xmlns="http://www.w3.org/2000/svg">
<path d="M42.6667 23.9999C42.6667 38.2133 21.3334 38.2133 21.3334 23.9999H26.6667C26.6667 31.1199 37.3334 31.1199 37.3334 23.9999M53.3334 47.9999V55.9999H10.6667V47.9999C10.6667 40.8799 24.8801 37.3333 32.0001 37.3333C39.1201 37.3333 53.3334 40.8799 53.3334 47.9999ZM48.2668 47.9999C48.2668 46.2933 39.9201 42.3999 32.0001 42.3999C24.0801 42.3999 15.7334 46.2933 15.7334 47.9999V50.9333H48.2668M33.3334 5.33325C34.0801 5.33325 34.6667 5.91992 34.6667 6.66659V14.6666H37.3334V7.99992C39.2206 8.87331 40.8018 10.2938 41.8717 12.0769C42.9416 13.8601 43.4509 15.9237 43.3334 17.9999C43.3334 17.9999 45.2001 18.3733 45.3334 21.3333H18.6667C18.6667 18.3733 20.6667 17.9999 20.6667 17.9999C20.5493 15.9237 21.0586 13.8601 22.1285 12.0769C23.1984 10.2938 24.7795 8.87331 26.6667 7.99992V14.6666H29.3334V6.66659C29.3334 5.91992 29.9201 5.33325 30.6667 5.33325" fill="#ED2C2C"/>
</svg>
