<svg width="64" height="64" viewBox="0 0 64 64" fill="none" xmlns="http://www.w3.org/2000/svg">
<path d="M24.0003 40V13.3333V50.6667V40ZM18.667 42.6667H24.0003V50.6667H40.0003V13.3333H24.0003V37.3333H18.667V8H45.3337V56H18.667V42.6667ZM32.0003 26.6667C32.7559 26.6667 33.3897 26.4107 33.9017 25.8987C34.4119 25.3884 34.667 24.7556 34.667 24C34.667 23.2444 34.4119 22.6107 33.9017 22.0987C33.3897 21.5884 32.7559 21.3333 32.0003 21.3333C31.2448 21.3333 30.6119 21.5884 30.1017 22.0987C29.5897 22.6107 29.3337 23.2444 29.3337 24C29.3337 24.7556 29.5897 25.3884 30.1017 25.8987C30.6119 26.4107 31.2448 26.6667 32.0003 26.6667ZM50.667 24V8H56.0003V24H50.667ZM10.667 42.6667V37.3333H34.667V42.6667H10.667Z" fill="#ED2C2C"/>
</svg>
