<svg width="32" height="32" viewBox="0 0 32 32" fill="none" xmlns="http://www.w3.org/2000/svg">
<path d="M11.8336 28.1334L23.0669 16.9334C23.2003 16.8 23.2945 16.6556 23.3496 16.5C23.4056 16.3445 23.4336 16.1778 23.4336 16C23.4336 15.8223 23.4056 15.6556 23.3496 15.5C23.2945 15.3445 23.2003 15.2 23.0669 15.0667L11.8336 3.83337C11.5225 3.52225 11.1336 3.3667 10.6669 3.3667C10.2003 3.3667 9.80026 3.53337 9.46693 3.8667C9.1336 4.20003 8.96693 4.58892 8.96693 5.03337C8.96693 5.47781 9.1336 5.8667 9.46693 6.20003L19.2669 16L9.46693 25.8C9.15582 26.1111 9.00026 26.4943 9.00026 26.9494C9.00026 27.4054 9.16693 27.8 9.50026 28.1334C9.8336 28.4667 10.2225 28.6334 10.6669 28.6334C11.1114 28.6334 11.5003 28.4667 11.8336 28.1334Z" fill="#DC2727"/>
</svg>
