<svg width="44" height="44" viewBox="0 0 44 44" fill="none" xmlns="http://www.w3.org/2000/svg">
<path d="M22.0003 29.3334L29.3337 22.0001M29.3337 22.0001L22.0003 14.6667M29.3337 22.0001H14.667" stroke="#DC2727" stroke-width="2" stroke-linecap="round" stroke-linejoin="round"/>
<path d="M5.5 9.16667C5.5 8.19421 5.88631 7.26158 6.57394 6.57394C7.26158 5.88631 8.19421 5.5 9.16667 5.5H34.8333C35.8058 5.5 36.7384 5.88631 37.4261 6.57394C38.1137 7.26158 38.5 8.19421 38.5 9.16667V34.8333C38.5 35.8058 38.1137 36.7384 37.4261 37.4261C36.7384 38.1137 35.8058 38.5 34.8333 38.5H9.16667C8.19421 38.5 7.26158 38.1137 6.57394 37.4261C5.88631 36.7384 5.5 35.8058 5.5 34.8333V9.16667Z" stroke="#DC2727" stroke-width="2" stroke-linecap="round" stroke-linejoin="round"/>
</svg>
