<svg width="375" height="92" viewBox="0 0 375 92" fill="none" xmlns="http://www.w3.org/2000/svg">
<path d="M36.1379 10.916H22.3828V81.0842H36.1379V10.916Z" fill="#1F1A17"/>
<path fill-rule="evenodd" clip-rule="evenodd" d="M21.7675 92L0 81.0841V10.9159L21.7675 0V92Z" fill="#ED2C2C"/>
<g style="mix-blend-mode:multiply">
<path d="M20.8927 46.0001C20.8927 46.4933 20.7559 46.8827 20.5782 46.8827C20.3907 46.813 20.2294 46.6917 20.1149 46.5345C20.0005 46.3773 19.938 46.1912 19.9355 46.0001C19.9371 45.8072 19.999 45.619 20.1135 45.4596C20.2279 45.3001 20.3896 45.1765 20.5782 45.1045C20.7559 45.1045 20.8927 45.5069 20.8927 46.0001Z" fill="#70191B"/>
</g>
<g style="mix-blend-mode:multiply">
<path d="M20.5099 46.7269C20.5099 46.7269 20.6466 48.6219 17.6796 48.596C16.408 48.596 17.8847 47.4927 17.8847 47.4927L18.8281 46.4673L20.5099 46.7269Z" fill="#D12F31"/>
</g>
<path d="M312.853 56.1372L312.087 56.0204L312.019 55.9166L315.013 55.5402C316.058 55.448 317.08 55.1891 318.035 54.7744C318.691 54.4369 318.718 54.1773 318.171 53.6711C318.062 53.5672 317.884 53.4894 317.884 53.2817C318.251 53.1719 318.64 53.1453 319.019 53.2038C320.222 53.2038 321.412 53.3726 322.601 53.4504C323.923 53.5674 325.255 53.5282 326.567 53.3336C326.881 53.3336 327.25 53.2557 327.36 52.8923C327.469 52.5289 327.114 52.3861 326.908 52.1525C326.703 51.9188 326.197 51.789 326.074 51.3088C326.487 51.2857 326.901 51.3163 327.305 51.3996C329.206 51.7241 331.065 52.1914 332.938 52.6197C333.95 52.8867 334.992 53.0392 336.042 53.074C336.48 53.074 337.04 53.1779 337.218 52.6846C337.396 52.1914 336.944 51.8669 336.589 51.5814C335.522 50.7939 334.319 50.1879 333.034 49.7902C330.919 49.1335 328.764 48.6004 326.58 48.1937C326.293 48.191 326.016 48.0896 325.801 47.9081C326.225 47.7523 326.608 47.6485 326.977 47.5057C327.565 47.2721 327.606 47.0904 327.1 46.714C326.115 45.9741 325.09 45.2732 324.092 44.5464C323.476 44.1659 322.899 43.7313 322.369 43.2484C323.039 43.2484 323.586 43.2484 324.133 43.3263C324.68 43.4042 325.104 43.3263 324.967 42.5994L325.815 42.859C326.463 43.0779 327.161 43.1316 327.838 43.0148C328.189 42.9859 328.528 42.8815 328.83 42.7093C329.131 42.5371 329.387 42.3018 329.579 42.0214C329.77 41.7409 329.891 41.4227 329.933 41.091C329.975 40.7592 329.937 40.4228 329.821 40.1073C329.592 39.2388 329.218 38.4106 328.713 37.6542C327.427 35.8311 325.962 34.1275 324.338 32.5661C323.935 32.2413 323.617 31.8327 323.408 31.372L324.557 31.6446C324.908 31.724 325.264 31.7846 325.623 31.8263C326.69 31.9301 326.991 31.5018 326.594 30.5283C326.238 29.8013 325.778 29.1243 325.227 28.5165C325.117 28.3867 324.926 28.2179 325.063 28.0362C325.199 27.8545 325.391 28.0362 325.541 28.0362C326.102 28.2049 326.184 27.9194 326.115 27.504C326.115 27.3093 326.006 27.1017 325.951 26.92C325.623 25.8816 325.281 24.8562 324.967 23.8178C324.967 23.701 324.68 23.4284 325.035 23.4154C325.692 23.4154 325.664 22.9352 325.637 22.5458C325.569 21.6632 325.445 20.7806 325.35 19.9499L325.555 19.8201C326.375 20.3003 327.155 20.8455 328.016 21.2478C328.467 21.4555 328.891 21.5334 329.11 20.8844L332.104 23.3635C332.272 23.52 332.461 23.6552 332.665 23.7659C332.993 23.9606 333.225 23.9087 333.294 23.4933C333.294 23.3246 333.294 23.052 333.499 23.039C333.704 23.0261 333.8 23.2856 333.895 23.4544C334.266 24.1889 334.75 24.867 335.331 25.4662C335.946 26.0633 336.452 25.9595 336.78 25.1807C336.971 24.6847 337.109 24.1715 337.191 23.6491C337.191 23.4414 337.191 23.2078 337.423 23.0001C337.793 23.566 338.092 24.1716 338.312 24.8043C339.038 26.6876 339.954 28.5001 341.046 30.2168C341.515 30.9208 342.096 31.5514 342.769 32.0859C343.049 32.3598 343.397 32.5627 343.781 32.6761C344.166 32.7894 344.573 32.8096 344.968 32.7347C345.362 32.6598 345.731 32.4923 346.039 32.2475C346.348 32.0026 346.587 31.6882 346.734 31.333C347.064 30.603 347.267 29.8272 347.336 29.0356C347.924 29.4899 348.156 29.1395 348.334 28.6982L349.031 27.1146C349.329 27.992 349.554 28.8904 349.701 29.8014C349.92 30.736 350.098 31.6835 350.33 32.6051C350.494 33.2151 350.7 33.267 351.192 32.8257C351.465 32.5791 351.725 32.3195 352.026 32.021C352.122 32.2501 352.122 32.5057 352.026 32.7349C351.495 34.7884 351.084 36.8684 350.795 38.9651C350.62 40.265 350.694 41.5842 351.014 42.859C351.123 43.2744 351.219 43.8195 351.766 43.8714C352.313 43.9233 352.491 43.3652 352.682 42.9758C353.127 41.9411 353.443 40.8609 353.626 39.7569C354.008 38.0306 354.323 36.2783 354.829 34.565C354.857 34.446 354.894 34.3289 354.938 34.2145C355.034 34.0458 355.007 33.7343 355.266 33.7603C355.526 33.7862 355.458 34.0458 355.499 34.2275C355.54 34.4092 355.622 34.7337 355.718 34.9803C355.964 35.5904 356.306 35.6683 356.743 35.175C356.985 34.8954 357.2 34.5956 357.386 34.2794C358.209 32.83 358.895 31.3141 359.437 29.7495C359.699 28.9601 360.057 28.2023 360.503 27.4911C360.577 27.5298 360.641 27.5837 360.691 27.6488C360.741 27.7138 360.775 27.7885 360.79 27.8675C361.064 28.5943 361.351 28.6852 361.993 28.192C362.838 27.4748 363.55 26.628 364.099 25.6869C364.55 25.0249 364.974 24.3889 365.466 23.5842C365.466 23.9346 365.562 24.1423 365.466 24.35L365.33 24.8562C365.084 24.999 365.125 25.2456 365.084 25.4533C364.4 28.5165 363.716 31.5797 362.828 34.6039C362.785 34.9109 362.668 35.2042 362.486 35.4606C361.668 34.6642 361.05 33.7038 360.676 32.6501C360.302 31.5965 360.182 30.4766 360.325 29.3731C360.075 30.2397 360.034 31.1489 360.207 32.0324C360.38 32.916 360.762 33.7508 361.324 34.4741C361.766 34.9468 362.05 35.5344 362.137 36.1613C362.225 36.7882 362.113 37.4257 361.816 37.9916C361.021 40.2402 360.109 42.4495 359.081 44.6113C358.862 45.0396 358.726 45.0266 358.452 44.6113C357.826 43.8539 357.294 43.0307 356.866 42.1581C356.018 40.0835 355.533 37.8913 355.43 35.6683C355.448 35.5514 355.439 35.4324 355.406 35.3186C355.374 35.2048 355.317 35.0985 355.239 35.0063C355.239 38.6795 355.649 42.1581 358.11 45.1175C358.19 45.1879 358.254 45.2733 358.298 45.3682C358.341 45.4631 358.364 45.5656 358.364 45.6691C358.364 45.7727 358.341 45.8751 358.298 45.97C358.254 46.0649 358.19 46.1503 358.11 46.2207C357.782 46.6491 357.509 47.1423 357.194 47.5966C356.081 49.1874 354.828 50.6855 353.448 52.0746C353.215 52.3082 353.051 52.3212 352.887 51.9967C351.9 50.202 351.428 48.1918 351.52 46.1688C351.52 45.7405 351.52 45.3122 351.52 44.7411C351.362 44.9735 351.277 45.2434 351.274 45.5198C350.939 47.8335 351.359 50.1889 352.477 52.2693C352.526 52.3391 352.559 52.4174 352.576 52.4996C352.593 52.5818 352.592 52.6663 352.574 52.7483C352.557 52.8303 352.522 52.9082 352.472 52.9774C352.423 53.0467 352.359 53.106 352.286 53.1519C351.643 53.7194 350.967 54.2524 350.262 54.7484C349.825 55.0599 349.551 55.0469 349.237 54.5797C347.76 52.3601 346.242 50.1666 344.738 47.973C344.59 47.791 344.496 47.5749 344.464 47.3468C344.433 47.1188 344.466 46.8869 344.56 46.675L345.299 44.4555C345.331 44.3277 345.395 44.2091 345.485 44.1097C345.575 44.0103 345.69 43.933 345.818 43.8844C346.553 43.6062 347.239 43.2256 347.856 42.7552C348.735 42.228 349.531 41.5857 350.221 40.8472C348.977 41.7968 347.666 42.6641 346.297 43.4431C346.146 43.521 345.955 43.7027 345.791 43.5729C345.627 43.4431 345.791 43.2224 345.791 43.0537C346.174 41.7557 346.557 40.4578 346.926 39.2377C346.963 39.0558 347.07 38.8937 347.227 38.7834C348.64 37.6865 349.795 36.3201 350.618 34.7727C350.92 34.3492 351.155 33.8855 351.315 33.3968C350.043 35.0452 349.1 36.9403 347.445 38.0695C347.76 36.5379 348.061 34.9025 348.416 33.267C348.728 31.6348 348.951 29.9886 349.086 28.3347H348.908C348.758 29.1914 348.621 30.0481 348.471 30.9307C348.061 30.6581 347.938 30.2298 347.514 29.8144C347.624 30.1153 347.77 30.4029 347.951 30.6711C348.139 30.8788 348.264 31.1304 348.315 31.3997C348.365 31.669 348.339 31.9463 348.238 32.2027C347.609 34.5001 347.008 36.8105 346.406 39.1209C346.228 39.7828 346.037 40.4188 345.818 41.2495C344.522 39.1897 343.759 36.8679 343.59 34.4741C343.531 34.5646 343.493 34.6652 343.477 34.7699C343.46 34.8747 343.466 34.9816 343.494 35.0842C343.59 37.2262 344.218 39.3164 345.326 41.1846C345.449 41.3777 345.525 41.5944 345.549 41.819C345.572 42.0435 345.543 42.2702 345.463 42.4826C345.066 43.5989 344.711 44.7281 344.328 45.8443C344.246 46.078 344.219 46.4154 343.877 46.4414C343.535 46.4674 343.48 46.1688 343.343 45.9612C341.908 43.8325 340.472 41.6779 339.009 39.5492C338.9 39.4153 338.842 39.251 338.842 39.0819C338.842 38.9129 338.9 38.7486 339.009 38.6147C340.239 36.4869 340.967 34.1307 341.142 31.7095C341.142 31.5797 341.279 31.3979 341.046 31.2811C340.896 32.0989 340.773 32.9036 340.609 33.6953C340.306 35.2168 339.723 36.6756 338.886 38.0046C338.462 38.6666 338.449 38.6666 338.025 38.0046C337.677 37.4224 337.289 36.863 336.862 36.3302C336.426 35.9128 336.151 35.3669 336.084 34.7821C336.017 34.1972 336.161 33.6081 336.493 33.1113C336.824 32.2834 337.316 31.5217 337.943 30.8658C338.446 30.4626 338.808 29.924 338.982 29.3212C338.492 30.0147 337.893 30.632 337.204 31.1513C337.982 28.8136 338.132 26.3285 337.642 23.9216C337.525 24.1424 337.496 24.396 337.56 24.6355C337.671 27.6991 337.068 30.7482 335.796 33.5656C335.728 33.7213 335.687 33.9809 335.495 33.9939C335.304 34.0069 335.194 33.7992 335.099 33.6434C334.36 32.5661 333.649 31.4758 332.897 30.4115C332.804 30.2911 332.754 30.1456 332.754 29.9961C332.754 29.8467 332.804 29.7012 332.897 29.5808C333.326 28.8521 333.631 28.0636 333.8 27.2444C334.01 26.0662 333.959 24.8593 333.649 23.701C333.617 24.1331 333.617 24.5668 333.649 24.999C333.729 26.4456 333.393 27.8855 332.679 29.1654C332.487 29.5289 332.378 29.6067 332.118 29.1654C331.243 27.8675 330.354 26.5695 329.383 25.2715C329.281 25.1439 329.211 24.9951 329.181 24.8373C329.15 24.6795 329.158 24.517 329.206 24.363C329.379 23.8294 329.416 23.2645 329.315 22.7145C329.234 23.3478 329.049 23.9652 328.768 24.5447L325.842 20.1835L325.651 20.3003C326.553 21.767 327.565 23.1688 328.385 24.7394C327.755 24.6869 327.132 24.5738 326.526 24.4019C327.026 24.7005 327.584 24.9033 328.166 24.999C328.323 25.0254 328.472 25.0846 328.602 25.1721C328.732 25.2596 328.84 25.3733 328.918 25.5052C329.739 26.8031 330.587 28.1011 331.421 29.3342C331.776 29.8923 331.749 29.9183 331.092 29.9312C329.566 29.9916 328.052 29.6502 326.717 28.9448C326.444 28.789 326.156 28.6592 325.774 28.4645C325.892 28.6876 326.091 28.8627 326.334 28.9578C327.865 29.9171 329.686 30.3731 331.516 30.2557C331.67 30.2261 331.83 30.2456 331.971 30.3114C332.112 30.3771 332.226 30.4854 332.296 30.6192C332.993 31.7224 333.663 32.7998 334.429 33.89C334.524 34.0328 334.729 34.2016 334.606 34.3703C334.483 34.539 334.251 34.4482 334.059 34.4482C330.903 34.3519 327.806 33.608 324.981 32.2676L324.297 31.9561C324.434 32.1904 324.651 32.3735 324.912 32.4753C326.813 33.6184 328.947 34.3661 331.174 34.6688C330.277 35.0425 329.329 35.2959 328.358 35.4216C329.15 35.4603 329.943 35.359 330.696 35.1231C331.123 34.9224 331.588 34.8033 332.063 34.7727L334.688 34.9544C334.816 34.9544 334.941 34.9825 335.055 35.0366C335.169 35.0907 335.268 35.1692 335.345 35.2659L337.806 38.9391C335.256 39.3236 332.645 39.0869 330.217 38.2512C330.286 38.368 330.286 38.42 330.313 38.4329L330.737 38.5757C332.932 39.2963 335.256 39.592 337.573 39.4454C337.718 39.4183 337.869 39.4366 338.002 39.4974C338.135 39.5583 338.244 39.6584 338.312 39.7828C339.761 41.9894 341.238 44.1829 342.701 46.3895C342.824 46.5712 343.015 46.7659 342.879 46.9995C342.742 47.2332 342.414 47.1553 342.168 47.1293L338.284 46.6491C338.105 46.6348 337.932 46.5817 337.778 46.4939C337.624 46.4062 337.493 46.2861 337.396 46.1429C336.759 45.326 336.045 44.5657 335.263 43.8714C334.108 42.8304 332.746 42.0185 331.257 41.4832C333.605 42.6564 335.615 44.3589 337.109 46.4414H336.548L327.401 44.767C327.135 44.7486 326.88 44.663 326.661 44.5192C326.442 44.3754 326.268 44.1786 326.156 43.9493C326.023 43.7319 325.867 43.5276 325.692 43.3393H325.582L326.307 44.4296L323.354 43.6378C326.685 44.9394 330.169 45.8546 333.731 46.3635C331.557 47.5057 329.247 47.4798 327.059 47.9081C327.126 47.9231 327.197 47.9231 327.264 47.9081H327.907C330.09 47.9076 332.248 47.4651 334.237 46.6101C334.441 46.5458 334.662 46.5458 334.866 46.6101C336.028 46.8048 337.191 46.9736 338.353 47.1812C338.708 47.1812 339.296 47.1812 339.337 47.4019C339.378 47.6226 338.859 47.9341 338.544 48.1547C337.398 48.8535 336.211 49.4906 334.989 50.0627C335.11 50.0963 335.238 50.0963 335.358 50.0627C336.335 49.7665 337.257 49.3287 338.093 48.7648C338.71 48.2079 339.473 47.818 340.303 47.6354C341.132 47.4528 341.998 47.4842 342.81 47.7264H343.125C343.305 47.7582 343.476 47.824 343.629 47.9199C343.781 48.0158 343.912 48.1397 344.013 48.2845C345.527 50.6036 347.049 52.9183 348.58 55.2286C348.799 55.5661 348.717 55.7738 348.375 55.9555C347.521 56.4228 346.629 56.8263 345.709 57.1626C345.585 57.2171 345.444 57.2288 345.312 57.1956C345.18 57.1624 345.064 57.0865 344.984 56.9809C344.367 56.252 343.675 55.5825 342.92 54.982C341.486 53.8998 339.805 53.1528 338.011 52.8014C338.359 52.9673 338.72 53.1062 339.091 53.2168C341.144 53.9479 342.947 55.2006 344.301 56.8381C344.642 57.2275 344.67 57.4222 344.109 57.591C341.653 58.3141 339.131 58.8139 336.575 59.0836C336.402 59.1191 336.22 59.094 336.065 59.013C335.909 58.9319 335.789 58.8003 335.728 58.6423C334.371 56.1919 332.238 54.2078 329.629 52.9702C328.897 52.5498 328.123 52.1977 327.319 51.9188C328.098 52.425 328.918 52.8923 329.725 53.3726C331.98 54.6027 333.835 56.3991 335.085 58.5644C335.399 59.1485 335.399 59.1745 334.688 59.1875C331.731 59.2031 328.777 58.9904 325.856 58.5514C325.629 58.5451 325.409 58.4752 325.224 58.3504C325.039 58.2257 324.897 58.0517 324.817 57.8505C324.525 57.2621 324.167 56.7051 323.75 56.1891C322.736 54.951 321.275 54.1139 319.648 53.8398C320.791 54.1563 321.841 54.7209 322.714 55.4892C323.588 56.2574 324.26 57.208 324.68 58.2659C324.445 58.3451 324.189 58.3451 323.955 58.2659C320.592 57.7337 317.283 56.9679 313.96 56.28C313.714 56.28 313.468 56.0983 313.208 56.2021L312.853 56.1372Z" fill="#ED2C2C"/>
<path d="M312.853 56.1372H313.208C313.381 56.2175 313.559 56.2869 313.741 56.3449L321.576 58.2529C321.781 58.2529 322 58.2529 322.178 58.4735C320.815 59.328 319.3 59.9394 317.706 60.2777C319.327 60.1658 320.89 59.6608 322.246 58.811C322.338 58.7129 322.452 58.6362 322.58 58.5866C322.708 58.5371 322.846 58.5162 322.984 58.5255C324.958 58.9185 326.952 59.2088 328.959 59.3951C329.233 59.3951 329.274 59.5379 329.151 59.7585C328.894 60.2298 328.572 60.6663 328.194 61.0565C327.152 62.0931 325.931 62.9535 324.584 63.6005L323.641 64.0938C323.843 64.1146 324.047 64.0785 324.229 63.9899C325.951 63.1982 327.811 62.5102 328.836 60.9137C329.095 60.4219 329.519 60.0266 330.042 59.7912C330.566 59.5559 331.157 59.4941 331.721 59.6158C334.033 59.7888 336.359 59.7147 338.654 59.3951C338.642 59.6703 338.558 59.9383 338.407 60.1739C337.069 63.0844 334.947 65.6091 332.255 67.4944C331.188 68.3122 330.094 69.1039 329.014 69.9087C329.228 69.8654 329.429 69.7766 329.602 69.6491C331.631 68.3644 333.535 66.9092 335.29 65.3009C335.741 64.8725 335.851 64.8855 336.015 65.4826C336.24 66.2907 336.24 67.1406 336.015 67.9487C336.015 68.1564 335.878 68.3641 335.81 68.5717H336.001C336.521 67.4535 336.56 66.1866 336.11 65.0413C336.028 64.8206 335.946 64.6389 336.11 64.4182C337.412 63.0236 338.456 61.4308 339.2 59.7066C339.245 59.5822 339.327 59.473 339.437 59.3923C339.546 59.3116 339.678 59.263 339.816 59.2523C340.814 59.0576 341.826 58.8629 342.81 58.6033C343.33 58.4736 343.466 58.6033 343.507 59.0836C343.636 60.3612 343.516 61.6504 343.152 62.8866C342.745 64.3981 342.045 65.8242 341.087 67.0921C341.429 67.0921 341.525 66.8195 341.648 66.6508C343.389 64.4705 344.226 61.7591 344 59.0317C344 58.4865 344.082 58.201 344.683 58.0193C345.949 57.5875 347.186 57.0848 348.389 56.5136C348.69 56.3838 349.018 55.9295 349.373 56.4357C349.729 56.9419 349.906 57.0588 349.879 57.4741C349.857 57.7178 349.802 57.9578 349.715 58.188C348.422 61.8251 346.855 65.3691 345.025 68.7924C344.94 68.9714 344.814 69.1299 344.655 69.2558C344.496 69.3817 344.31 69.4718 344.109 69.5193C342.518 69.9063 341.067 70.6958 339.911 71.8037C340.636 71.4143 341.279 70.973 342.044 70.5057C342.823 70.0607 343.688 69.7693 344.588 69.6491C343.193 72.219 341.826 74.5813 340.458 76.9436H340.581L343.986 71.7518C344.396 72.219 344.273 72.8031 344.533 73.2704C344.588 72.7791 344.508 72.2827 344.301 71.8296C344.241 71.7239 344.209 71.6057 344.209 71.4857C344.209 71.3656 344.241 71.2475 344.301 71.1417C344.806 70.298 345.312 69.4544 345.777 68.5458C345.996 68.1175 346.201 68.1564 346.461 68.4679C346.831 68.9439 347.045 69.5127 347.076 70.1033C347.076 70.5317 347.076 70.973 347.186 71.4013C347.335 70.8276 347.345 70.2291 347.215 69.6511C347.084 69.0731 346.817 68.5309 346.433 68.0655C346.174 67.793 346.283 67.5983 346.433 67.3517C347.336 65.5734 348.129 63.7563 348.895 61.9261C348.977 61.7185 348.963 61.368 349.277 61.368C349.592 61.368 349.701 61.6146 349.852 61.8093C350.669 62.9802 351.198 64.3113 351.397 65.7032C351.493 66.1965 351.575 66.6767 351.657 67.1699C351.801 65.0898 351.161 63.0287 349.852 61.355C349.647 61.1214 349.319 60.9007 349.428 60.5763C349.688 59.7326 350.016 58.9019 350.344 57.9803L353.174 62.1987C353.762 63.0943 353.762 63.1073 354.692 62.5232C357.427 66.6118 360.571 70.5317 363.265 74.6852C364.102 75.9127 364.869 77.1822 365.562 78.4882C365.716 78.7578 365.778 79.0663 365.74 79.3708C365.745 79.5023 365.704 79.6316 365.624 79.7387C365.543 79.8459 365.428 79.9248 365.295 79.9633C365.163 80.0018 365.021 79.9976 364.891 79.9515C364.761 79.9054 364.651 79.8199 364.578 79.7083C364.366 79.4836 364.199 79.2241 364.085 78.9425C363.467 77.2486 362.601 75.6453 361.515 74.179C359.163 70.5576 356.552 67.105 354.159 63.5226C354.036 63.3409 353.913 63.0943 353.639 63.1203C353.366 63.1462 353.27 63.4318 353.215 63.6524C352.928 64.7557 352.682 65.872 352.409 66.9752C352.288 67.5074 352.095 68.0223 351.834 68.5068C351.602 68.1045 351.424 67.78 351.219 67.4685C350.74 66.7156 350.221 66.7027 349.701 67.4685C349.247 68.2049 348.885 68.989 348.621 69.8048C348.225 70.7913 347.842 71.7907 347.459 72.7772C347.358 73.0707 347.201 73.3436 346.994 73.5819C346.762 73.3093 346.83 73.0108 346.762 72.7512C346.693 72.4916 346.762 72.0633 346.351 71.9854C345.941 71.9075 345.818 72.258 345.64 72.4916C345.312 72.9459 345.012 73.4132 344.697 73.8804C344.56 74.0751 344.519 74.3088 344.136 74.1271C343.754 73.9453 343.521 74.3477 343.289 74.5684C342.523 75.2693 341.785 75.9961 341.033 76.71L340.103 77.6316C340.24 76.723 340.349 75.9182 340.486 75.1135C340.618 74.4333 340.669 73.7409 340.636 73.0497C340.636 72.1801 340.144 71.9984 339.378 72.4916C339.17 72.6203 338.97 72.7589 338.777 72.907C338.777 72.6474 338.927 72.5176 339.036 72.3748C339.581 71.5638 340.056 70.7132 340.458 69.8308C340.68 69.4222 340.836 68.9848 340.923 68.5328C341.046 67.741 340.636 67.3646 339.816 67.5464C339.15 67.7103 338.517 67.9779 337.943 68.3381C337.286 68.7145 336.657 69.1429 336.015 69.5452C335.749 69.7523 335.449 69.9147 335.126 70.0255C335.122 69.9866 335.122 69.9475 335.126 69.9087C335.208 69.5971 335.591 69.2856 335.331 69.0131C335.071 68.7405 334.647 68.8573 334.278 68.9222C332.659 69.2936 331.07 69.7707 329.52 70.35C328.904 70.6101 328.239 70.7471 327.565 70.7523L328.248 70.1293C328.745 69.7062 329.173 69.2165 329.52 68.6756C329.75 68.3182 329.888 67.9149 329.925 67.4977C329.961 67.0805 329.894 66.661 329.729 66.2727C329.565 65.8843 329.307 65.5379 328.976 65.261C328.645 64.9841 328.251 64.7844 327.825 64.6778C326.782 64.4399 325.703 64.3827 324.639 64.5091C323.931 64.6019 323.213 64.6019 322.506 64.5091C322.738 64.2625 322.916 64.0938 323.08 63.8991C323.205 63.7918 323.303 63.6591 323.366 63.511C323.43 63.3628 323.457 63.203 323.447 63.0433C323.436 62.8837 323.388 62.7284 323.306 62.5889C323.223 62.4494 323.109 62.3294 322.971 62.2377C322.58 61.9174 322.109 61.6983 321.603 61.6017L316.462 60.4335C316.613 60.2258 316.954 60.122 317.214 59.9532C318.13 59.3302 318.13 58.6553 317.214 58.0971C316.145 57.5388 315.04 57.0446 313.905 56.6175C313.523 56.5266 313.112 56.5006 312.853 56.1372Z" fill="#ED2C2C"/>
<path d="M365.343 24.8561L365.48 24.3499C365.562 24.9053 365.562 25.4688 365.48 26.0242C365.48 26.9458 365.48 27.8544 365.48 28.7759C365.549 30.0739 366.26 30.3724 367.394 29.6845L368.201 29.2043C367.996 29.996 367.846 30.632 367.682 31.268C367.394 32.3713 367.094 33.4746 366.916 34.6038C366.882 34.8233 366.882 35.0463 366.916 35.2658C367.066 36.421 367.668 36.7714 368.83 36.421L369.295 36.2652C369.363 36.6935 369.076 36.9791 368.898 37.2776C368.284 38.1809 367.779 39.1476 367.394 40.1591C367.23 40.5578 367.158 40.9852 367.181 41.4127C367.205 41.8402 367.324 42.258 367.531 42.6382C367.795 43.1333 368.218 43.5353 368.74 43.7852C369.261 44.0352 369.854 44.1199 370.43 44.0271C371.334 43.8718 372.215 43.6147 373.055 43.2613C372.933 43.6844 372.675 44.0608 372.317 44.3386C371.209 45.4678 369.979 46.4932 368.939 47.6873C368.686 47.9612 368.465 48.2617 368.283 48.5829C367.941 49.154 368.078 49.3357 368.775 49.3487H369.24C368.993 49.6336 368.679 49.8602 368.324 50.0107C367.316 50.5163 366.363 51.1163 365.48 51.8019C365.029 52.1783 364.386 52.5677 364.605 53.2296C364.824 53.8916 365.59 53.8657 366.191 53.9176C367.634 53.9927 369.081 53.8968 370.498 53.632L369.596 54.1772C368.994 54.5925 369.008 54.9689 369.596 55.3453C370.094 55.6286 370.633 55.8428 371.196 55.9813L374.272 56.8769C372.905 57.3312 371.647 57.7336 370.389 58.1749C369.924 58.3566 369.254 58.3436 369.227 59.0835C369.227 59.2392 368.939 59.2003 368.775 59.2263L366.806 59.4988C366.588 59.4988 366.328 59.5897 366.26 59.8493C366.191 60.1089 366.437 60.2387 366.615 60.3685C366.793 60.4983 367.23 60.7838 367.613 61.0434C367.215 61.158 366.794 61.1846 366.383 61.1213C364.865 61.0175 363.347 60.8877 361.83 60.7708C361.376 60.7166 360.916 60.7166 360.462 60.7708C359.71 60.9396 359.519 61.329 359.902 61.978C360.017 62.1464 360.145 62.3069 360.284 62.4582L360.681 62.9774C360.323 63.0683 359.945 63.0683 359.587 62.9774C358.316 62.7957 357.058 62.5101 355.813 62.2246C355.417 62.1337 354.966 61.9909 354.665 62.4452L351.233 57.3442C352.176 57.4221 352.956 57.5129 353.749 57.5519C353.93 57.5492 354.108 57.6019 354.256 57.7024C354.404 57.8029 354.513 57.9458 354.569 58.11C354.898 58.8392 355.361 59.5072 355.936 60.0829C356.996 61.1038 358.249 61.9271 359.628 62.5101C359.068 62.0818 358.466 61.6924 357.892 61.29C356.754 60.5471 355.817 59.5598 355.157 58.4085C354.802 57.7985 354.911 57.6687 355.608 57.7076C357.728 57.8374 359.847 57.9413 361.966 57.8894C362.113 57.8734 362.261 57.9059 362.386 57.9816C362.51 58.0573 362.604 58.1714 362.65 58.3047C362.923 58.8055 363.31 59.2423 363.783 59.5835C364.256 59.9247 364.803 60.1618 365.385 60.2776C364.879 60.005 364.482 59.8103 364.113 59.5897C363.626 59.3261 363.22 58.9456 362.937 58.4864C362.732 58.123 362.718 57.8634 363.32 57.8634C364.277 57.8634 365.248 57.7855 366.205 57.6947C366.359 57.6699 366.517 57.6819 366.665 57.7294C366.813 57.777 366.946 57.8587 367.053 57.9672C367.476 58.4372 368.054 58.7575 368.693 58.8758C368.051 58.5645 367.491 58.1211 367.053 57.5778L373.493 56.864V56.7212L364.892 57.2793C365.981 55.9789 367.34 54.9052 368.885 54.1252C367.285 54.7013 365.872 55.6631 364.783 56.9159C364.694 57.0279 364.578 57.1181 364.445 57.179C364.312 57.24 364.165 57.2699 364.017 57.2663C359.867 57.3942 355.713 57.2294 351.588 56.7731C351.375 56.7486 351.164 56.7051 350.959 56.6433C350.737 56.5382 350.541 56.3886 350.386 56.2049C350.23 56.0212 350.118 55.8077 350.057 55.579C349.907 55.2026 350.385 55.1117 350.618 54.93C351.645 54.1704 352.618 53.3465 353.53 52.4638C354.022 51.9447 354.391 51.9706 355.007 52.2821C357.339 53.5416 360.058 54 362.705 53.5801C363.145 53.5519 363.572 53.4227 363.949 53.2037C363.224 53.2686 362.582 53.3724 361.953 53.3984C359.605 53.5226 357.268 53.0141 355.212 51.9317C354.747 51.6721 354.638 51.4514 355.034 51.0101C355.689 50.3634 356.301 49.6785 356.866 48.9593C356.965 48.8077 357.108 48.6865 357.278 48.6105C357.448 48.5345 357.637 48.5069 357.823 48.531C359.709 48.645 361.602 48.4697 363.429 48.0118C363.546 47.9659 363.676 47.9589 363.798 47.9919C363.919 48.0249 364.026 48.0959 364.099 48.1935C364.696 48.7799 365.446 49.2054 366.273 49.4266C366.877 49.6142 367.522 49.6543 368.146 49.5434C367.918 49.4855 367.685 49.4464 367.449 49.4266C366.355 49.3348 365.318 48.922 364.482 48.2454C364.154 47.9729 364.086 47.7912 364.564 47.6354C365.66 47.27 366.728 46.8364 367.764 46.3374C369.154 45.6883 370.497 44.9511 371.783 44.1309C367.353 46.3115 362.937 48.544 357.659 47.9469C357.683 47.8747 357.716 47.8051 357.755 47.7392C359.199 45.5061 360.412 43.1459 361.378 40.6913C361.415 40.5761 361.492 40.4763 361.596 40.4079C361.701 40.3395 361.826 40.3067 361.953 40.3149C364.687 40.1721 366.601 38.6535 368.488 37.031C368.231 37.1244 367.991 37.2558 367.777 37.4204C366.964 38.0507 366.089 38.6069 365.166 39.0818C364.275 39.5784 363.271 39.8633 362.24 39.9125C361.788 39.9125 361.706 39.8216 361.857 39.4063C362.415 37.9348 362.872 36.4303 363.224 34.9023C363.29 34.5502 363.441 34.2177 363.667 33.9314C363.893 33.6451 364.186 33.413 364.523 33.2539C365.768 32.4444 366.791 31.3627 367.504 30.0999C366.477 31.4353 365.186 32.5683 363.703 33.4356C363.976 32.1377 364.25 30.8397 364.482 29.6585C364.783 28.062 365.179 26.4785 365.343 24.8561Z" fill="#ED2C2C"/>
<path d="M20.3322 45.4289C20.4689 45.4289 20.7151 45.7145 20.7424 46.0779V45.987C20.7424 45.5976 20.6193 45.2861 20.4689 45.2861H18.1719V45.4289H20.3322Z" fill="#F7A7A9"/>
<path d="M20.7561 46.1168C20.7561 45.7533 20.4826 45.4678 20.3459 45.4678H18.1719V46.1427L20.7561 46.1168Z" fill="#ED2C2C"/>
<path d="M20.51 46.7269C20.6467 46.7269 20.7561 46.4673 20.7834 46.1428H18.1719V46.7269H20.51Z" fill="#AC272A"/>
<path d="M15.9424 46.078C15.9424 44.7021 17.0362 43.5988 17.7062 43.5988C18.048 43.5988 18.3489 43.8454 18.5676 44.3387C18.3352 43.8195 18.0207 43.495 17.6515 43.4561C16.9269 43.4561 15.7646 44.6112 15.7646 46.052C15.7646 46.052 15.7646 46.1299 15.7646 46.1688C15.8093 46.9446 16.1667 47.6743 16.7628 48.2066C16.2359 47.6766 15.9424 46.9754 15.9424 46.2467C15.9424 46.2467 15.9424 46.1169 15.9424 46.078Z" fill="#F7A7A9"/>
<path d="M17.7746 43.6118C17.1046 43.6118 16.0107 44.7151 16.0107 46.0909C16.0107 46.0909 16.0107 46.1688 16.0107 46.2078C16.0107 46.9365 16.3042 47.6377 16.8311 48.1677C18.2941 47.9341 18.6496 44.5204 18.677 44.3776C18.4035 43.8584 18.1027 43.6378 17.7746 43.6118Z" fill="#ED2C2C"/>
<path d="M18.9367 46.0001C18.9439 45.4281 18.8372 44.86 18.6222 44.3257C18.6222 44.4165 18.212 47.7783 16.7764 48.2196C17.0041 48.4558 17.3158 48.6037 17.6514 48.6349C18.3624 48.57 18.9367 47.4148 18.9367 46.0001Z" fill="#AC272A"/>
<path d="M49.8788 37.7969H45.8726V46.7269H39.0361V17.9509H51.6427C59.0261 17.9509 61.747 20.7286 61.747 26.1281V29.6716C61.747 33.254 60.3797 35.6812 57.3443 36.8883L64.6867 46.7269H56.5786L49.8788 37.7969ZM54.9379 26.7252C54.9379 24.5706 54.0765 23.7009 51.3008 23.7009H45.8316V32.1767H51.3008C54.2132 32.1767 54.9379 31.1772 54.9379 29.0226V26.7252Z" fill="#1F1A17"/>
<path d="M89.2989 38.3549C89.2989 42.716 86.113 47.1681 77.5537 47.1681C68.9944 47.1681 65.8086 42.716 65.8086 38.3549V26.3357C65.8086 21.9745 68.9944 17.5225 77.5537 17.5225C86.113 17.5225 89.2989 21.9745 89.2989 26.3357V38.3549ZM82.4623 26.9068C82.4623 24.6483 80.9583 23.2725 77.54 23.2725C74.1218 23.2725 72.6314 24.6483 72.6314 26.9068V37.7967C72.6314 40.0422 74.1355 41.4181 77.54 41.4181C80.9446 41.4181 82.4623 40.0422 82.4623 37.7967V26.9068Z" fill="#1F1A17"/>
<path d="M99.3072 30.7489L98.856 46.7269H92.252L93.5372 17.938H100.374L107.648 36.3432L114.922 18.0159H121.758L123.057 46.7269H116.426L115.975 30.736L110.752 43.0277H104.599L99.3072 30.7489Z" fill="#1F1A17"/>
<path d="M133.271 30.7489L132.806 46.7269H126.202L127.487 17.938H134.324L141.598 36.3432L148.886 18.0159H155.722L156.98 46.7269H150.403L149.952 30.736L144.674 43.0147H138.576L133.271 30.7489Z" fill="#1F1A17"/>
<path d="M185.748 46.7269H178.652L177.011 41.1067H166.811L165.212 46.7269H158.115L167.358 17.938H176.464L185.748 46.7269ZM168.397 35.7072H175.371L171.911 23.649L168.397 35.7072Z" fill="#1F1A17"/>
<path d="M202.128 32.1248L211.33 46.7269H204.179L198.259 37.2258L192.434 46.7269H185.283L194.43 32.1118L185.598 17.938H192.79L198.341 27.0238L203.906 17.938H211.043L202.128 32.1248Z" fill="#1F1A17"/>
<path d="M42.2767 67.6371C42.2767 71.1416 43.644 72.2709 48.033 72.2709C50.1047 72.2494 52.1713 72.0715 54.2132 71.7387L54.5687 74.5293C52.3782 74.9632 50.1476 75.1893 47.9099 75.2043C41.4426 75.2043 38.8721 72.6083 38.8721 67.8318V56.7602C38.8721 52.0226 41.4426 49.3877 47.9099 49.3877C50.1476 49.4027 52.3782 49.6288 54.5687 50.0626L54.2132 52.8403C52.1701 52.5178 50.104 52.3443 48.033 52.3211C43.7123 52.3211 42.2767 53.4503 42.2767 56.9549V67.6371Z" fill="#ED2C2C"/>
<path d="M80.1103 74.8279H76.6647L74.477 68.7924H63.2514L61.1185 74.8279H57.6592L66.5877 49.7642H71.1818L80.1103 74.8279ZM68.8847 52.0875L64.1675 65.9888H73.6019L68.8847 52.0875Z" fill="#ED2C2C"/>
<path d="M87.8352 53.4893V74.8279H84.5811V49.7642H89.2709L100.77 71.2196V49.7642H104.024V74.8279H99.3343L87.8352 53.4893Z" fill="#ED2C2C"/>
<path d="M130.946 74.828H127.487L125.313 68.7924H114.087L111.941 74.815H108.495L117.424 49.7512H122.018L130.946 74.828ZM119.721 52.0876L115.003 65.9888H124.424L119.721 52.0876Z" fill="#ED2C2C"/>
<path d="M144.661 49.7642C151.128 49.7642 153.152 52.9572 153.152 56.9549V67.6372C153.152 71.6349 151.128 74.8279 144.661 74.8279H135.363V49.7642H144.661ZM138.836 71.9335H144.538C148.544 71.9335 149.734 70.3499 149.734 67.4165V57.1756C149.734 54.2421 148.544 52.6586 144.538 52.6586H138.836V71.9335Z" fill="#ED2C2C"/>
<path d="M179.281 74.828H175.822L173.648 68.7924H162.422L160.276 74.815H156.83L165.759 49.7512H170.353L179.281 74.828ZM168.056 52.0876L163.338 65.9888H172.773L168.056 52.0876Z" fill="#ED2C2C"/>
<path d="M195.169 49.7642C201.636 49.7642 203.66 52.9572 203.66 56.9549V67.6372C203.66 71.6349 201.636 74.8279 195.169 74.8279H185.953V49.7642H195.169ZM189.344 71.9335H195.059C199.066 71.9335 200.255 70.3499 200.255 67.4165V57.1756C200.255 54.2421 199.066 52.6586 195.059 52.6586H189.344V71.9335Z" fill="#ED2C2C"/>
<path d="M228.121 67.5982C228.121 71.7777 225.386 75.2043 218.55 75.2043C211.713 75.2043 208.979 71.7777 208.979 67.5982V56.9808C208.979 52.8014 211.713 49.3877 218.55 49.3877C225.386 49.3877 228.121 52.8014 228.121 56.9808V67.5982ZM212.424 67.5982C212.424 70.6744 214.407 72.4137 218.563 72.4137C222.72 72.4137 224.716 70.6744 224.716 67.5982V57.1106C224.716 54.0214 222.734 52.2951 218.563 52.2951C214.393 52.2951 212.424 54.0214 212.424 57.1106V67.5982Z" fill="#ED2C2C"/>
<path d="M252.787 67.5982C252.787 71.7777 250.052 75.2043 243.216 75.2043C236.379 75.2043 233.645 71.7777 233.645 67.5982V56.9808C233.645 52.8014 236.379 49.3877 243.216 49.3877C250.052 49.3877 252.787 52.8014 252.787 56.9808V67.5982ZM237.09 67.4944C237.09 70.5705 239.073 72.3098 243.229 72.3098C247.386 72.3098 249.382 70.5705 249.382 67.4944V57.1106C249.382 54.0214 247.4 52.2951 243.229 52.2951C239.059 52.2951 237.09 53.9695 237.09 57.1106V67.4944Z" fill="#ED2C2C"/>
<path d="M268.811 65.7551H262.344V74.8409H258.926V49.7642H269.003C274.677 49.7642 276.66 52.0875 276.66 55.9295V59.5508C276.66 62.5232 275.511 64.548 272.462 65.3787L279.299 74.8279H275.374L268.811 65.7551ZM268.88 52.6586H262.344V62.8996H268.88C272.134 62.8996 273.255 62.03 273.255 59.5898V55.9684C273.255 53.4893 272.093 52.6586 268.88 52.6586Z" fill="#ED2C2C"/>
<path d="M290.852 75.2044C288.175 75.2201 285.517 74.7805 283.004 73.9064L283.551 71.3105C285.941 72.0204 288.43 72.3879 290.934 72.4008C295.173 72.4008 296.048 71.3494 296.048 68.5069C296.048 65.1192 296.048 64.8206 290.579 63.6525C284.193 62.3545 283.441 61.1344 283.441 55.9295C283.441 51.5684 285.342 49.4397 291.878 49.4397C294.283 49.443 296.678 49.7175 299.015 50.2574L298.742 53.0091C296.496 52.5394 294.204 52.3001 291.905 52.2952C287.584 52.2952 286.791 53.1259 286.791 56.0204C286.791 59.486 286.791 59.6417 292.028 60.8748C299.042 62.5362 299.398 63.4707 299.398 68.403C299.439 72.6863 298.072 75.2044 290.852 75.2044Z" fill="#ED2C2C"/>
<path d="M305.319 61.9521V74.828H303.541V61.9521H305.319Z" fill="#1F1A17"/>
<path d="M308.519 68.0914C308.519 67.1309 308.519 66.3521 308.437 65.5863H310.009L310.105 67.105C310.426 66.5649 310.896 66.1179 311.465 65.8116C312.033 65.5053 312.678 65.3512 313.331 65.3657C314.699 65.3657 316.763 66.1315 316.763 69.2596V74.776H315V69.4543C315 67.9616 314.412 66.7156 312.744 66.7156C312.201 66.7265 311.677 66.9046 311.25 67.223C310.823 67.5414 310.517 67.9829 310.378 68.4808C310.292 68.7367 310.251 69.0041 310.255 69.2726V74.8279H308.491L308.519 68.0914Z" fill="#1F1A17"/>
<path d="M326.635 74.4905C325.775 74.8544 324.842 75.036 323.9 75.0227C323.243 75.0539 322.587 74.9521 321.975 74.7241C321.363 74.4961 320.809 74.1471 320.35 73.7002C319.891 73.2534 319.537 72.7189 319.312 72.1323C319.088 71.5458 318.997 70.9205 319.046 70.2981C319.014 69.6402 319.129 68.9832 319.381 68.3699C319.634 67.7566 320.02 67.2006 320.514 66.738C321.008 66.2754 321.598 65.9164 322.248 65.6845C322.897 65.4526 323.59 65.3528 324.283 65.3917C325.13 65.3816 325.97 65.5454 326.744 65.872L326.334 67.17C325.702 66.8562 324.995 66.7041 324.283 66.7287C323.366 66.8039 322.512 67.203 321.889 67.8471C321.267 68.4911 320.922 69.3333 320.922 70.2072C320.922 71.0812 321.267 71.9233 321.889 72.5674C322.512 73.2114 323.366 73.6105 324.283 73.6858C325.034 73.6873 325.776 73.5322 326.457 73.2315L326.635 74.4905Z" fill="#1F1A17"/>
<path d="M328.152 73.8414C328.166 73.6182 328.248 73.4036 328.389 73.2242C328.529 73.0448 328.722 72.9086 328.944 72.8325C329.165 72.7563 329.405 72.7435 329.634 72.7957C329.863 72.8479 330.071 72.9628 330.232 73.1261C330.393 73.2894 330.5 73.4939 330.54 73.7143C330.579 73.9348 330.55 74.1614 330.455 74.3661C330.36 74.5708 330.204 74.7446 330.006 74.8659C329.808 74.9872 329.577 75.0507 329.342 75.0485C329.178 75.0509 329.015 75.0206 328.864 74.9597C328.713 74.8988 328.578 74.8087 328.466 74.695C328.354 74.5813 328.268 74.4466 328.214 74.2996C328.16 74.1526 328.139 73.9966 328.152 73.8414Z" fill="#1F1A17"/>
</svg>
