<svg width="260" height="64" viewBox="0 0 260 64" fill="none" xmlns="http://www.w3.org/2000/svg">
<g clip-path="url(#clip0_142_1438)">
<path d="M25.0996 7.59375H15.5459V56.4064H25.0996V7.59375Z" fill="white"/>
<path fill-rule="evenodd" clip-rule="evenodd" d="M15.1187 64L0 56.4063V7.59368L15.1187 0V64Z" fill="#ED2C2C"/>
<g style="mix-blend-mode:multiply">
<path d="M14.5105 32C14.5105 32.3431 14.4155 32.614 14.292 32.614C14.1618 32.5655 14.0498 32.4811 13.9703 32.3718C13.8908 32.2624 13.8474 32.1329 13.8457 32C13.8468 31.8658 13.8898 31.7349 13.9693 31.624C14.0487 31.513 14.1611 31.4271 14.292 31.377C14.4155 31.377 14.5105 31.6569 14.5105 32Z" fill="#70191B"/>
</g>
<g style="mix-blend-mode:multiply">
<path d="M14.2454 32.5055C14.2454 32.5055 14.3404 33.8238 12.2796 33.8058C11.3964 33.8058 12.4221 33.0383 12.4221 33.0383L13.0773 32.325L14.2454 32.5055Z" fill="#D12F31"/>
</g>
<path d="M217.293 39.052L216.761 38.9707L216.714 38.8985L218.794 38.6366C219.52 38.5725 220.229 38.3924 220.892 38.1039C221.348 37.8691 221.367 37.6885 220.987 37.3364C220.911 37.2641 220.788 37.21 220.788 37.0655C221.043 36.9891 221.313 36.9706 221.576 37.0113C222.412 37.0113 223.238 37.1287 224.064 37.1829C224.982 37.2643 225.907 37.237 226.818 37.1016C227.037 37.1016 227.293 37.0474 227.369 36.7946C227.445 36.5418 227.198 36.4425 227.056 36.2799C226.913 36.1174 226.562 36.0271 226.476 35.693C226.763 35.677 227.051 35.6983 227.331 35.7562C228.651 35.982 229.943 36.307 231.244 36.605C231.947 36.7907 232.67 36.8968 233.4 36.921C233.703 36.921 234.093 36.9933 234.216 36.6501C234.34 36.307 234.026 36.0813 233.779 35.8827C233.038 35.3349 232.203 34.9133 231.31 34.6366C229.841 34.1798 228.344 33.8089 226.828 33.526C226.628 33.5242 226.436 33.4536 226.287 33.3273C226.581 33.219 226.847 33.1468 227.103 33.0474C227.512 32.8849 227.54 32.7585 227.189 32.4966C226.505 31.982 225.793 31.4944 225.099 30.9887C224.672 30.7241 224.271 30.4218 223.903 30.0858C224.368 30.0858 224.748 30.0858 225.128 30.14C225.508 30.1942 225.802 30.14 225.707 29.6343L226.296 29.8149C226.746 29.9672 227.231 30.0046 227.702 29.9233C227.945 29.9032 228.181 29.8305 228.39 29.7108C228.6 29.591 228.778 29.4273 228.91 29.2322C229.043 29.0371 229.127 28.8157 229.157 28.585C229.186 28.3542 229.159 28.1202 229.079 27.9007C228.919 27.2965 228.66 26.7204 228.309 26.1942C227.416 24.926 226.398 23.7409 225.27 22.6547C224.991 22.4287 224.77 22.1444 224.625 21.824L225.422 22.0136C225.667 22.0688 225.914 22.111 226.163 22.14C226.904 22.2122 227.113 21.9143 226.837 21.2371C226.59 20.7313 226.27 20.2604 225.888 19.8375C225.812 19.7472 225.679 19.6298 225.774 19.5034C225.869 19.377 226.002 19.5034 226.106 19.5034C226.495 19.6208 226.552 19.4222 226.505 19.1332C226.505 18.9978 226.429 18.8533 226.391 18.7269C226.163 18.0045 225.926 17.2912 225.707 16.5689C225.707 16.4876 225.508 16.298 225.755 16.289C226.211 16.289 226.192 15.9549 226.173 15.684C226.125 15.07 226.04 14.456 225.973 13.8781L226.116 13.7878C226.685 14.1219 227.227 14.5012 227.825 14.7811C228.138 14.9255 228.433 14.9797 228.585 14.5282L230.664 16.2529C230.781 16.3617 230.912 16.4558 231.054 16.5328C231.282 16.6682 231.443 16.6321 231.491 16.3431C231.491 16.2258 231.491 16.0361 231.633 16.0271C231.776 16.0181 231.842 16.1987 231.909 16.3161C232.166 16.8271 232.502 17.2987 232.906 17.7156C233.333 18.131 233.684 18.0587 233.912 17.517C234.045 17.1719 234.141 16.8149 234.197 16.4515C234.197 16.307 234.197 16.1445 234.359 16C234.616 16.3937 234.823 16.815 234.976 17.2551C235.481 18.5652 236.117 19.8261 236.875 21.0203C237.201 21.5101 237.605 21.9488 238.072 22.3206C238.266 22.5111 238.508 22.6523 238.775 22.7312C239.042 22.81 239.325 22.824 239.599 22.7719C239.873 22.7199 240.129 22.6033 240.343 22.433C240.557 22.2626 240.723 22.0439 240.826 21.7969C241.055 21.289 241.196 20.7493 241.244 20.1987C241.652 20.5147 241.814 20.2709 241.937 19.9639L242.421 18.8623C242.628 19.4726 242.784 20.0976 242.887 20.7314C243.039 21.3815 243.162 22.0407 243.324 22.6817C243.438 23.1061 243.58 23.1422 243.922 22.8352C244.112 22.6637 244.292 22.4831 244.501 22.2754C244.568 22.4348 244.568 22.6126 244.501 22.772C244.132 24.2006 243.847 25.6475 243.646 27.1061C243.525 28.0104 243.576 28.9281 243.798 29.8149C243.874 30.1039 243.941 30.4831 244.321 30.5192C244.701 30.5553 244.824 30.1671 244.957 29.8962C245.266 29.1764 245.486 28.4249 245.612 27.6569C245.878 26.456 246.097 25.2371 246.448 24.0452C246.468 23.9624 246.493 23.881 246.524 23.8014C246.59 23.684 246.571 23.4673 246.752 23.4854C246.932 23.5034 246.885 23.684 246.913 23.8104C246.942 23.9368 246.999 24.1626 247.065 24.3341C247.236 24.7585 247.474 24.8127 247.778 24.4696C247.946 24.275 248.095 24.0665 248.224 23.8465C248.796 22.8382 249.272 21.7837 249.648 20.6953C249.831 20.1462 250.079 19.6189 250.389 19.1242C250.441 19.1512 250.485 19.1886 250.52 19.2339C250.554 19.2792 250.578 19.3311 250.589 19.386C250.778 19.8917 250.978 19.9549 251.424 19.6118C252.011 19.1129 252.505 18.5238 252.887 17.8691C253.2 17.4086 253.495 16.9662 253.836 16.4064C253.836 16.6501 253.903 16.7946 253.836 16.9391L253.741 17.2912C253.57 17.3906 253.599 17.5621 253.57 17.7066C253.096 19.8375 252.621 21.9684 252.004 24.0723C251.974 24.2858 251.893 24.4899 251.766 24.6682C251.198 24.1142 250.769 23.4461 250.509 22.7131C250.25 21.9801 250.166 21.2011 250.266 20.4334C250.092 21.0363 250.064 21.6688 250.184 22.2834C250.304 22.898 250.569 23.4788 250.959 23.982C251.266 24.3108 251.463 24.7195 251.524 25.1557C251.585 25.5918 251.507 26.0352 251.301 26.4289C250.749 27.9931 250.115 29.53 249.401 31.0339C249.249 31.3319 249.155 31.3228 248.965 31.0339C248.53 30.507 248.16 29.9344 247.863 29.3273C247.274 27.8841 246.937 26.3592 246.866 24.8127C246.878 24.7314 246.872 24.6486 246.849 24.5694C246.826 24.4903 246.787 24.4163 246.733 24.3522C246.733 26.9075 247.018 29.3273 248.727 31.386C248.783 31.4351 248.827 31.4944 248.857 31.5605C248.888 31.6265 248.903 31.6978 248.903 31.7698C248.903 31.8418 248.888 31.9131 248.857 31.9791C248.827 32.0451 248.783 32.1045 248.727 32.1535C248.499 32.4515 248.309 32.7946 248.091 33.1106C247.318 34.2173 246.448 35.2594 245.489 36.2258C245.327 36.3883 245.213 36.3973 245.099 36.1716C244.413 34.9231 244.086 33.5247 244.15 32.1174C244.15 31.8194 244.15 31.5215 244.15 31.1242C244.04 31.2858 243.981 31.4737 243.979 31.6659C243.747 33.2755 244.038 34.914 244.815 36.3612C244.848 36.4098 244.872 36.4642 244.883 36.5214C244.895 36.5786 244.895 36.6374 244.882 36.6945C244.87 36.7515 244.846 36.8057 244.811 36.8538C244.777 36.902 244.733 36.9433 244.682 36.9752C244.235 37.37 243.766 37.7408 243.276 38.0858C242.972 38.3025 242.782 38.2935 242.564 37.9684C241.538 36.4244 240.484 34.8985 239.439 33.3725C239.337 33.2459 239.271 33.0956 239.249 32.9369C239.228 32.7783 239.251 32.617 239.316 32.4696L239.829 30.9255C239.851 30.8366 239.895 30.7541 239.958 30.685C240.021 30.6158 240.1 30.562 240.19 30.5282C240.7 30.3347 241.177 30.0699 241.605 29.7427C242.215 29.376 242.768 28.9291 243.248 28.4154C242.384 29.076 241.473 29.6793 240.522 30.2213C240.418 30.2754 240.285 30.4018 240.171 30.3115C240.057 30.2213 240.171 30.0678 240.171 29.9504C240.437 29.0474 240.702 28.1445 240.959 27.2957C240.984 27.1693 241.059 27.0565 241.168 26.9797C242.15 26.2167 242.952 25.2661 243.523 24.1896C243.733 23.895 243.896 23.5725 244.007 23.2325C243.124 24.3793 242.469 25.6975 241.32 26.4831C241.538 25.4176 241.747 24.2799 241.994 23.1422C242.21 22.0068 242.366 20.8616 242.459 19.7111H242.336C242.231 20.307 242.136 20.903 242.032 21.517C241.747 21.3273 241.662 21.0294 241.367 20.7404C241.444 20.9498 241.546 21.1498 241.671 21.3364C241.801 21.4808 241.889 21.6559 241.924 21.8432C241.959 22.0306 241.94 22.2235 241.871 22.4018C241.434 24 241.016 25.6073 240.598 27.2145C240.475 27.675 240.342 28.1174 240.19 28.6953C239.29 27.2624 238.759 25.6472 238.642 23.982C238.601 24.0449 238.575 24.1149 238.563 24.1878C238.552 24.2607 238.556 24.335 238.575 24.4064C238.642 25.8965 239.078 27.3505 239.848 28.6501C239.933 28.7845 239.986 28.9352 240.002 29.0914C240.019 29.2476 239.998 29.4053 239.943 29.5531C239.667 30.3296 239.42 31.1152 239.155 31.8917C239.098 32.0542 239.079 32.289 238.841 32.307C238.604 32.3251 238.566 32.1174 238.471 31.9729C237.474 30.4921 236.476 28.9933 235.46 27.5124C235.385 27.4193 235.344 27.305 235.344 27.1874C235.344 27.0698 235.385 26.9555 235.46 26.8623C236.314 25.3821 236.82 23.7431 236.942 22.0587C236.942 21.9684 237.037 21.842 236.875 21.7608C236.771 22.3296 236.685 22.8894 236.571 23.4402C236.361 24.4986 235.956 25.5134 235.375 26.438C235.08 26.8985 235.071 26.8985 234.777 26.438C234.535 26.0329 234.266 25.6438 233.969 25.2732C233.666 24.9828 233.476 24.603 233.429 24.1962C233.382 23.7894 233.482 23.3795 233.713 23.0339C233.943 22.458 234.284 21.9281 234.72 21.4718C235.069 21.1913 235.321 20.8167 235.441 20.3973C235.101 20.8797 234.685 21.3092 234.207 21.6705C234.747 20.0442 234.851 18.3155 234.511 16.6411C234.429 16.7947 234.409 16.9711 234.454 17.1377C234.531 19.2689 234.112 21.39 233.229 23.3499C233.181 23.4583 233.153 23.6389 233.02 23.6479C232.887 23.6569 232.811 23.5124 232.744 23.4041C232.231 22.6547 231.738 21.8962 231.215 21.1558C231.151 21.072 231.116 20.9708 231.116 20.8668C231.116 20.7629 231.151 20.6617 231.215 20.5779C231.513 20.071 231.725 19.5225 231.842 18.9526C231.988 18.133 231.953 17.2934 231.738 16.4876C231.715 16.7882 231.715 17.0899 231.738 17.3906C231.793 18.3969 231.56 19.3986 231.063 20.289C230.93 20.5418 230.854 20.596 230.674 20.289C230.066 19.386 229.449 18.4831 228.775 17.5802C228.703 17.4914 228.655 17.3879 228.634 17.2781C228.612 17.1683 228.618 17.0553 228.651 16.9481C228.772 16.577 228.798 16.184 228.727 15.8014C228.671 16.2419 228.543 16.6714 228.347 17.0745L226.315 14.0407L226.182 14.1219C226.809 15.1422 227.512 16.1174 228.081 17.21C227.644 17.1734 227.211 17.0948 226.79 16.9752C227.138 17.1829 227.525 17.324 227.929 17.3906C228.038 17.409 228.142 17.4501 228.232 17.511C228.322 17.5719 228.397 17.651 228.452 17.7427C229.022 18.6456 229.61 19.5486 230.19 20.4064C230.437 20.7946 230.418 20.8127 229.962 20.8217C228.902 20.8637 227.85 20.6262 226.923 20.1355C226.733 20.0271 226.533 19.9368 226.268 19.8014C226.35 19.9566 226.488 20.0784 226.657 20.1445C227.72 20.8119 228.985 21.1291 230.256 21.0474C230.363 21.0268 230.474 21.0404 230.572 21.0862C230.67 21.1319 230.749 21.2072 230.797 21.3003C231.282 22.0678 231.747 22.8172 232.279 23.5757C232.345 23.675 232.488 23.7924 232.402 23.9097C232.317 24.0271 232.155 23.9639 232.023 23.9639C229.83 23.897 227.679 23.3795 225.717 22.447L225.242 22.2303C225.337 22.3933 225.488 22.5207 225.669 22.5915C226.989 23.3867 228.472 23.9068 230.019 24.1174C229.395 24.3774 228.737 24.5536 228.062 24.6411C228.613 24.668 229.163 24.5976 229.686 24.4334C229.983 24.2938 230.306 24.211 230.636 24.1896L232.459 24.3161C232.548 24.3161 232.635 24.3356 232.714 24.3733C232.793 24.4109 232.862 24.4655 232.915 24.5328L234.625 27.0881C232.853 27.3555 231.04 27.1908 229.354 26.6095C229.401 26.6908 229.401 26.7269 229.42 26.7359L229.715 26.8352C231.239 27.3365 232.854 27.5422 234.463 27.4402C234.564 27.4214 234.668 27.4341 234.761 27.4764C234.853 27.5188 234.929 27.5884 234.976 27.675C235.983 29.21 237.008 30.7359 238.024 32.2709C238.11 32.3973 238.243 32.5328 238.148 32.6953C238.053 32.8578 237.825 32.8036 237.654 32.7856L234.957 32.4515C234.833 32.4415 234.712 32.4046 234.605 32.3436C234.498 32.2825 234.407 32.199 234.34 32.0994C233.897 31.5311 233.401 31.0022 232.858 30.5192C232.056 29.795 231.11 29.2302 230.076 28.8578C231.707 29.674 233.103 30.8584 234.14 32.307H233.751L227.398 31.1422C227.213 31.1294 227.036 31.0699 226.884 30.9699C226.732 30.8698 226.611 30.7329 226.533 30.5734C226.441 30.4222 226.333 30.28 226.211 30.149H226.135L226.638 30.9075L224.587 30.3567C226.9 31.2622 229.32 31.8988 231.795 32.2529C230.285 33.0474 228.68 33.0294 227.16 33.3273C227.207 33.3377 227.256 33.3377 227.303 33.3273H227.749C229.266 33.327 230.765 33.0192 232.146 32.4244C232.288 32.3797 232.441 32.3797 232.583 32.4244C233.39 32.5599 234.197 32.6772 235.004 32.8217C235.251 32.8217 235.66 32.8217 235.688 32.9752C235.717 33.1287 235.356 33.3454 235.137 33.4989C234.341 33.985 233.517 34.4282 232.668 34.8262C232.752 34.8495 232.841 34.8495 232.925 34.8262C233.603 34.6202 234.244 34.3156 234.824 33.9233C235.253 33.5359 235.783 33.2646 236.359 33.1376C236.935 33.0106 237.536 33.0325 238.1 33.2009H238.319C238.444 33.2231 238.563 33.2688 238.669 33.3355C238.775 33.4022 238.866 33.4885 238.936 33.5892C239.987 35.2024 241.044 36.8127 242.108 38.4199C242.26 38.6547 242.203 38.7991 241.966 38.9255C241.372 39.2506 240.753 39.5313 240.114 39.7653C240.027 39.8032 239.93 39.8113 239.838 39.7882C239.746 39.7651 239.666 39.7123 239.61 39.6389C239.181 39.1318 238.701 38.6661 238.176 38.2483C237.181 37.4955 236.013 36.9758 234.767 36.7314C235.009 36.8468 235.259 36.9434 235.517 37.0203C236.943 37.5289 238.195 38.4004 239.136 39.5395C239.373 39.8104 239.392 39.9459 239.003 40.0632C237.297 40.5663 235.545 40.914 233.77 41.1016C233.649 41.1263 233.523 41.1089 233.415 41.0525C233.307 40.9961 233.224 40.9046 233.181 40.7946C232.239 39.09 230.757 37.7097 228.946 36.8488C228.437 36.5564 227.899 36.3114 227.341 36.1174C227.882 36.4696 228.452 36.7946 229.012 37.1287C230.578 37.9845 231.867 39.2341 232.735 40.7404C232.953 41.1468 232.953 41.1648 232.459 41.1738C230.405 41.1848 228.353 41.0368 226.325 40.7314C226.167 40.727 226.014 40.6783 225.886 40.5916C225.758 40.5048 225.659 40.3838 225.603 40.2438C225.4 39.8345 225.152 39.447 224.862 39.0881C224.158 38.2268 223.143 37.6444 222.013 37.4538C222.807 37.6739 223.536 38.0667 224.143 38.6011C224.749 39.1355 225.217 39.7969 225.508 40.5328C225.345 40.5879 225.167 40.5879 225.004 40.5328C222.668 40.1626 220.37 39.6298 218.062 39.1513C217.891 39.1513 217.721 39.0249 217.54 39.0971L217.293 39.052Z" fill="#ED2C2C"/>
<path d="M217.293 39.052H217.54C217.66 39.1078 217.784 39.1561 217.91 39.1965L223.352 40.5238C223.494 40.5238 223.646 40.5238 223.77 40.6773C222.823 41.2717 221.771 41.697 220.664 41.9324C221.79 41.8545 222.875 41.5032 223.817 40.912C223.881 40.8438 223.96 40.7904 224.049 40.756C224.138 40.7215 224.234 40.707 224.33 40.7134C225.701 40.9868 227.086 41.1888 228.48 41.3184C228.67 41.3184 228.698 41.4177 228.613 41.5712C228.435 41.899 228.211 42.2027 227.948 42.4741C227.224 43.1953 226.377 43.7938 225.441 44.2439L224.786 44.587C224.926 44.6015 225.068 44.5764 225.194 44.5148C226.391 43.964 227.682 43.4854 228.395 42.3748C228.574 42.0326 228.869 41.7577 229.232 41.5939C229.596 41.4302 230.006 41.3872 230.398 41.4719C232.004 41.5922 233.619 41.5407 235.213 41.3184C235.205 41.5098 235.147 41.6963 235.042 41.8601C234.112 43.8848 232.639 45.6412 230.769 46.9527C230.028 47.5215 229.268 48.0723 228.518 48.6321C228.667 48.602 228.806 48.5403 228.926 48.4516C230.336 47.5579 231.658 46.5455 232.877 45.4267C233.19 45.1288 233.266 45.1378 233.38 45.5531C233.537 46.1153 233.537 46.7065 233.38 47.2687C233.38 47.4132 233.285 47.5576 233.238 47.7021H233.371C233.732 46.9242 233.759 46.0429 233.447 45.2461C233.39 45.0926 233.333 44.9662 233.447 44.8127C234.351 43.8425 235.076 42.7345 235.593 41.5351C235.624 41.4486 235.681 41.3726 235.757 41.3164C235.833 41.2603 235.925 41.2264 236.02 41.219C236.714 41.0836 237.416 40.9482 238.1 40.7676C238.461 40.6773 238.556 40.7676 238.585 41.1017C238.674 41.9905 238.59 42.8873 238.338 43.7473C238.055 44.7987 237.569 45.7908 236.904 46.6728C237.141 46.6728 237.207 46.4832 237.293 46.3658C238.502 44.8491 239.083 42.9629 238.926 41.0655C238.926 40.6863 238.983 40.4877 239.401 40.3613C240.28 40.0609 241.14 39.7112 241.975 39.3139C242.184 39.2236 242.412 38.9075 242.659 39.2597C242.906 39.6118 243.029 39.6931 243.01 39.982C242.995 40.1516 242.957 40.3185 242.896 40.4786C241.998 43.0088 240.909 45.4742 239.639 47.8556C239.58 47.9802 239.492 48.0904 239.382 48.178C239.271 48.2655 239.142 48.3282 239.002 48.3613C237.897 48.6305 236.89 49.1797 236.087 49.9504C236.59 49.6795 237.037 49.3725 237.568 49.0475C238.109 48.7379 238.71 48.5352 239.335 48.4516C238.366 50.2394 237.416 51.8827 236.467 53.526H236.552L238.917 49.9143C239.202 50.2394 239.116 50.6457 239.297 50.9707C239.335 50.629 239.279 50.2837 239.135 49.9685C239.094 49.8949 239.072 49.8127 239.072 49.7292C239.072 49.6457 239.094 49.5635 239.135 49.4899C239.487 48.903 239.838 48.3161 240.161 47.6841C240.313 47.3861 240.455 47.4132 240.636 47.6299C240.893 47.961 241.041 48.3567 241.063 48.7676C241.063 49.0655 241.063 49.3725 241.139 49.6705C241.243 49.2714 241.25 48.855 241.159 48.453C241.069 48.0509 240.883 47.6737 240.617 47.35C240.436 47.1604 240.512 47.0249 240.617 46.8534C241.244 45.6163 241.794 44.3522 242.326 43.0791C242.383 42.9346 242.374 42.6908 242.592 42.6908C242.811 42.6908 242.887 42.8624 242.991 42.9978C243.559 43.8123 243.926 44.7383 244.064 45.7066C244.131 46.0497 244.188 46.3838 244.245 46.7269C244.345 45.2799 243.9 43.8461 242.991 42.6818C242.849 42.5193 242.621 42.3658 242.697 42.14C242.877 41.5531 243.105 40.9753 243.333 40.3342L245.299 43.2687C245.707 43.8917 245.707 43.9008 246.353 43.4944C248.252 46.3387 250.436 49.0655 252.307 51.9549C252.889 52.8089 253.421 53.692 253.903 54.6005C254.01 54.7881 254.053 55.0026 254.026 55.2145C254.03 55.306 254.001 55.3959 253.945 55.4705C253.89 55.545 253.809 55.5999 253.717 55.6267C253.625 55.6534 253.527 55.6505 253.436 55.6185C253.346 55.5864 253.27 55.5269 253.219 55.4493C253.072 55.293 252.956 55.1124 252.877 54.9166C252.447 53.7382 251.846 52.6228 251.092 51.6028C249.458 49.0836 247.644 46.6818 245.982 44.1897C245.897 44.0633 245.812 43.8917 245.622 43.9098C245.432 43.9278 245.365 44.1265 245.327 44.28C245.128 45.0475 244.957 45.824 244.767 46.5915C244.683 46.9617 244.549 47.3199 244.368 47.657C244.207 47.3771 244.083 47.1513 243.941 46.9346C243.608 46.4109 243.247 46.4019 242.887 46.9346C242.571 47.4469 242.319 47.9923 242.136 48.5599C241.861 49.2461 241.595 49.9414 241.329 50.6276C241.259 50.8318 241.15 51.0217 241.006 51.1874C240.845 50.9978 240.892 50.7902 240.845 50.6096C240.797 50.429 240.845 50.131 240.56 50.0768C240.275 50.0227 240.189 50.2664 240.066 50.429C239.838 50.745 239.629 51.0701 239.411 51.3951C239.316 51.5306 239.287 51.6931 239.021 51.5667C238.755 51.4403 238.594 51.7202 238.433 51.8737C237.901 52.3613 237.388 52.8669 236.866 53.3635L236.22 54.0046C236.315 53.3725 236.391 52.8127 236.486 52.2529C236.578 51.7797 236.613 51.298 236.59 50.8172C236.59 50.2123 236.248 50.0859 235.717 50.429C235.572 50.5185 235.433 50.6149 235.299 50.7179C235.299 50.5373 235.403 50.447 235.479 50.3477C235.857 49.7836 236.187 49.1918 236.467 48.578C236.62 48.2937 236.729 47.9895 236.79 47.675C236.875 47.1242 236.59 46.8624 236.02 46.9888C235.558 47.1029 235.118 47.289 234.719 47.5396C234.264 47.8014 233.827 48.0994 233.38 48.3793C233.196 48.5234 232.987 48.6364 232.763 48.7134C232.761 48.6864 232.761 48.6592 232.763 48.6321C232.82 48.4154 233.086 48.1987 232.906 48.0091C232.725 47.8195 232.431 47.9008 232.174 47.9459C231.05 48.2043 229.946 48.5362 228.869 48.9391C228.442 49.1201 227.979 49.2154 227.511 49.219L227.986 48.7856C228.331 48.4913 228.628 48.1506 228.869 47.7744C229.029 47.5258 229.125 47.2452 229.15 46.9549C229.176 46.6647 229.129 46.3729 229.015 46.1028C228.901 45.8326 228.721 45.5916 228.492 45.399C228.262 45.2064 227.988 45.0675 227.692 44.9933C226.968 44.8278 226.218 44.788 225.479 44.8759C224.988 44.9405 224.489 44.9405 223.998 44.8759C224.159 44.7044 224.283 44.587 224.396 44.4516C224.483 44.3769 224.551 44.2846 224.595 44.1816C224.639 44.0785 224.659 43.9673 224.651 43.8563C224.644 43.7452 224.61 43.6372 224.553 43.5401C224.496 43.4431 224.416 43.3596 224.321 43.2958C224.049 43.073 223.722 42.9206 223.371 42.8534L219.8 42.0407C219.905 41.8962 220.142 41.824 220.322 41.7066C220.959 41.2732 220.959 40.8037 220.322 40.4154C219.58 40.027 218.812 39.6832 218.024 39.3861C217.758 39.3229 217.473 39.3048 217.293 39.052Z" fill="#ED2C2C"/>
<path d="M253.751 17.2911L253.846 16.939C253.903 17.3253 253.903 17.7174 253.846 18.1037C253.846 18.7448 253.846 19.3769 253.846 20.018C253.894 20.9209 254.388 21.1286 255.176 20.65L255.736 20.3159C255.594 20.8667 255.489 21.3092 255.375 21.7516C255.176 22.5191 254.967 23.2866 254.844 24.0721C254.82 24.2248 254.82 24.38 254.844 24.5326C254.948 25.3363 255.366 25.58 256.173 25.3363L256.496 25.2279C256.544 25.5259 256.344 25.7245 256.221 25.9322C255.794 26.5606 255.443 27.2331 255.176 27.9367C255.062 28.2141 255.011 28.5114 255.028 28.8087C255.044 29.1061 255.127 29.3968 255.271 29.6613C255.454 30.0057 255.748 30.2854 256.11 30.4592C256.473 30.6331 256.884 30.6921 257.284 30.6275C257.912 30.5194 258.524 30.3406 259.108 30.0947C259.023 30.3891 258.843 30.651 258.595 30.8442C257.826 31.6297 256.971 32.343 256.249 33.1737C256.073 33.3643 255.92 33.5733 255.793 33.7968C255.556 34.194 255.651 34.3205 256.135 34.3295H256.458C256.286 34.5277 256.068 34.6853 255.822 34.79C255.121 35.1417 254.46 35.5591 253.846 36.036C253.533 36.2979 253.087 36.5688 253.239 37.0293C253.391 37.4898 253.922 37.4717 254.34 37.5078C255.342 37.5601 256.347 37.4934 257.332 37.3092L256.705 37.6884C256.287 37.9773 256.297 38.2392 256.705 38.501C257.051 38.6981 257.425 38.8471 257.816 38.9435L259.953 39.5665C259.003 39.8825 258.129 40.1624 257.256 40.4694C256.933 40.5958 256.468 40.5868 256.449 41.1015C256.449 41.2098 256.249 41.1828 256.135 41.2008L254.768 41.3904C254.616 41.3904 254.435 41.4536 254.388 41.6342C254.34 41.8148 254.511 41.9051 254.635 41.9954C254.758 42.0857 255.062 42.2843 255.328 42.4649C255.051 42.5446 254.759 42.5632 254.473 42.5191C253.419 42.4469 252.365 42.3566 251.311 42.2753C250.996 42.2375 250.676 42.2375 250.361 42.2753C249.839 42.3927 249.706 42.6636 249.972 43.115C250.052 43.2322 250.141 43.3439 250.238 43.4491L250.513 43.8103C250.264 43.8735 250.002 43.8735 249.753 43.8103C248.87 43.6839 247.997 43.4852 247.132 43.2866C246.857 43.2234 246.544 43.1241 246.335 43.4401L243.951 39.8916C244.606 39.9457 245.147 40.0089 245.698 40.036C245.825 40.0341 245.948 40.0708 246.051 40.1407C246.153 40.2107 246.229 40.3101 246.268 40.4243C246.497 40.9316 246.818 41.3962 247.218 41.7968C247.954 42.5069 248.824 43.0796 249.782 43.4852C249.392 43.1873 248.975 42.9164 248.576 42.6365C247.786 42.1196 247.135 41.4329 246.676 40.632C246.43 40.2076 246.506 40.1173 246.99 40.1444C248.462 40.2347 249.934 40.3069 251.406 40.2708C251.508 40.2597 251.611 40.2823 251.697 40.335C251.784 40.3876 251.849 40.467 251.881 40.5597C252.07 40.9081 252.339 41.2119 252.668 41.4493C252.996 41.6867 253.376 41.8516 253.78 41.9322C253.429 41.7426 253.153 41.6071 252.897 41.4536C252.559 41.2703 252.277 41.0056 252.08 40.6861C251.938 40.4333 251.928 40.2527 252.346 40.2527C253.011 40.2527 253.685 40.1986 254.35 40.1354C254.457 40.1181 254.567 40.1265 254.669 40.1596C254.772 40.1926 254.865 40.2495 254.939 40.325C255.233 40.6519 255.634 40.8747 256.078 40.957C255.632 40.7405 255.243 40.432 254.939 40.0541L259.412 39.5575V39.4582L253.438 39.8464C254.194 38.9418 255.138 38.1949 256.211 37.6523C255.1 38.053 254.118 38.7221 253.362 39.5936C253.3 39.6715 253.22 39.7343 253.127 39.7767C253.035 39.8191 252.933 39.8399 252.83 39.8374C249.948 39.9263 247.062 39.8117 244.198 39.4943C244.05 39.4772 243.903 39.447 243.761 39.404C243.607 39.3308 243.471 39.2268 243.362 39.099C243.254 38.9712 243.176 38.8227 243.134 38.6636C243.03 38.4017 243.362 38.3385 243.524 38.2121C244.237 37.6837 244.913 37.1106 245.546 36.4965C245.888 36.1354 246.145 36.1534 246.572 36.3701C248.192 37.2463 250.08 37.5652 251.919 37.2731C252.225 37.2534 252.521 37.1636 252.783 37.0112C252.279 37.0563 251.833 37.1286 251.396 37.1466C249.766 37.233 248.143 36.8793 246.714 36.1263C246.392 35.9457 246.316 35.7922 246.591 35.4852C247.046 35.0353 247.471 34.5589 247.864 34.0586C247.932 33.9531 248.031 33.8688 248.149 33.8159C248.267 33.763 248.399 33.7438 248.528 33.7606C249.838 33.84 251.153 33.718 252.422 33.3995C252.503 33.3675 252.593 33.3626 252.678 33.3856C252.762 33.4085 252.836 33.458 252.887 33.5259C253.302 33.9338 253.823 34.2298 254.397 34.3837C254.817 34.5141 255.264 34.5421 255.698 34.4649C255.54 34.4246 255.378 34.3974 255.214 34.3837C254.454 34.3198 253.734 34.0326 253.153 33.562C252.925 33.3724 252.878 33.246 253.21 33.1376C253.971 32.8834 254.713 32.5818 255.432 32.2347C256.398 31.7831 257.331 31.2703 258.224 30.6997C255.147 32.2166 252.08 33.7697 248.414 33.3543C248.431 33.3041 248.453 33.2557 248.481 33.2098C249.484 31.6564 250.327 30.0145 250.997 28.3069C251.023 28.2268 251.076 28.1573 251.149 28.1098C251.221 28.0622 251.308 28.0394 251.396 28.0451C253.296 27.9457 254.625 26.8893 255.936 25.7606C255.757 25.8256 255.59 25.917 255.442 26.0315C254.877 26.47 254.269 26.8569 253.628 27.1873C253.009 27.5327 252.312 27.731 251.596 27.7652C251.282 27.7652 251.225 27.7019 251.33 27.413C251.718 26.3894 252.035 25.3428 252.279 24.2798C252.325 24.0349 252.43 23.8035 252.587 23.6044C252.744 23.4052 252.947 23.2438 253.182 23.1331C254.047 22.57 254.757 21.8175 255.252 20.939C254.539 21.868 253.642 22.6561 252.612 23.2595C252.802 22.3566 252.992 21.4536 253.153 20.632C253.362 19.5214 253.638 18.4198 253.751 17.2911Z" fill="#ED2C2C"/>
<path d="M14.1216 31.6027C14.2165 31.6027 14.3875 31.8014 14.4065 32.0542V31.991C14.4065 31.7201 14.321 31.5034 14.2165 31.5034H12.6211V31.6027H14.1216Z" fill="#F7A7A9"/>
<path d="M14.416 32.0814C14.416 31.8285 14.226 31.6299 14.1311 31.6299H12.6211V32.0994L14.416 32.0814Z" fill="#ED2C2C"/>
<path d="M14.245 32.5057C14.34 32.5057 14.416 32.3251 14.435 32.0994H12.6211V32.5057H14.245Z" fill="#AC272A"/>
<path d="M11.0727 32.0542C11.0727 31.097 11.8324 30.3295 12.2977 30.3295C12.5352 30.3295 12.7441 30.5011 12.896 30.8442C12.7346 30.483 12.5162 30.2573 12.2598 30.2302C11.7564 30.2302 10.9492 31.0338 10.9492 32.0361C10.9492 32.0361 10.9492 32.0903 10.9492 32.1174C10.9802 32.657 11.2285 33.1646 11.6425 33.535C11.2765 33.1663 11.0727 32.6785 11.0727 32.1715C11.0727 32.1715 11.0727 32.0812 11.0727 32.0542Z" fill="#F7A7A9"/>
<path d="M12.3462 30.3386C11.8808 30.3386 11.1211 31.1061 11.1211 32.0632C11.1211 32.0632 11.1211 32.1174 11.1211 32.1445C11.1211 32.6514 11.3249 33.1392 11.6909 33.5079C12.707 33.3454 12.954 30.9707 12.9729 30.8714C12.783 30.5102 12.5741 30.3567 12.3462 30.3386Z" fill="#ED2C2C"/>
<path d="M13.1528 32C13.1578 31.6021 13.0837 31.2069 12.9344 30.8352C12.9344 30.8984 12.6495 33.237 11.6523 33.544C11.8105 33.7083 12.027 33.8112 12.2601 33.8329C12.754 33.7878 13.1528 32.9842 13.1528 32Z" fill="#AC272A"/>
<path d="M34.6441 26.2934H31.8616V32.5056H27.1133V12.4875H35.8692C40.9974 12.4875 42.8873 14.4198 42.8873 18.176V20.641C42.8873 23.1331 41.9376 24.8216 39.8293 25.6614L44.929 32.5056H39.2975L34.6441 26.2934ZM38.1579 18.5914C38.1579 17.0925 37.5596 16.4875 35.6318 16.4875H31.8331V22.3837H35.6318C37.6546 22.3837 38.1579 21.6885 38.1579 20.1896V18.5914Z" fill="white"/>
<path d="M62.0223 26.6818C62.0223 29.7157 59.8096 32.8127 53.8647 32.8127C47.9198 32.8127 45.707 29.7157 45.707 26.6818V18.3206C45.707 15.2868 47.9198 12.1897 53.8647 12.1897C59.8096 12.1897 62.0223 15.2868 62.0223 18.3206V26.6818ZM57.274 18.7179C57.274 17.1468 56.2293 16.1897 53.8552 16.1897C51.481 16.1897 50.4459 17.1468 50.4459 18.7179V26.2935C50.4459 27.8556 51.4905 28.8127 53.8552 28.8127C56.2199 28.8127 57.274 27.8556 57.274 26.2935V18.7179Z" fill="white"/>
<path d="M68.9745 21.3905L68.6611 32.5056H64.0742L64.9669 12.4785H69.7152L74.7675 25.2821L79.8197 12.5327H84.568L85.4702 32.5056H80.8643L80.5509 21.3815L76.9232 29.9322H72.6497L68.9745 21.3905Z" fill="white"/>
<path d="M92.5641 21.3905L92.2412 32.5056H87.6543L88.547 12.4785H93.2953L98.3475 25.2821L103.409 12.5327H108.158L109.031 32.5056H104.463L104.15 21.3815L100.484 29.9232H96.2488L92.5641 21.3905Z" fill="white"/>
<path d="M129.012 32.5056H124.083L122.944 28.5959H115.859L114.748 32.5056H109.819L116.239 12.4785H122.564L129.012 32.5056ZM116.961 24.8397H121.804L119.401 16.4514L116.961 24.8397Z" fill="white"/>
<path d="M140.389 22.3476L146.781 32.5056H141.814L137.702 25.8961L133.656 32.5056H128.689L135.043 22.3386L128.908 12.4785H133.903L137.759 18.7991L141.624 12.4785H146.581L140.389 22.3476Z" fill="white"/>
<path d="M29.3637 47.052C29.3637 49.4899 30.3134 50.2754 33.3618 50.2754C34.8007 50.2605 36.2361 50.1367 37.6543 49.9052L37.9012 51.8465C36.3797 52.1483 34.8305 52.3056 33.2763 52.3161C28.7844 52.3161 26.999 50.5102 26.999 47.1874V39.4854C26.999 36.1896 28.7844 34.3567 33.2763 34.3567C34.8305 34.3671 36.3797 34.5244 37.9012 34.8262L37.6543 36.7585C36.2352 36.5342 34.8002 36.4134 33.3618 36.3973C30.3608 36.3973 29.3637 37.1829 29.3637 39.6208V47.052Z" fill="#ED2C2C"/>
<path d="M55.6414 52.0541H53.2482L51.7288 47.8554H43.932L42.4505 52.0541H40.0479L46.2492 34.6184H49.4401L55.6414 52.0541ZM47.8446 36.2347L44.5683 45.9051H51.121L47.8446 36.2347Z" fill="#ED2C2C"/>
<path d="M61.0063 37.2098V52.0541H58.7461V34.6184H62.0035L69.9902 49.5439V34.6184H72.2504V52.0541H68.993L61.0063 37.2098Z" fill="#ED2C2C"/>
<path d="M90.95 52.0541H88.5473L87.0374 47.8554H79.2406L77.7496 52.045H75.3564L81.5578 34.6094H84.7487L90.95 52.0541ZM83.1532 36.2347L79.8769 45.9051H86.4201L83.1532 36.2347Z" fill="#ED2C2C"/>
<path d="M100.475 34.6184C104.967 34.6184 106.373 36.8396 106.373 39.6207V47.0518C106.373 49.8329 104.967 52.0541 100.475 52.0541H94.0176V34.6184H100.475ZM96.4297 50.0405H100.39C103.172 50.0405 103.999 48.9389 103.999 46.8983V39.7742C103.999 37.7335 103.172 36.632 100.39 36.632H96.4297V50.0405Z" fill="#ED2C2C"/>
<path d="M124.52 52.0541H122.118L120.608 47.8554H112.811L111.32 52.045H108.927L115.128 34.6094H118.319L124.52 52.0541ZM116.724 36.2347L113.447 45.9051H120L116.724 36.2347Z" fill="#ED2C2C"/>
<path d="M135.556 34.6184C140.048 34.6184 141.453 36.8396 141.453 39.6207V47.0518C141.453 49.8329 140.048 52.0541 135.556 52.0541H129.155V34.6184H135.556ZM131.51 50.0405H135.48C138.263 50.0405 139.089 48.9389 139.089 46.8983V39.7742C139.089 37.7335 138.263 36.632 135.48 36.632H131.51V50.0405Z" fill="#ED2C2C"/>
<path d="M158.443 47.0249C158.443 49.9323 156.543 52.3161 151.795 52.3161C147.047 52.3161 145.147 49.9323 145.147 47.0249V39.6389C145.147 36.7314 147.047 34.3567 151.795 34.3567C156.543 34.3567 158.443 36.7314 158.443 39.6389V47.0249ZM147.541 47.0249C147.541 49.1648 148.918 50.3748 151.805 50.3748C154.692 50.3748 156.078 49.1648 156.078 47.0249V39.7292C156.078 37.5802 154.701 36.3793 151.805 36.3793C148.908 36.3793 147.541 37.5802 147.541 39.7292V47.0249Z" fill="#ED2C2C"/>
<path d="M175.575 47.0249C175.575 49.9323 173.675 52.3161 168.927 52.3161C164.179 52.3161 162.279 49.9323 162.279 47.0249V39.6389C162.279 36.7314 164.179 34.3567 168.927 34.3567C173.675 34.3567 175.575 36.7314 175.575 39.6389V47.0249ZM164.672 46.9526C164.672 49.0926 166.049 50.3025 168.936 50.3025C171.823 50.3025 173.21 49.0926 173.21 46.9526V39.7292C173.21 37.5802 171.833 36.3793 168.936 36.3793C166.04 36.3793 164.672 37.544 164.672 39.7292V46.9526Z" fill="#ED2C2C"/>
<path d="M186.705 45.7426H182.213V52.0631H179.839V34.6184H186.838C190.779 34.6184 192.156 36.2347 192.156 38.9073V41.4265C192.156 43.4943 191.358 44.9028 189.241 45.4807L193.989 52.0541H191.263L186.705 45.7426ZM186.752 36.632H182.213V43.7561H186.752C189.013 43.7561 189.791 43.1511 189.791 41.4536V38.9344C189.791 37.2098 188.984 36.632 186.752 36.632Z" fill="#ED2C2C"/>
<path d="M202.014 52.3161C200.154 52.327 198.308 52.0212 196.562 51.4131L196.942 49.6073C198.603 50.1011 200.331 50.3568 202.071 50.3657C205.015 50.3657 205.622 49.6344 205.622 47.6569C205.622 45.3003 205.622 45.0926 201.824 44.28C197.389 43.377 196.866 42.5283 196.866 38.9075C196.866 35.8736 198.186 34.3928 202.726 34.3928C204.396 34.3951 206.06 34.5861 207.683 34.9617L207.493 36.8759C205.934 36.5492 204.342 36.3827 202.745 36.3793C199.744 36.3793 199.193 36.9572 199.193 38.9707C199.193 41.3815 199.193 41.4899 202.83 42.3477C207.702 43.5034 207.949 44.1535 207.949 47.5847C207.978 50.5644 207.028 52.3161 202.014 52.3161Z" fill="#ED2C2C"/>
<path d="M212.061 43.0972V52.0543H210.826V43.0972H212.061Z" fill="white"/>
<path d="M214.283 47.368C214.283 46.6998 214.283 46.1581 214.226 45.6253H215.318L215.384 46.6818C215.608 46.3061 215.934 45.9951 216.329 45.782C216.723 45.5689 217.172 45.4617 217.625 45.4718C218.575 45.4718 220.009 46.0046 220.009 48.1806V52.0181H218.784V48.3161C218.784 47.2777 218.376 46.4109 217.217 46.4109C216.84 46.4185 216.476 46.5424 216.18 46.7639C215.883 46.9854 215.671 47.2925 215.574 47.6389C215.514 47.8169 215.486 48.0029 215.489 48.1897V52.0542H214.264L214.283 47.368Z" fill="white"/>
<path d="M226.866 51.8194C226.268 52.0725 225.62 52.1989 224.966 52.1896C224.51 52.2113 224.054 52.1405 223.629 51.9819C223.204 51.8233 222.819 51.5805 222.501 51.2697C222.182 50.9588 221.936 50.587 221.78 50.1789C221.624 49.7709 221.561 49.3359 221.595 48.9029C221.573 48.4453 221.652 47.9883 221.828 47.5616C222.003 47.135 222.271 46.7482 222.614 46.4264C222.957 46.1045 223.368 45.8548 223.819 45.6935C224.27 45.5322 224.751 45.4628 225.232 45.4898C225.821 45.4828 226.404 45.5967 226.942 45.8239L226.657 46.7269C226.218 46.5086 225.727 46.4028 225.232 46.4199C224.595 46.4722 224.002 46.7499 223.57 47.1979C223.137 47.6459 222.898 48.2318 222.898 48.8397C222.898 49.4477 223.137 50.0335 223.57 50.4816C224.002 50.9296 224.595 51.2072 225.232 51.2596C225.754 51.2607 226.269 51.1528 226.742 50.9436L226.866 51.8194Z" fill="white"/>
<path d="M227.921 51.368C227.93 51.2127 227.987 51.0634 228.085 50.9387C228.182 50.8139 228.317 50.7192 228.47 50.6662C228.624 50.6132 228.791 50.6043 228.95 50.6406C229.109 50.6769 229.254 50.7568 229.365 50.8704C229.477 50.984 229.551 51.1263 229.579 51.2796C229.606 51.433 229.586 51.5906 229.52 51.733C229.454 51.8754 229.346 51.9963 229.208 52.0807C229.071 52.1651 228.91 52.2093 228.747 52.2078C228.633 52.2094 228.52 52.1884 228.415 52.146C228.31 52.1036 228.216 52.0409 228.138 51.9618C228.06 51.8827 228.001 51.7891 227.963 51.6868C227.926 51.5846 227.911 51.476 227.921 51.368Z" fill="white"/>
</g>
<defs>
<clipPath id="clip0_142_1438">
<rect width="260" height="64" fill="white"/>
</clipPath>
</defs>
</svg>
